GentiumPlus-ExtraBoldItalic.ufo
<glyph name="QuotMrk" format="2">
  <advance width="923"/>
  <unicode hex="0022"/>
  <outline>
    <contour>
      <point x="897" y="1399" type="line"/>
      <point x="850" y="1430" type="line"/>
      <point x="821" y="1423"/>
      <point x="632" y="1359"/>
      <point x="601" y="1342" type="curve"/>
      <point x="618" y="828" type="line"/>
      <point x="647" y="828"/>
      <point x="710" y="837"/>
      <point x="732" y="849" type="curve"/>
    </contour>
    <contour>
      <point x="507" y="1399" type="line"/>
      <point x="460" y="1430" type="line"/>
      <point x="431" y="1423"/>
      <point x="242" y="1359"/>
      <point x="211" y="1342" type="curve"/>
      <point x="228" y="828" type="line"/>
      <point x="257" y="828"/>
      <point x="320" y="837"/>
      <point x="342" y="849" type="curve"/>
    </contour>
  </outline>
</glyph>
<glyph name="Ampersand" format="2">
  <advance width="1327"/>
  <unicode hex="0026"/>
  <outline>
    <contour>
      <point x="1401" y="748" type="curve"/>
      <point x="1377" y="794" type="line"/>
      <point x="917" y="794" type="line"/>
      <point x="891" y="784"/>
      <point x="834" y="730"/>
      <point x="819" y="713" type="curve"/>
      <point x="844" y="675" type="line"/>
      <point x="908" y="675"/>
      <point x="962" y="627"/>
      <point x="962" y="538" type="curve" smooth="yes"/>
      <point x="962" y="526"/>
      <point x="961" y="515"/>
      <point x="959" y="502" type="curve" smooth="yes"/>
      <point x="936" y="334"/>
      <point x="720" y="124"/>
      <point x="527" y="124" type="curve" smooth="yes"/>
      <point x="435" y="124"/>
      <point x="338" y="174"/>
      <point x="338" y="320" type="curve" smooth="yes"/>
      <point x="338" y="336"/>
      <point x="339" y="354"/>
      <point x="342" y="373" type="curve" smooth="yes"/>
      <point x="363" y="528"/>
      <point x="430" y="649"/>
      <point x="676" y="802" type="curve" smooth="yes"/>
      <point x="836" y="901"/>
      <point x="1019" y="1065"/>
      <point x="1038" y="1204" type="curve" smooth="yes"/>
      <point x="1040" y="1217"/>
      <point x="1041" y="1229"/>
      <point x="1041" y="1242" type="curve" smooth="yes"/>
      <point x="1041" y="1355"/>
      <point x="965" y="1450"/>
      <point x="786" y="1450" type="curve" smooth="yes"/>
      <point x="573" y="1450"/>
      <point x="379" y="1288"/>
      <point x="349" y="1073" type="curve"/>
      <point x="345" y="1046"/>
      <point x="344" y="1019"/>
      <point x="344" y="991" type="curve" smooth="yes"/>
      <point x="344" y="524"/>
      <point x="837" y="-30"/>
      <point x="955" y="-30" type="curve" smooth="yes"/>
      <point x="982" y="-30"/>
      <point x="1150" y="14"/>
      <point x="1264" y="65" type="curve"/>
      <point x="1258" y="148" type="line"/>
      <point x="1242" y="144"/>
      <point x="1226" y="142"/>
      <point x="1208" y="142" type="curve" smooth="yes"/>
      <point x="1158" y="142"/>
      <point x="1105" y="161"/>
      <point x="1060" y="206" type="curve" smooth="yes"/>
      <point x="873" y="397"/>
      <point x="592" y="780"/>
      <point x="592" y="1073" type="curve" smooth="yes"/>
      <point x="592" y="1093"/>
      <point x="593" y="1112"/>
      <point x="596" y="1130" type="curve" smooth="yes"/>
      <point x="611" y="1235"/>
      <point x="647" y="1313"/>
      <point x="708" y="1313" type="curve" smooth="yes"/>
      <point x="749" y="1313"/>
      <point x="785" y="1276"/>
      <point x="785" y="1204" type="curve" smooth="yes"/>
      <point x="785" y="1194"/>
      <point x="785" y="1183"/>
      <point x="783" y="1171" type="curve" smooth="yes"/>
      <point x="771" y="1083"/>
      <point x="719" y="973"/>
      <point x="595" y="905" type="curve" smooth="yes"/>
      <point x="248" y="714"/>
      <point x="92" y="532"/>
      <point x="68" y="352" type="curve" smooth="yes"/>
      <point x="65" y="326"/>
      <point x="63" y="302"/>
      <point x="63" y="279" type="curve" smooth="yes"/>
      <point x="63" y="76"/>
      <point x="198" y="-30"/>
      <point x="441" y="-30" type="curve" smooth="yes"/>
      <point x="793" y="-30"/>
      <point x="1120" y="311"/>
      <point x="1152" y="543" type="curve" smooth="yes"/>
      <point x="1154" y="557"/>
      <point x="1155" y="571"/>
      <point x="1155" y="585" type="curve" smooth="yes"/>
      <point x="1155" y="612"/>
      <point x="1151" y="637"/>
      <point x="1137" y="660" type="curve"/>
      <point x="1179" y="658"/>
      <point x="1229" y="632"/>
      <point x="1272" y="609" type="curve"/>
      <point x="1305" y="632"/>
      <point x="1367" y="706"/>
    </contour>
  </outline>
</glyph>
<glyph name="AtSgn" format="2">
  <advance width="1729"/>
  <unicode hex="0040"/>
  <outline>
    <contour>
      <point x="1659" y="549" type="curve"/>
      <point x="1731" y="1049"/>
      <point x="1423" y="1333"/>
      <point x="1039" y="1333" type="curve" smooth="yes"/>
      <point x="530" y="1333"/>
      <point x="123" y="915"/>
      <point x="60" y="465" type="curve" smooth="yes"/>
      <point x="-12" y="-47"/>
      <point x="347" y="-375"/>
      <point x="809" y="-375" type="curve" smooth="yes"/>
      <point x="1116" y="-375"/>
      <point x="1356" y="-208"/>
      <point x="1458" y="-107" type="curve"/>
      <point x="1422" y="-2" type="line"/>
      <point x="1338" y="-70"/>
      <point x="1113" y="-206"/>
      <point x="893" y="-206" type="curve" smooth="yes"/>
      <point x="582" y="-206"/>
      <point x="260" y="20"/>
      <point x="327" y="504" type="curve"/>
      <point x="379" y="864"/>
      <point x="635" y="1174"/>
      <point x="955" y="1174" type="curve" smooth="yes"/>
      <point x="1250" y="1174"/>
      <point x="1488" y="961"/>
      <point x="1420" y="510" type="curve" smooth="yes"/>
      <point x="1386" y="283"/>
      <point x="1334" y="184"/>
      <point x="1266" y="184" type="curve" smooth="yes"/>
      <point x="1234" y="184"/>
      <point x="1210" y="227"/>
      <point x="1210" y="309" type="curve" smooth="yes"/>
      <point x="1210" y="368"/>
      <point x="1230" y="529"/>
      <point x="1271" y="720" type="curve"/>
      <point x="1289" y="810"/>
      <point x="1305" y="824"/>
      <point x="1350" y="861" type="curve"/>
      <point x="1315" y="936" type="line"/>
      <point x="1225" y="893"/>
      <point x="1032" y="831"/>
      <point x="1019" y="770" type="curve"/>
      <point x="1005" y="692"/>
      <point x="944" y="358"/>
      <point x="944" y="281" type="curve" smooth="yes"/>
      <point x="944" y="14"/>
      <point x="1047" y="-41"/>
      <point x="1094" y="-41" type="curve" smooth="yes"/>
      <point x="1252" y="-41"/>
      <point x="1612" y="203"/>
    </contour>
    <contour>
      <point x="1259" y="847" type="curve"/>
      <point x="1212" y="853"/>
      <point x="1120" y="936"/>
      <point x="1030" y="936" type="curve" smooth="yes"/>
      <point x="946" y="936"/>
      <point x="812" y="891"/>
      <point x="740" y="842" type="curve" smooth="yes"/>
      <point x="552" y="713"/>
      <point x="442" y="516"/>
      <point x="442" y="305" type="curve" smooth="yes"/>
      <point x="442" y="55"/>
      <point x="585" y="-41"/>
      <point x="675" y="-41" type="curve" smooth="yes"/>
      <point x="771" y="-41"/>
      <point x="902" y="68"/>
      <point x="968" y="189" type="curve"/>
      <point x="984" y="387" type="line"/>
      <point x="879" y="225"/>
      <point x="808" y="176"/>
      <point x="768" y="176" type="curve" smooth="yes"/>
      <point x="741" y="176"/>
      <point x="699" y="237"/>
      <point x="699" y="379" type="curve" smooth="yes"/>
      <point x="699" y="537"/>
      <point x="766" y="781"/>
      <point x="918" y="781" type="curve" smooth="yes"/>
      <point x="1006" y="781"/>
      <point x="1108" y="611"/>
      <point x="1145" y="611" type="curve" smooth="yes"/>
      <point x="1178" y="611"/>
      <point x="1202" y="808"/>
    </contour>
  </outline>
</glyph>
<glyph name="LtnCapE" format="2">
  <advance width="1030"/>
  <unicode hex="0045"/>
  <anchor x="458" y="0" name="H"/>
  <anchor x="444" y="-100" name="L"/>
  <anchor x="668" y="0" name="O"/>
  <anchor x="1068" y="1072" name="R"/>
  <anchor x="628" y="1320" name="U"/>
  <outline>
    <contour>
      <point x="1040" y="1225" type="curve"/>
      <point x="1005" y="1260" type="line"/>
      <point x="527" y="1260" type="line"/>
      <point x="482" y="1130" type="line"/>
      <point x="833" y="1130" type="line" smooth="yes"/>
      <point x="879" y="1130"/>
      <point x="894" y="1053"/>
      <point x="883" y="930" type="curve"/>
      <point x="962" y="930" type="line"/>
      <point x="984" y="981"/>
      <point x="1027" y="1157"/>
    </contour>
    <contour>
      <point x="872" y="697" type="curve"/>
      <point x="843" y="735" type="line"/>
      <point x="435" y="735" type="line"/>
      <point x="399" y="615" type="line"/>
      <point x="591" y="615" type="line" smooth="yes"/>
      <point x="695" y="615"/>
      <point x="735" y="599"/>
      <point x="767" y="560" type="curve"/>
      <point x="797" y="581"/>
      <point x="849" y="660"/>
    </contour>
    <contour>
      <point x="977" y="324" type="curve"/>
      <point x="904" y="352" type="line"/>
      <point x="829" y="196"/>
      <point x="780" y="130"/>
      <point x="666" y="130" type="curve" smooth="yes"/>
      <point x="583" y="130" type="line" smooth="yes"/>
      <point x="419" y="130"/>
      <point x="397" y="155"/>
      <point x="402" y="194" type="curve" smooth="yes"/>
      <point x="531" y="1137" type="line" smooth="yes"/>
      <point x="534" y="1156"/>
      <point x="585" y="1168"/>
      <point x="672" y="1177" type="curve"/>
      <point x="683" y="1260" type="line"/>
      <point x="162" y="1260" type="line"/>
      <point x="151" y="1177" type="line"/>
      <point x="237" y="1158"/>
      <point x="270" y="1131"/>
      <point x="268" y="1115" type="curve" smooth="yes"/>
      <point x="135" y="144" type="line" smooth="yes"/>
      <point x="133" y="126"/>
      <point x="87" y="101"/>
      <point x="1" y="83" type="curve"/>
      <point x="-10" y="0" type="line"/>
      <point x="895" y="0" type="line"/>
      <point x="910" y="39"/>
      <point x="952" y="209"/>
    </contour>
  </outline>
</glyph>
<glyph name="LtnCapI" format="2">
  <advance width="652"/>
  <unicode hex="0049"/>
  <anchor x="269" y="0" name="H"/>
  <anchor x="250" y="-100" name="L"/>
  <anchor x="324" y="0" name="O"/>
  <anchor x="648" y="1072" name="R"/>
  <anchor x="435" y="1320" name="U"/>
  <outline>
    <contour>
      <point x="693" y="1260" type="line"/>
      <point x="182" y="1260" type="line"/>
      <point x="171" y="1177" type="line"/>
      <point x="257" y="1158"/>
      <point x="289" y="1131"/>
      <point x="287" y="1115" type="curve" smooth="yes"/>
      <point x="154" y="144" type="line" smooth="yes"/>
      <point x="152" y="126"/>
      <point x="106" y="101"/>
      <point x="21" y="83" type="curve"/>
      <point x="10" y="0" type="line"/>
      <point x="521" y="0" type="line"/>
      <point x="532" y="83" type="line"/>
      <point x="445" y="101"/>
      <point x="413" y="128"/>
      <point x="415" y="144" type="curve" smooth="yes"/>
      <point x="548" y="1115" type="line" smooth="yes"/>
      <point x="551" y="1134"/>
      <point x="596" y="1158"/>
      <point x="682" y="1177" type="curve"/>
    </contour>
  </outline>
</glyph>
<glyph name="LtnCapU" format="2">
  <advance width="1282"/>
  <unicode hex="0055"/>
  <anchor x="620" y="0" name="H"/>
  <anchor x="590" y="-100" name="L"/>
  <anchor x="688" y="0" name="O"/>
  <anchor x="1296" y="1072" name="R"/>
  <anchor x="774" y="1320" name="U"/>
  <outline>
    <contour>
      <point x="1351" y="1260" type="line"/>
      <point x="940" y="1260" type="line"/>
      <point x="929" y="1177" type="line"/>
      <point x="1015" y="1158"/>
      <point x="1040" y="1131"/>
      <point x="1038" y="1115" type="curve" smooth="yes"/>
      <point x="947" y="469" type="line"/>
      <point x="920" y="270"/>
      <point x="847" y="126"/>
      <point x="673" y="126" type="curve" smooth="yes"/>
      <point x="509" y="126"/>
      <point x="432" y="211"/>
      <point x="432" y="397" type="curve" smooth="yes"/>
      <point x="432" y="432"/>
      <point x="437" y="471"/>
      <point x="443" y="510" type="curve" smooth="yes"/>
      <point x="531" y="1115" type="line" smooth="yes"/>
      <point x="534" y="1134"/>
      <point x="579" y="1158"/>
      <point x="663" y="1177" type="curve"/>
      <point x="674" y="1260" type="line"/>
      <point x="169" y="1260" type="line"/>
      <point x="158" y="1177" type="line"/>
      <point x="244" y="1158"/>
      <point x="275" y="1131"/>
      <point x="273" y="1115" type="curve" smooth="yes"/>
      <point x="180" y="463" type="line" smooth="yes"/>
      <point x="174" y="422"/>
      <point x="171" y="383"/>
      <point x="171" y="348" type="curve" smooth="yes"/>
      <point x="171" y="104"/>
      <point x="373" y="-31"/>
      <point x="592" y="-31" type="curve" smooth="yes"/>
      <point x="856" y="-31"/>
      <point x="1081" y="162"/>
      <point x="1130" y="512" type="curve" smooth="yes"/>
      <point x="1215" y="1115" type="line" smooth="yes"/>
      <point x="1218" y="1134"/>
      <point x="1256" y="1158"/>
      <point x="1340" y="1177" type="curve"/>
    </contour>
  </outline>
</glyph>
<glyph name="LtnCapW" format="2">
  <advance width="1603"/>
  <unicode hex="0057"/>
  <anchor x="750" y="-100" name="L"/>
  <anchor x="940" y="1320" name="U"/>
  <outline>
    <contour>
      <point x="1721" y="1260" type="line"/>
      <point x="1299" y="1260" type="line"/>
      <point x="1288" y="1177" type="line"/>
      <point x="1370" y="1162"/>
      <point x="1432" y="1146"/>
      <point x="1422" y="1115" type="curve" smooth="yes"/>
      <point x="1187" y="430" type="line"/>
      <point x="995" y="1260" type="line"/>
      <point x="888" y="1260" type="line"/>
      <point x="512" y="430" type="line"/>
      <point x="455" y="1107" type="line" smooth="yes"/>
      <point x="453" y="1136"/>
      <point x="459" y="1164"/>
      <point x="582" y="1177" type="curve"/>
      <point x="593" y="1260" type="line"/>
      <point x="120" y="1260" type="line"/>
      <point x="109" y="1177" type="line"/>
      <point x="194" y="1160"/>
      <point x="225" y="1140"/>
      <point x="227" y="1107" type="curve" smooth="yes"/>
      <point x="313" y="-30" type="line"/>
      <point x="365" y="-18"/>
      <point x="450" y="2"/>
      <point x="475" y="59" type="curve"/>
      <point x="850" y="854" type="line"/>
      <point x="1051" y="-30" type="line"/>
      <point x="1091" y="-21"/>
      <point x="1184" y="2"/>
      <point x="1203" y="59" type="curve" smooth="yes"/>
      <point x="1560" y="1115" type="line"/>
      <point x="1566" y="1136"/>
      <point x="1596" y="1153"/>
      <point x="1710" y="1177" type="curve"/>
    </contour>
  </outline>
</glyph>
<glyph name="LtnCapY" format="2">
  <advance width="1178"/>
  <unicode hex="0059"/>
  <anchor x="541" y="-100" name="L"/>
  <anchor x="725" y="1320" name="U"/>
  <outline>
    <contour>
      <point x="1281" y="1260" type="line"/>
      <point x="885" y="1260" type="line"/>
      <point x="874" y="1177" type="line"/>
      <point x="968" y="1164"/>
      <point x="991" y="1146"/>
      <point x="969" y="1111" type="curve" smooth="yes"/>
      <point x="702" y="678" type="line"/>
      <point x="643" y="870"/>
      <point x="560" y="1089"/>
      <point x="487" y="1221" type="curve" smooth="yes"/>
      <point x="470" y="1252"/>
      <point x="429" y="1270"/>
      <point x="392" y="1270" type="curve" smooth="yes"/>
      <point x="341" y="1270"/>
      <point x="204" y="1250"/>
      <point x="129" y="1239" type="curve"/>
      <point x="122" y="1156" type="line"/>
      <point x="225" y="1156"/>
      <point x="242" y="1141"/>
      <point x="259" y="1111" type="curve" smooth="yes"/>
      <point x="333" y="978"/>
      <point x="448" y="701"/>
      <point x="504" y="479" type="curve"/>
      <point x="727" y="479" type="line"/>
      <point x="1126" y="1111" type="line" smooth="yes"/>
      <point x="1147" y="1145"/>
      <point x="1183" y="1160"/>
      <point x="1270" y="1177" type="curve"/>
    </contour>
    <contour>
      <point x="836" y="83" type="line"/>
      <point x="723" y="108"/>
      <point x="698" y="138"/>
      <point x="701" y="155" type="curve"/>
      <point x="767" y="637" type="line"/>
      <point x="506" y="637" type="line"/>
      <point x="440" y="155" type="line" smooth="yes"/>
      <point x="437" y="136"/>
      <point x="403" y="108"/>
      <point x="287" y="83" type="curve"/>
      <point x="276" y="0" type="line"/>
      <point x="825" y="0" type="line"/>
    </contour>
  </outline>
</glyph>
<glyph name="RtSqrBrac" format="2">
  <advance width="706"/>
  <unicode hex="005D"/>
  <outline>
    <contour>
      <point x="718" y="1599" type="line"/>
      <point x="217" y="1599" type="line"/>
      <point x="205" y="1577"/>
      <point x="174" y="1512"/>
      <point x="166" y="1483" type="curve"/>
      <point x="205" y="1447" type="line"/>
      <point x="459" y="1447" type="line"/>
      <point x="230" y="-181" type="line"/>
      <point x="-32" y="-181" type="line"/>
      <point x="-42" y="-198"/>
      <point x="-76" y="-266"/>
      <point x="-86" y="-297" type="curve"/>
      <point x="-47" y="-336" type="line"/>
      <point x="448" y="-336" type="line"/>
    </contour>
  </outline>
</glyph>
<glyph name="LtnSmV" format="2">
  <advance width="998"/>
  <unicode hex="0076"/>
  <anchor x="440" y="0" name="H"/>
  <anchor x="418" y="-100" name="L"/>
  <anchor x="390" y="0" name="O"/>
  <anchor x="569" y="1000" name="U"/>
  <outline>
    <contour>
      <point x="998" y="852" type="curve" smooth="yes"/>
      <point x="998" y="915"/>
      <point x="960" y="936"/>
      <point x="914" y="936" type="curve" smooth="yes"/>
      <point x="849" y="936"/>
      <point x="660" y="857"/>
      <point x="574" y="808" type="curve"/>
      <point x="597" y="733" type="line"/>
      <point x="626" y="744"/>
      <point x="645" y="748"/>
      <point x="667" y="748" type="curve" smooth="yes"/>
      <point x="704" y="748"/>
      <point x="719" y="733"/>
      <point x="719" y="697" type="curve" smooth="yes"/>
      <point x="719" y="669"/>
      <point x="708" y="541"/>
      <point x="528" y="262" type="curve"/>
      <point x="523" y="313"/>
      <point x="452" y="707"/>
      <point x="420" y="809" type="curve" smooth="yes"/>
      <point x="391" y="903"/>
      <point x="369" y="936"/>
      <point x="330" y="936" type="curve" smooth="yes"/>
      <point x="287" y="936"/>
      <point x="109" y="848"/>
      <point x="-4" y="790" type="curve"/>
      <point x="24" y="713" type="line"/>
      <point x="52" y="722"/>
      <point x="103" y="737"/>
      <point x="122" y="737" type="curve" smooth="yes"/>
      <point x="145" y="737"/>
      <point x="172" y="727"/>
      <point x="194" y="655" type="curve" smooth="yes"/>
      <point x="231" y="533"/>
      <point x="293" y="225"/>
      <point x="325" y="0" type="curve"/>
      <point x="367" y="-41" type="line"/>
      <point x="394" y="-29"/>
      <point x="533" y="40"/>
      <point x="556" y="52" type="curve"/>
      <point x="883" y="578"/>
      <point x="998" y="766"/>
    </contour>
  </outline>
</glyph>
<glyph name="YenSgn" format="2">
  <advance width="968"/>
  <unicode hex="00A5"/>
  <outline>
    <contour>
      <point x="1118" y="1204" type="line"/>
      <point x="722" y="1204" type="line"/>
      <point x="711" y="1121" type="line"/>
      <point x="804" y="1108"/>
      <point x="828" y="1090"/>
      <point x="805" y="1055" type="curve"/>
      <point x="583" y="693" type="line"/>
      <point x="523" y="885"/>
      <point x="461" y="1033"/>
      <point x="388" y="1165" type="curve" smooth="yes"/>
      <point x="371" y="1196"/>
      <point x="331" y="1214"/>
      <point x="295" y="1214" type="curve" smooth="yes"/>
      <point x="244" y="1214"/>
      <point x="96" y="1194"/>
      <point x="22" y="1183" type="curve"/>
      <point x="14" y="1100" type="line"/>
      <point x="117" y="1100"/>
      <point x="134" y="1085"/>
      <point x="151" y="1055" type="curve" smooth="yes"/>
      <point x="220" y="930"/>
      <point x="305" y="721"/>
      <point x="363" y="512" type="curve"/>
      <point x="361" y="502" type="line"/>
      <point x="103" y="502" type="line"/>
      <point x="92" y="481"/>
      <point x="62" y="416"/>
      <point x="54" y="396" type="curve"/>
      <point x="71" y="372" type="line"/>
      <point x="343" y="372" type="line"/>
      <point x="314" y="155" type="line" smooth="yes"/>
      <point x="311" y="136"/>
      <point x="277" y="108"/>
      <point x="161" y="83" type="curve"/>
      <point x="150" y="0" type="line"/>
      <point x="699" y="0" type="line"/>
      <point x="710" y="83" type="line"/>
      <point x="597" y="108"/>
      <point x="572" y="138"/>
      <point x="575" y="155" type="curve"/>
      <point x="604" y="372" type="line"/>
      <point x="836" y="372" type="line"/>
      <point x="888" y="479" type="line"/>
      <point x="868" y="502" type="line"/>
      <point x="622" y="502" type="line"/>
      <point x="623" y="509" type="line"/>
      <point x="962" y="1055" type="line"/>
      <point x="985" y="1089"/>
      <point x="1020" y="1104"/>
      <point x="1107" y="1121" type="curve"/>
    </contour>
  </outline>
</glyph>
<glyph name="VulgFracOneQuarter" format="2">
  <advance width="1209"/>
  <unicode hex="00BC"/>
  <outline>
    <contour>
      <point x="1233" y="1207" type="line"/>
      <point x="1213" y="1235" type="line"/>
      <point x="1185" y="1229"/>
      <point x="1105" y="1214"/>
      <point x="1079" y="1203" type="curve"/>
      <point x="48" y="0" type="line"/>
      <point x="67" y="-30" type="line"/>
      <point x="102" y="-21"/>
      <point x="174" y="-12"/>
      <point x="205" y="3" type="curve"/>
    </contour>
    <contour>
      <point x="1111" y="216" type="curve"/>
      <point x="1100" y="231" type="line"/>
      <point x="1023" y="231" type="line"/>
      <point x="1080" y="576" type="line"/>
      <point x="1059" y="598" type="line"/>
      <point x="1023" y="587"/>
      <point x="958" y="569"/>
      <point x="921" y="559" type="curve"/>
      <point x="607" y="179" type="line"/>
      <point x="627" y="158" type="line"/>
      <point x="875" y="158" type="line"/>
      <point x="861" y="74" type="line" smooth="yes"/>
      <point x="859" y="63"/>
      <point x="838" y="54"/>
      <point x="744" y="40" type="curve"/>
      <point x="737" y="0" type="line"/>
      <point x="1061" y="0" type="line"/>
      <point x="1067" y="40" type="line"/>
      <point x="1010" y="52"/>
      <point x="996" y="60"/>
      <point x="997" y="69" type="curve" smooth="yes"/>
      <point x="1012" y="158" type="line"/>
      <point x="1045" y="158" type="line"/>
      <point x="1062" y="169"/>
      <point x="1093" y="195"/>
    </contour>
    <contour>
      <point x="886" y="231" type="line"/>
      <point x="737" y="231" type="line"/>
      <point x="924" y="461" type="line"/>
    </contour>
    <contour>
      <point x="544" y="637" type="line"/>
      <point x="551" y="682" type="line"/>
      <point x="447" y="694"/>
      <point x="424" y="712"/>
      <point x="426" y="725" type="curve" smooth="yes"/>
      <point x="506" y="1213" type="line"/>
      <point x="484" y="1235" type="line"/>
      <point x="428" y="1215"/>
      <point x="256" y="1164"/>
      <point x="193" y="1153" type="curve"/>
      <point x="202" y="1109" type="line"/>
      <point x="298" y="1127"/>
      <point x="330" y="1124"/>
      <point x="337" y="1116" type="curve" smooth="yes"/>
      <point x="344" y="1107"/>
      <point x="343" y="1094"/>
      <point x="339" y="1069" type="curve" smooth="yes"/>
      <point x="283" y="725" type="line" smooth="yes"/>
      <point x="281" y="711"/>
      <point x="246" y="694"/>
      <point x="132" y="682" type="curve"/>
      <point x="125" y="637" type="line"/>
    </contour>
  </outline>
</glyph>
<glyph name="DivSgn" format="2">
  <advance width="835"/>
  <unicode hex="00F7"/>
  <outline>
    <contour>
      <point x="557" y="853" type="curve" smooth="yes"/>
      <point x="567" y="923"/>
      <point x="544" y="959"/>
      <point x="487" y="959" type="curve" smooth="yes"/>
      <point x="423" y="959"/>
      <point x="362" y="892"/>
      <point x="350" y="808" type="curve" smooth="yes"/>
      <point x="341" y="739"/>
      <point x="360" y="700"/>
      <point x="420" y="700" type="curve" smooth="yes"/>
      <point x="485" y="700"/>
      <point x="546" y="770"/>
    </contour>
    <contour>
      <point x="484" y="319" type="curve" smooth="yes"/>
      <point x="494" y="389"/>
      <point x="471" y="425"/>
      <point x="414" y="425" type="curve" smooth="yes"/>
      <point x="350" y="425"/>
      <point x="289" y="358"/>
      <point x="277" y="274" type="curve" smooth="yes"/>
      <point x="268" y="205"/>
      <point x="287" y="166"/>
      <point x="347" y="166" type="curve" smooth="yes"/>
      <point x="412" y="166"/>
      <point x="473" y="236"/>
    </contour>
    <contour>
      <point x="780" y="606" type="curve"/>
      <point x="752" y="640" type="line"/>
      <point x="112" y="640" type="line"/>
      <point x="98" y="614"/>
      <point x="60" y="548"/>
      <point x="50" y="519" type="curve"/>
      <point x="76" y="485" type="line"/>
      <point x="717" y="485" type="line"/>
      <point x="729" y="507"/>
      <point x="769" y="577"/>
    </contour>
  </outline>
</glyph>
<glyph name="LtnSmHStrk" format="2">
  <advance width="1097"/>
  <unicode hex="0127"/>
  <anchor x="424" y="-100" name="L"/>
  <anchor x="663" y="1640" name="U"/>
  <outline>
    <contour>
      <point x="793" y="1165" type="line"/>
      <point x="764" y="1200" type="line"/>
      <point x="100" y="1200" type="line"/>
      <point x="87" y="1179"/>
      <point x="55" y="1123"/>
      <point x="46" y="1102" type="curve"/>
      <point x="75" y="1070" type="line"/>
      <point x="739" y="1070" type="line"/>
    </contour>
    <contour>
      <point x="1074" y="122" type="curve"/>
      <point x="1044" y="199" type="line"/>
      <point x="1001" y="178"/>
      <point x="976" y="166"/>
      <point x="939" y="166" type="curve" smooth="yes"/>
      <point x="913" y="166"/>
      <point x="903" y="180"/>
      <point x="903" y="225" type="curve" smooth="yes"/>
      <point x="903" y="336"/>
      <point x="985" y="641"/>
      <point x="985" y="780" type="curve" smooth="yes"/>
      <point x="985" y="909"/>
      <point x="936" y="936"/>
      <point x="852" y="936" type="curve" smooth="yes"/>
      <point x="733" y="936"/>
      <point x="599" y="880"/>
      <point x="443" y="738" type="curve"/>
      <point x="467" y="883"/>
      <point x="542" y="1343"/>
      <point x="542" y="1438" type="curve" smooth="yes"/>
      <point x="542" y="1499"/>
      <point x="510" y="1520"/>
      <point x="473" y="1520" type="curve" smooth="yes"/>
      <point x="418" y="1520"/>
      <point x="200" y="1435"/>
      <point x="88" y="1385" type="curve"/>
      <point x="105" y="1306" type="line"/>
      <point x="137" y="1317"/>
      <point x="187" y="1333"/>
      <point x="210" y="1333" type="curve" smooth="yes"/>
      <point x="232" y="1333"/>
      <point x="251" y="1327"/>
      <point x="251" y="1266" type="curve" smooth="yes"/>
      <point x="251" y="1096"/>
      <point x="115" y="286"/>
      <point x="66" y="0" type="curve"/>
      <point x="109" y="-41" type="line"/>
      <point x="142" y="-23"/>
      <point x="327" y="60"/>
      <point x="362" y="75" type="curve"/>
      <point x="362" y="112"/>
      <point x="363" y="154"/>
      <point x="385" y="301" type="curve" smooth="yes"/>
      <point x="403" y="420"/>
      <point x="428" y="519"/>
      <point x="466" y="582" type="curve" smooth="yes"/>
      <point x="534" y="694"/>
      <point x="618" y="716"/>
      <point x="652" y="716" type="curve" smooth="yes"/>
      <point x="680" y="716"/>
      <point x="695" y="701"/>
      <point x="695" y="620" type="curve" smooth="yes"/>
      <point x="695" y="530"/>
      <point x="617" y="147"/>
      <point x="617" y="76" type="curve" smooth="yes"/>
      <point x="617" y="4"/>
      <point x="654" y="-41"/>
      <point x="693" y="-41" type="curve" smooth="yes"/>
      <point x="773" y="-41"/>
      <point x="951" y="50"/>
    </contour>
  </outline>
</glyph>
<glyph name="LtnCapEng" format="2">
  <advance width="1246"/>
  <unicode hex="014A"/>
  <anchor x="528" y="-600" name="L"/>
  <anchor x="781" y="1320" name="U"/>
  <outline>
    <contour>
      <point x="1226" y="1042" type="curve" smooth="yes"/>
      <point x="1226" y="1235"/>
      <point x="1091" y="1290"/>
      <point x="1001" y="1290" type="curve" smooth="yes"/>
      <point x="872" y="1290"/>
      <point x="674" y="1196"/>
      <point x="512" y="1012" type="curve"/>
      <point x="523" y="1080"/>
      <point x="534" y="1139"/>
      <point x="534" y="1184" type="curve" smooth="yes"/>
      <point x="534" y="1264"/>
      <point x="516" y="1290"/>
      <point x="483" y="1290" type="curve" smooth="yes"/>
      <point x="426" y="1290"/>
      <point x="239" y="1220"/>
      <point x="99" y="1168" type="curve"/>
      <point x="116" y="1073" type="line"/>
      <point x="267" y="1114"/>
      <point x="277" y="1114"/>
      <point x="255" y="958" type="curve" smooth="yes"/>
      <point x="141" y="144" type="line" smooth="yes"/>
      <point x="139" y="126"/>
      <point x="94" y="101"/>
      <point x="10" y="83" type="curve"/>
      <point x="0" y="0" type="line"/>
      <point x="510" y="0" type="line"/>
      <point x="520" y="83" type="line"/>
      <point x="436" y="101"/>
      <point x="395" y="128"/>
      <point x="397" y="144" type="curve" smooth="yes"/>
      <point x="473" y="696" type="line" smooth="yes"/>
      <point x="501" y="901"/>
      <point x="746" y="1081"/>
      <point x="858" y="1081" type="curve" smooth="yes"/>
      <point x="927" y="1081"/>
      <point x="965" y="1049"/>
      <point x="965" y="975" type="curve" smooth="yes"/>
      <point x="965" y="954"/>
      <point x="955" y="882"/>
      <point x="950" y="842" type="curve" smooth="yes"/>
      <point x="858" y="160" type="line"/>
      <point x="818" y="-130"/>
      <point x="715" y="-268"/>
      <point x="618" y="-268" type="curve" smooth="yes"/>
      <point x="508" y="-268"/>
      <point x="417" y="-135"/>
      <point x="378" y="-135" type="curve" smooth="yes"/>
      <point x="335" y="-135"/>
      <point x="179" y="-299"/>
      <point x="179" y="-326" type="curve" smooth="yes"/>
      <point x="179" y="-365"/>
      <point x="337" y="-454"/>
      <point x="454" y="-454" type="curve" smooth="yes"/>
      <point x="560" y="-454"/>
      <point x="677" y="-398"/>
      <point x="745" y="-352" type="curve" smooth="yes"/>
      <point x="910" y="-241"/>
      <point x="1083" y="-23"/>
      <point x="1121" y="247" type="curve" smooth="yes"/>
      <point x="1220" y="950" type="line" smooth="yes"/>
      <point x="1224" y="980"/>
      <point x="1226" y="1012"/>
    </contour>
  </outline>
</glyph>
<glyph name="LtnSmLigOe" format="2">
  <advance width="1462"/>
  <unicode hex="0153"/>
  <anchor x="687" y="0" name="H"/>
  <anchor x="664" y="-100" name="L"/>
  <anchor x="1010" y="0" name="O"/>
  <anchor x="1639" y="870" name="R"/>
  <anchor x="815" y="1000" name="U"/>
  <outline>
    <contour>
      <point x="1429" y="760" type="curve" smooth="yes"/>
      <point x="1429" y="846"/>
      <point x="1346" y="936"/>
      <point x="1191" y="936" type="curve" smooth="yes"/>
      <point x="1070" y="936"/>
      <point x="953" y="865"/>
      <point x="891" y="816" type="curve" smooth="yes"/>
      <point x="715" y="679"/>
      <point x="633" y="512"/>
      <point x="633" y="303" type="curve" smooth="yes"/>
      <point x="633" y="31"/>
      <point x="826" y="-41"/>
      <point x="917" y="-41" type="curve" smooth="yes"/>
      <point x="1053" y="-41"/>
      <point x="1187" y="40"/>
      <point x="1406" y="230" type="curve"/>
      <point x="1402" y="240"/>
      <point x="1363" y="303"/>
      <point x="1351" y="311" type="curve"/>
      <point x="1187" y="182"/>
      <point x="1084" y="126"/>
      <point x="1026" y="126" type="curve" smooth="yes"/>
      <point x="948" y="126"/>
      <point x="874" y="233"/>
      <point x="874" y="377" type="curve" smooth="yes"/>
      <point x="874" y="524"/>
      <point x="901" y="636"/>
      <point x="981" y="722" type="curve" smooth="yes"/>
      <point x="1016" y="760"/>
      <point x="1049" y="791"/>
      <point x="1087" y="791" type="curve" smooth="yes"/>
      <point x="1125" y="791"/>
      <point x="1157" y="749"/>
      <point x="1157" y="705" type="curve" smooth="yes"/>
      <point x="1157" y="606"/>
      <point x="1113" y="549"/>
      <point x="755" y="391" type="curve"/>
      <point x="730" y="362"/>
      <point x="761" y="277"/>
      <point x="761" y="277" type="curve"/>
      <point x="1362" y="470"/>
      <point x="1429" y="643"/>
    </contour>
    <contour>
      <point x="880" y="559" type="curve" smooth="yes"/>
      <point x="880" y="780"/>
      <point x="772" y="936"/>
      <point x="552" y="936" type="curve" smooth="yes"/>
      <point x="476" y="936"/>
      <point x="350" y="893"/>
      <point x="283" y="840" type="curve" smooth="yes"/>
      <point x="106" y="698"/>
      <point x="33" y="535"/>
      <point x="33" y="344" type="curve" smooth="yes"/>
      <point x="33" y="125"/>
      <point x="164" y="-41"/>
      <point x="378" y="-41" type="curve" smooth="yes"/>
      <point x="452" y="-41"/>
      <point x="575" y="4"/>
      <point x="642" y="63" type="curve"/>
      <point x="792" y="199"/>
      <point x="880" y="381"/>
    </contour>
    <contour>
      <point x="637" y="474" type="curve" smooth="yes"/>
      <point x="637" y="310"/>
      <point x="587" y="102"/>
      <point x="443" y="102" type="curve" smooth="yes"/>
      <point x="379" y="102"/>
      <point x="287" y="251"/>
      <point x="287" y="429" type="curve" smooth="yes"/>
      <point x="287" y="599"/>
      <point x="354" y="789"/>
      <point x="482" y="789" type="curve" smooth="yes"/>
      <point x="561" y="789"/>
      <point x="637" y="677"/>
    </contour>
  </outline>
</glyph>
<glyph name="LtnCapBTopbar" format="2">
  <advance width="1241"/>
  <unicode hex="0182"/>
  <anchor x="381" y="-100" name="L"/>
  <anchor x="575" y="1320" name="U"/>
  <outline>
    <contour>
      <point x="1177" y="356" type="curve" smooth="yes"/>
      <point x="1204" y="551"/>
      <point x="1096" y="740"/>
      <point x="674" y="740" type="curve" smooth="yes"/>
      <point x="573" y="740"/>
      <point x="430" y="732"/>
      <point x="351" y="705" type="curve"/>
      <point x="417" y="611" type="line"/>
      <point x="483" y="621"/>
      <point x="552" y="634"/>
      <point x="640" y="634" type="curve" smooth="yes"/>
      <point x="864" y="634"/>
      <point x="901" y="489"/>
      <point x="881" y="342" type="curve" smooth="yes"/>
      <point x="855" y="162"/>
      <point x="714" y="100"/>
      <point x="572" y="100" type="curve" smooth="yes"/>
      <point x="512" y="100"/>
      <point x="463" y="116"/>
      <point x="425" y="138" type="curve"/>
      <point x="84" y="0" type="line"/>
      <point x="84" y="0"/>
      <point x="501" y="-14"/>
      <point x="618" y="-14" type="curve" smooth="yes"/>
      <point x="918" y="-14"/>
      <point x="1145" y="129"/>
    </contour>
    <contour>
      <point x="1135" y="1223" type="curve"/>
      <point x="1095" y="1260" type="line"/>
      <point x="570" y="1260" type="line"/>
      <point x="522" y="1130" type="line"/>
      <point x="899" y="1130" type="line" smooth="yes"/>
      <point x="950" y="1130"/>
      <point x="950" y="1060"/>
      <point x="935" y="890" type="curve"/>
      <point x="1023" y="890" type="line"/>
      <point x="1053" y="966"/>
      <point x="1122" y="1155"/>
    </contour>
    <contour>
      <point x="612" y="0" type="line"/>
      <point x="623" y="83" type="line"/>
      <point x="467" y="110"/>
      <point x="433" y="126"/>
      <point x="436" y="144" type="curve" smooth="yes"/>
      <point x="575" y="1137" type="line" smooth="yes"/>
      <point x="578" y="1155"/>
      <point x="633" y="1158"/>
      <point x="726" y="1177" type="curve"/>
      <point x="738" y="1260" type="line"/>
      <point x="570" y="1260" type="line"/>
      <point x="167" y="1260" type="line"/>
      <point x="155" y="1177" type="line"/>
      <point x="248" y="1158"/>
      <point x="294" y="1131"/>
      <point x="292" y="1115" type="curve" smooth="yes"/>
      <point x="156" y="144" type="line" smooth="yes"/>
      <point x="153" y="126"/>
      <point x="94" y="101"/>
      <point x="1" y="83" type="curve"/>
      <point x="-10" y="0" type="line"/>
    </contour>
  </outline>
</glyph>
<glyph name="LtnSmCHook" format="2">
  <advance width="1006"/>
  <unicode hex="0188"/>
  <anchor x="430" y="-100" name="L"/>
  <anchor x="580" y="1000" name="U"/>
  <outline>
    <contour>
      <point x="371" y="-41" type="curve" smooth="yes"/>
      <point x="499" y="-41"/>
      <point x="636" y="30"/>
      <point x="845" y="220" type="curve"/>
      <point x="839" y="230"/>
      <point x="800" y="287"/>
      <point x="790" y="301" type="curve"/>
      <point x="647" y="184"/>
      <point x="548" y="126"/>
      <point x="469" y="126" type="curve" smooth="yes"/>
      <point x="395" y="126"/>
      <point x="343" y="226"/>
      <point x="343" y="398" type="curve" smooth="yes"/>
      <point x="343" y="585"/>
      <point x="419" y="781"/>
      <point x="551" y="781" type="curve" smooth="yes"/>
      <point x="627" y="781"/>
      <point x="665" y="651"/>
      <point x="713" y="651" type="curve" smooth="yes"/>
      <point x="758" y="651"/>
      <point x="881" y="764"/>
      <point x="937" y="825" type="curve"/>
      <point x="855" y="852"/>
      <point x="791" y="936"/>
      <point x="674" y="936" type="curve" smooth="yes"/>
      <point x="552" y="936"/>
      <point x="417" y="871"/>
      <point x="343" y="822" type="curve" smooth="yes"/>
      <point x="147" y="691"/>
      <point x="77" y="502"/>
      <point x="77" y="322" type="curve" smooth="yes"/>
      <point x="77" y="41"/>
      <point x="251" y="-41"/>
    </contour>
    <contour>
      <point x="937" y="825" type="curve"/>
      <point x="949" y="904"/>
      <point x="965" y="1040"/>
      <point x="983" y="1160" type="curve" smooth="yes"/>
      <point x="998" y="1260"/>
      <point x="1056" y="1337"/>
      <point x="1109" y="1337" type="curve" smooth="yes"/>
      <point x="1163" y="1337"/>
      <point x="1206" y="1215"/>
      <point x="1241" y="1215" type="curve" smooth="yes"/>
      <point x="1273" y="1215"/>
      <point x="1431" y="1352"/>
      <point x="1488" y="1393" type="curve"/>
      <point x="1428" y="1400"/>
      <point x="1316" y="1520"/>
      <point x="1199" y="1520" type="curve" smooth="yes"/>
      <point x="1107" y="1520"/>
      <point x="1024" y="1479"/>
      <point x="954" y="1427" type="curve" smooth="yes"/>
      <point x="858" y="1356"/>
      <point x="748" y="1242"/>
      <point x="719" y="1065" type="curve" smooth="yes"/>
      <point x="703" y="949"/>
      <point x="712" y="1012"/>
      <point x="696" y="896" type="curve"/>
      <point x="748" y="860"/>
      <point x="849" y="789"/>
    </contour>
  </outline>
</glyph>
<glyph name="LtnCapSchwa" format="2">
  <advance width="1206"/>
  <unicode hex="018F"/>
  <anchor x="485" y="-100" name="L"/>
  <anchor x="739" y="1320" name="U"/>
  <outline>
    <contour>
      <point x="1190" y="784" type="curve" smooth="yes"/>
      <point x="1190" y="1106"/>
      <point x="966" y="1290"/>
      <point x="704" y="1290" type="curve" smooth="yes"/>
      <point x="589" y="1290"/>
      <point x="406" y="1260"/>
      <point x="200" y="1081" type="curve"/>
      <point x="203" y="1067"/>
      <point x="233" y="1012"/>
      <point x="246" y="1006" type="curve"/>
      <point x="422" y="1119"/>
      <point x="511" y="1135"/>
      <point x="612" y="1135" type="curve" smooth="yes"/>
      <point x="738" y="1135"/>
      <point x="899" y="1008"/>
      <point x="899" y="743" type="curve" smooth="yes"/>
      <point x="899" y="479"/>
      <point x="780" y="125"/>
      <point x="532" y="125" type="curve" smooth="yes"/>
      <point x="409" y="125"/>
      <point x="330" y="218"/>
      <point x="330" y="314" type="curve" smooth="yes"/>
      <point x="330" y="375"/>
      <point x="366" y="460"/>
      <point x="419" y="460" type="curve" smooth="yes"/>
      <point x="929" y="460" type="line"/>
      <point x="947" y="590" type="line"/>
      <point x="333" y="590" type="line" smooth="yes"/>
      <point x="315" y="590"/>
      <point x="197" y="540"/>
      <point x="130" y="502" type="curve"/>
      <point x="92" y="457"/>
      <point x="70" y="371"/>
      <point x="70" y="300" type="curve" smooth="yes"/>
      <point x="70" y="138"/>
      <point x="175" y="-30"/>
      <point x="455" y="-30" type="curve" smooth="yes"/>
      <point x="880" y="-30"/>
      <point x="1190" y="350"/>
    </contour>
  </outline>
</glyph>
<glyph name="LtnSmFHook" format="2">
  <advance width="689"/>
  <unicode hex="0192"/>
  <anchor x="123" y="-600" name="L"/>
  <anchor x="430" y="1640" name="U"/>
  <outline>
    <contour>
      <point x="773" y="867" type="curve"/>
      <point x="743" y="905" type="line"/>
      <point x="194" y="905" type="line"/>
      <point x="53" y="816" type="line"/>
      <point x="78" y="775" type="line"/>
      <point x="493" y="775" type="line" smooth="yes"/>
      <point x="573" y="775"/>
      <point x="612" y="767"/>
      <point x="626" y="730" type="curve"/>
      <point x="653" y="744"/>
      <point x="747" y="830"/>
    </contour>
    <contour>
      <point x="1053" y="1393" type="curve"/>
      <point x="1012" y="1407"/>
      <point x="871" y="1520"/>
      <point x="734" y="1520" type="curve" smooth="yes"/>
      <point x="652" y="1520"/>
      <point x="570" y="1479"/>
      <point x="499" y="1427" type="curve" smooth="yes"/>
      <point x="329" y="1300"/>
      <point x="260" y="1116"/>
      <point x="229" y="899" type="curve"/>
      <point x="203" y="700"/>
      <point x="174" y="227"/>
      <point x="129" y="12" type="curve" smooth="yes"/>
      <point x="78" y="-236"/>
      <point x="62" y="-313"/>
      <point x="-45" y="-313" type="curve" smooth="yes"/>
      <point x="-122" y="-313"/>
      <point x="-208" y="-211"/>
      <point x="-241" y="-211" type="curve" smooth="yes"/>
      <point x="-268" y="-211"/>
      <point x="-387" y="-359"/>
      <point x="-387" y="-394" type="curve" smooth="yes"/>
      <point x="-387" y="-421"/>
      <point x="-267" y="-500"/>
      <point x="-161" y="-500" type="curve" smooth="yes"/>
      <point x="-66" y="-500"/>
      <point x="30" y="-464"/>
      <point x="102" y="-404" type="curve" smooth="yes"/>
      <point x="251" y="-281"/>
      <point x="368" y="-122"/>
      <point x="400" y="67" type="curve" smooth="yes"/>
      <point x="427" y="228"/>
      <point x="476" y="733"/>
      <point x="503" y="952" type="curve"/>
      <point x="521" y="1122"/>
      <point x="556" y="1337"/>
      <point x="656" y="1337" type="curve" smooth="yes"/>
      <point x="722" y="1337"/>
      <point x="762" y="1215"/>
      <point x="807" y="1215" type="curve" smooth="yes"/>
      <point x="840" y="1215"/>
      <point x="996" y="1352"/>
    </contour>
  </outline>
</glyph>
<glyph name="LtnCapKHook" format="2">
  <advance width="1287"/>
  <unicode hex="0198"/>
  <anchor x="570" y="-100" name="L"/>
  <anchor x="755" y="1320" name="U"/>
  <outline>
    <contour>
      <point x="674" y="1260" type="line"/>
      <point x="162" y="1260" type="line"/>
      <point x="151" y="1177" type="line"/>
      <point x="237" y="1158"/>
      <point x="270" y="1131"/>
      <point x="268" y="1115" type="curve" smooth="yes"/>
      <point x="135" y="144" type="line" smooth="yes"/>
      <point x="133" y="126"/>
      <point x="87" y="101"/>
      <point x="1" y="83" type="curve"/>
      <point x="-10" y="0" type="line"/>
      <point x="502" y="0" type="line"/>
      <point x="513" y="83" type="line"/>
      <point x="424" y="101"/>
      <point x="393" y="128"/>
      <point x="395" y="144" type="curve" smooth="yes"/>
      <point x="528" y="1115" type="line" smooth="yes"/>
      <point x="531" y="1134"/>
      <point x="576" y="1158"/>
      <point x="663" y="1177" type="curve"/>
    </contour>
    <contour>
      <point x="1224" y="131" type="curve"/>
      <point x="1195" y="214" type="line"/>
      <point x="1128" y="195"/>
      <point x="1046" y="171"/>
      <point x="1010" y="218" type="curve" smooth="yes"/>
      <point x="654" y="676" type="line"/>
      <point x="987" y="1034" type="line"/>
      <point x="1008" y="1058"/>
      <point x="1033" y="1079"/>
      <point x="1063" y="1079" type="curve" smooth="yes"/>
      <point x="1090" y="1079"/>
      <point x="1110" y="1065"/>
      <point x="1101" y="997" type="curve" smooth="yes"/>
      <point x="1096" y="957"/>
      <point x="1057" y="883"/>
      <point x="1030" y="845" type="curve"/>
      <point x="1057" y="786" type="line"/>
      <point x="1118" y="803"/>
      <point x="1275" y="871"/>
      <point x="1285" y="893" type="curve"/>
      <point x="1296" y="923"/>
      <point x="1318" y="991"/>
      <point x="1323" y="1026" type="curve" smooth="yes"/>
      <point x="1345" y="1185"/>
      <point x="1267" y="1270"/>
      <point x="1149" y="1270" type="curve" smooth="yes"/>
      <point x="1030" y="1270"/>
      <point x="930" y="1214"/>
      <point x="836" y="1103" type="curve" smooth="yes"/>
      <point x="447" y="643" type="line"/>
      <point x="815" y="29" type="line"/>
      <point x="836" y="-4"/>
      <point x="861" y="-14"/>
      <point x="898" y="-14" type="curve" smooth="yes"/>
      <point x="957" y="-14"/>
      <point x="1088" y="32"/>
    </contour>
  </outline>
</glyph>
<glyph name="LtnCapTrndM" format="2">
  <advance width="2096"/>
  <unicode hex="019C"/>
  <anchor x="726" y="-100" name="L"/>
  <anchor x="920" y="1320" name="U"/>
  <outline>
    <contour>
      <point x="156" y="1260" type="line"/>
      <point x="144" y="1177" type="line"/>
      <point x="238" y="1157"/>
      <point x="273" y="1133"/>
      <point x="270" y="1115" type="curve" smooth="yes"/>
      <point x="169" y="354" type="line" smooth="yes"/>
      <point x="128" y="63"/>
      <point x="244" y="-30"/>
      <point x="414" y="-30" type="curve" smooth="yes"/>
      <point x="566" y="-30"/>
      <point x="737" y="79"/>
      <point x="892" y="263" type="curve"/>
      <point x="883" y="142"/>
      <point x="918" y="-30"/>
      <point x="1144" y="-30" type="curve" smooth="yes"/>
      <point x="1263" y="-30"/>
      <point x="1425" y="38"/>
      <point x="1615" y="255" type="curve"/>
      <point x="1581" y="14" type="line"/>
      <point x="1622" y="-30" type="line"/>
      <point x="1725" y="13"/>
      <point x="1859" y="31"/>
      <point x="1997" y="50" type="curve"/>
      <point x="2008" y="130" type="line"/>
      <point x="1883" y="140"/>
      <point x="1881" y="154"/>
      <point x="1897" y="264" type="curve" smooth="yes"/>
      <point x="2010" y="1115" type="line" smooth="yes"/>
      <point x="2013" y="1133"/>
      <point x="2055" y="1157"/>
      <point x="2154" y="1177" type="curve"/>
      <point x="2166" y="1260" type="line"/>
      <point x="1616" y="1260" type="line"/>
      <point x="1604" y="1177" type="line"/>
      <point x="1693" y="1158"/>
      <point x="1733" y="1133"/>
      <point x="1730" y="1115" type="curve" smooth="yes"/>
      <point x="1650" y="499" type="line"/>
      <point x="1490" y="294"/>
      <point x="1371" y="190"/>
      <point x="1290" y="190" type="curve" smooth="yes"/>
      <point x="1210" y="190"/>
      <point x="1162" y="229"/>
      <point x="1193" y="449" type="curve" smooth="yes"/>
      <point x="1280" y="1115" type="line" smooth="yes"/>
      <point x="1283" y="1133"/>
      <point x="1325" y="1157"/>
      <point x="1424" y="1177" type="curve"/>
      <point x="1436" y="1260" type="line"/>
      <point x="886" y="1260" type="line"/>
      <point x="874" y="1177" type="line"/>
      <point x="960" y="1159"/>
      <point x="1003" y="1133"/>
      <point x="1000" y="1115" type="curve" smooth="yes"/>
      <point x="920" y="499" type="line"/>
      <point x="766" y="297"/>
      <point x="638" y="190"/>
      <point x="560" y="190" type="curve" smooth="yes"/>
      <point x="473" y="190"/>
      <point x="433" y="239"/>
      <point x="463" y="449" type="curve" smooth="yes"/>
      <point x="550" y="1115" type="line" smooth="yes"/>
      <point x="553" y="1133"/>
      <point x="590" y="1155"/>
      <point x="694" y="1177" type="curve"/>
      <point x="706" y="1260" type="line"/>
    </contour>
  </outline>
</glyph>
<glyph name="LtnCapOMiddleTilde" format="2">
  <advance width="1191"/>
  <unicode hex="019F"/>
  <anchor x="545" y="-100" name="L"/>
  <anchor x="729" y="1320" name="U"/>
  <outline>
    <contour>
      <point x="1180" y="774" type="curve" smooth="yes"/>
      <point x="1180" y="1055"/>
      <point x="1037" y="1290"/>
      <point x="745" y="1290" type="curve" smooth="yes"/>
      <point x="526" y="1290"/>
      <point x="358" y="1167"/>
      <point x="248" y="1018" type="curve" smooth="yes"/>
      <point x="141" y="873"/>
      <point x="70" y="693"/>
      <point x="70" y="485" type="curve" smooth="yes"/>
      <point x="70" y="205"/>
      <point x="235" y="-31"/>
      <point x="511" y="-31" type="curve" smooth="yes"/>
      <point x="689" y="-31"/>
      <point x="867" y="82"/>
      <point x="981" y="225" type="curve" smooth="yes"/>
      <point x="1102" y="377"/>
      <point x="1180" y="586"/>
    </contour>
    <contour>
      <point x="897" y="595" type="line"/>
      <point x="862" y="358"/>
      <point x="762" y="110"/>
      <point x="576" y="110" type="curve" smooth="yes"/>
      <point x="422" y="110"/>
      <point x="342" y="283"/>
      <point x="342" y="532" type="curve" smooth="yes"/>
      <point x="342" y="547"/>
      <point x="342" y="578"/>
      <point x="343" y="595" type="curve"/>
    </contour>
    <contour>
      <point x="909" y="725" type="curve"/>
      <point x="360" y="725" type="line"/>
      <point x="401" y="944"/>
      <point x="505" y="1155"/>
      <point x="672" y="1155" type="curve" smooth="yes"/>
      <point x="828" y="1155"/>
      <point x="911" y="981"/>
      <point x="911" y="756" type="curve" smooth="yes"/>
      <point x="911" y="748"/>
      <point x="910" y="732"/>
    </contour>
  </outline>
</glyph>
<glyph name="LtnCapOi" format="2">
  <advance width="1860"/>
  <unicode hex="01A2"/>
  <anchor x="713" y="-100" name="L"/>
  <anchor x="898" y="1320" name="U"/>
  <outline>
    <contour>
      <point x="1727" y="-350" type="line"/>
      <point x="1739" y="-267" type="line"/>
      <point x="1646" y="-249"/>
      <point x="1600" y="-222"/>
      <point x="1603" y="-206" type="curve"/>
      <point x="1656" y="170"/>
      <point x="1708" y="545"/>
      <point x="1761" y="921" type="curve" smooth="yes"/>
      <point x="1796" y="1171"/>
      <point x="1734" y="1290"/>
      <point x="1469" y="1290" type="curve" smooth="yes"/>
      <point x="1349" y="1290"/>
      <point x="1236" y="1238"/>
      <point x="1105" y="1139" type="curve"/>
      <point x="1012" y="1243"/>
      <point x="913" y="1290"/>
      <point x="731" y="1290" type="curve" smooth="yes"/>
      <point x="584" y="1290"/>
      <point x="446" y="1227"/>
      <point x="335" y="1125" type="curve"/>
      <point x="201" y="1002"/>
      <point x="106" y="820"/>
      <point x="78" y="622" type="curve" smooth="yes"/>
      <point x="30" y="286"/>
      <point x="216" y="-30"/>
      <point x="537" y="-30" type="curve" smooth="yes"/>
      <point x="720" y="-30"/>
      <point x="891" y="61"/>
      <point x="1018" y="203" type="curve" smooth="yes"/>
      <point x="1123" y="321"/>
      <point x="1197" y="473"/>
      <point x="1220" y="637" type="curve" smooth="yes"/>
      <point x="1238" y="765"/>
      <point x="1225" y="921"/>
      <point x="1174" y="1028" type="curve"/>
      <point x="1264" y="1091"/>
      <point x="1328" y="1110"/>
      <point x="1397" y="1110" type="curve" smooth="yes"/>
      <point x="1497" y="1110"/>
      <point x="1517" y="1030"/>
      <point x="1486" y="812" type="curve" smooth="yes"/>
      <point x="1343" y="-206" type="line" smooth="yes"/>
      <point x="1340" y="-224"/>
      <point x="1282" y="-249"/>
      <point x="1189" y="-267" type="curve"/>
      <point x="1177" y="-350" type="line"/>
    </contour>
    <contour>
      <point x="948" y="619" type="curve" smooth="yes"/>
      <point x="898" y="266"/>
      <point x="767" y="110"/>
      <point x="606" y="110" type="curve" smooth="yes"/>
      <point x="431" y="110"/>
      <point x="310" y="352"/>
      <point x="352" y="651" type="curve" smooth="yes"/>
      <point x="397" y="977"/>
      <point x="506" y="1155"/>
      <point x="683" y="1155" type="curve" smooth="yes"/>
      <point x="880" y="1155"/>
      <point x="987" y="895"/>
    </contour>
  </outline>
</glyph>
<glyph name="LtnYr" format="2">
  <advance width="1139"/>
  <unicode hex="01A6"/>
  <anchor x="485" y="-100" name="L"/>
  <anchor x="721" y="1320" name="U"/>
  <outline>
    <contour>
      <point x="391" y="866" type="line"/>
      <point x="448" y="872"/>
      <point x="501" y="876"/>
      <point x="553" y="876" type="curve" smooth="yes"/>
      <point x="743" y="876"/>
      <point x="811" y="774"/>
      <point x="798" y="696" type="curve" smooth="yes"/>
      <point x="778" y="578"/>
      <point x="671" y="504"/>
      <point x="505" y="504" type="curve" smooth="yes"/>
      <point x="474" y="504"/>
      <point x="451" y="506"/>
      <point x="409" y="514" type="curve"/>
      <point x="404" y="402" type="line"/>
      <point x="440" y="392"/>
      <point x="475" y="388"/>
      <point x="508" y="388" type="curve" smooth="yes"/>
      <point x="837" y="388"/>
      <point x="1033" y="511"/>
      <point x="1060" y="727" type="curve" smooth="yes"/>
      <point x="1078" y="869"/>
      <point x="971" y="990"/>
      <point x="597" y="990" type="curve" smooth="yes"/>
      <point x="526" y="990"/>
      <point x="464" y="984"/>
      <point x="406" y="975" type="curve"/>
    </contour>
    <contour>
      <point x="1166" y="-36" type="line"/>
      <point x="1068" y="-65"/>
      <point x="1028" y="-71"/>
      <point x="993" y="-9" type="curve"/>
      <point x="665" y="510" type="line"/>
      <point x="492" y="459" type="line"/>
      <point x="749" y="-116" type="line" smooth="yes"/>
      <point x="798" y="-227"/>
      <point x="825" y="-247"/>
      <point x="881" y="-247" type="curve" smooth="yes"/>
      <point x="917" y="-247"/>
      <point x="1090" y="-184"/>
      <point x="1194" y="-114" type="curve"/>
    </contour>
    <contour>
      <point x="517" y="0" type="line"/>
      <point x="526" y="83" type="line"/>
      <point x="443" y="101"/>
      <point x="402" y="128"/>
      <point x="404" y="144" type="curve" smooth="yes"/>
      <point x="536" y="1115" type="line" smooth="yes"/>
      <point x="539" y="1134"/>
      <point x="592" y="1158"/>
      <point x="676" y="1177" type="curve"/>
      <point x="688" y="1260" type="line"/>
      <point x="161" y="1260" type="line"/>
      <point x="149" y="1177" type="line"/>
      <point x="232" y="1158"/>
      <point x="272" y="1131"/>
      <point x="270" y="1115" type="curve" smooth="yes"/>
      <point x="138" y="144" type="line" smooth="yes"/>
      <point x="135" y="126"/>
      <point x="83" y="101"/>
      <point x="-1" y="83" type="curve"/>
      <point x="-10" y="0" type="line"/>
    </contour>
  </outline>
</glyph>
<glyph name="LtnSmTPalHook" format="2">
  <advance width="714"/>
  <unicode hex="01AB"/>
  <anchor x="171" y="-600" name="L"/>
  <anchor x="434" y="1230" name="U"/>
  <outline>
    <contour>
      <point x="90" y="-279" type="curve"/>
      <point x="64" y="-390"/>
      <point x="187" y="-500"/>
      <point x="299" y="-500" type="curve" smooth="yes"/>
      <point x="415" y="-500"/>
      <point x="589" y="-441"/>
      <point x="627" y="-151" type="curve" smooth="yes"/>
      <point x="647" y="0" type="line" smooth="yes"/>
      <point x="657" y="75"/>
      <point x="668" y="140"/>
      <point x="690" y="167" type="curve"/>
      <point x="672" y="182"/>
      <point x="611" y="139"/>
      <point x="578" y="127" type="curve"/>
      <point x="538" y="74"/>
      <point x="533" y="18"/>
      <point x="527" y="-27" type="curve" smooth="yes"/>
      <point x="507" y="-180" type="line" smooth="yes"/>
      <point x="488" y="-320"/>
      <point x="430" y="-367"/>
      <point x="375" y="-367" type="curve" smooth="yes"/>
      <point x="338" y="-367"/>
      <point x="277" y="-310"/>
      <point x="330" y="-198" type="curve"/>
      <point x="324" y="-184"/>
      <point x="308" y="-165"/>
      <point x="301" y="-155" type="curve"/>
      <point x="243" y="-166"/>
      <point x="128" y="-239"/>
    </contour>
    <contour>
      <point x="750" y="867" type="curve"/>
      <point x="720" y="905" type="line"/>
      <point x="165" y="905" type="line"/>
      <point x="39" y="816" type="line"/>
      <point x="64" y="775" type="line"/>
      <point x="465" y="775" type="line" smooth="yes"/>
      <point x="545" y="775"/>
      <point x="592" y="767"/>
      <point x="608" y="730" type="curve"/>
      <point x="633" y="744"/>
      <point x="723" y="830"/>
    </contour>
    <contour>
      <point x="690" y="167" type="curve"/>
      <point x="660" y="254" type="line"/>
      <point x="560" y="209"/>
      <point x="505" y="190"/>
      <point x="458" y="190" type="curve" smooth="yes"/>
      <point x="421" y="190"/>
      <point x="396" y="219"/>
      <point x="396" y="301" type="curve" smooth="yes"/>
      <point x="396" y="328"/>
      <point x="400" y="395"/>
      <point x="408" y="446" type="curve" smooth="yes"/>
      <point x="490" y="963" type="line" smooth="yes"/>
      <point x="516" y="1128"/>
      <point x="541" y="1151"/>
      <point x="541" y="1151" type="curve"/>
      <point x="513" y="1176" type="line"/>
      <point x="292" y="1074" type="line"/>
      <point x="257" y="1047"/>
      <point x="239" y="1049"/>
      <point x="223" y="940" type="curve"/>
      <point x="126" y="332" type="line" smooth="yes"/>
      <point x="114" y="258"/>
      <point x="112" y="211"/>
      <point x="112" y="160" type="curve" smooth="yes"/>
      <point x="112" y="43"/>
      <point x="211" y="-41"/>
      <point x="297" y="-41" type="curve" smooth="yes"/>
      <point x="376" y="-41"/>
      <point x="539" y="46"/>
    </contour>
  </outline>
</glyph>
<glyph name="LtnCapTHook" format="2">
  <advance width="1270"/>
  <unicode hex="01AC"/>
  <anchor x="629" y="-100" name="L"/>
  <anchor x="810" y="1320" name="U"/>
  <outline>
    <contour>
      <point x="103" y="963" type="curve"/>
      <point x="93" y="890"/>
      <point x="118" y="777"/>
      <point x="159" y="756" type="curve"/>
      <point x="210" y="767"/>
      <point x="424" y="854"/>
      <point x="433" y="870" type="curve"/>
      <point x="379" y="897"/>
      <point x="359" y="938"/>
      <point x="365" y="986" type="curve" smooth="yes"/>
      <point x="380" y="1095"/>
      <point x="450" y="1130"/>
      <point x="548" y="1130" type="curve" smooth="yes"/>
      <point x="681" y="1130" type="line"/>
      <point x="547" y="155" type="line" smooth="yes"/>
      <point x="545" y="136"/>
      <point x="509" y="106"/>
      <point x="394" y="83" type="curve"/>
      <point x="383" y="0" type="line"/>
      <point x="930" y="0" type="line"/>
      <point x="941" y="83" type="line"/>
      <point x="835" y="108"/>
      <point x="805" y="135"/>
      <point x="808" y="155" type="curve" smooth="yes"/>
      <point x="941" y="1130" type="line"/>
      <point x="1158" y="1130" type="line" smooth="yes"/>
      <point x="1212" y="1130"/>
      <point x="1202" y="1033"/>
      <point x="1208" y="920" type="curve"/>
      <point x="1287" y="920" type="line"/>
      <point x="1313" y="1004"/>
      <point x="1354" y="1157"/>
      <point x="1365" y="1225" type="curve"/>
      <point x="1333" y="1260" type="line"/>
      <point x="553" y="1260" type="line" smooth="yes"/>
      <point x="393" y="1260"/>
      <point x="126" y="1167"/>
    </contour>
  </outline>
</glyph>
<glyph name="LtnCapTRetrHook" format="2">
  <advance width="1123"/>
  <unicode hex="01AE"/>
  <anchor x="434" y="-600" name="L"/>
  <anchor x="698" y="1320" name="U"/>
  <outline>
    <contour>
      <point x="551" y="-380" type="curve" smooth="yes"/>
      <point x="743" y="-380"/>
      <point x="1047" y="-214"/>
      <point x="1063" y="-23" type="curve"/>
      <point x="1035" y="42" type="line"/>
      <point x="958" y="26"/>
      <point x="839" y="-17"/>
      <point x="781" y="-58" type="curve"/>
      <point x="824" y="-135"/>
      <point x="797" y="-217"/>
      <point x="731" y="-217" type="curve" smooth="yes"/>
      <point x="675" y="-217"/>
      <point x="624" y="-157"/>
      <point x="641" y="-29" type="curve" smooth="yes"/>
      <point x="794" y="1130" type="line"/>
      <point x="1011" y="1130" type="line" smooth="yes"/>
      <point x="1064" y="1130"/>
      <point x="1053" y="1044"/>
      <point x="1061" y="920" type="curve"/>
      <point x="1140" y="920" type="line"/>
      <point x="1166" y="1004"/>
      <point x="1207" y="1157"/>
      <point x="1218" y="1225" type="curve"/>
      <point x="1186" y="1260" type="line"/>
      <point x="172" y="1260" type="line"/>
      <point x="150" y="1190"/>
      <point x="105" y="1017"/>
      <point x="88" y="939" type="curve"/>
      <point x="161" y="910" type="line"/>
      <point x="239" y="1066"/>
      <point x="273" y="1130"/>
      <point x="311" y="1130" type="curve" smooth="yes"/>
      <point x="533" y="1130" type="line"/>
      <point x="374" y="-45" type="line" smooth="yes"/>
      <point x="342" y="-285"/>
      <point x="450" y="-380"/>
    </contour>
  </outline>
</glyph>
<glyph name="LtnCapUpsilon" format="2">
  <advance width="1367"/>
  <unicode hex="01B1"/>
  <anchor x="488" y="-100" name="L"/>
  <anchor x="682" y="1320" name="U"/>
  <outline>
    <contour>
      <point x="1344" y="1177" type="curve"/>
      <point x="1356" y="1260" type="line"/>
      <point x="924" y="1260" type="line"/>
      <point x="860" y="1141" type="line"/>
      <point x="995" y="1045"/>
      <point x="1045" y="805"/>
      <point x="1014" y="585" type="curve" smooth="yes"/>
      <point x="970" y="273"/>
      <point x="833" y="110"/>
      <point x="643" y="110" type="curve" smooth="yes"/>
      <point x="466" y="110"/>
      <point x="316" y="326"/>
      <point x="358" y="625" type="curve" smooth="yes"/>
      <point x="389" y="843"/>
      <point x="490" y="1015"/>
      <point x="677" y="1141" type="curve"/>
      <point x="650" y="1260" type="line"/>
      <point x="214" y="1260" type="line"/>
      <point x="202" y="1177" type="line"/>
      <point x="202" y="1177"/>
      <point x="442" y="1125"/>
      <point x="370" y="1071" type="curve" smooth="yes"/>
      <point x="197" y="941"/>
      <point x="103" y="768"/>
      <point x="77" y="586" type="curve" smooth="yes"/>
      <point x="32" y="264"/>
      <point x="218" y="-30"/>
      <point x="597" y="-30" type="curve" smooth="yes"/>
      <point x="996" y="-30"/>
      <point x="1275" y="341"/>
      <point x="1293" y="613" type="curve" smooth="yes"/>
      <point x="1306" y="807"/>
      <point x="1255" y="952"/>
      <point x="1144" y="1071" type="curve" smooth="yes"/>
      <point x="1092" y="1127"/>
      <point x="1344" y="1177"/>
    </contour>
  </outline>
</glyph>
<glyph name="LtnSmYHook.RtHook" format="2">
  <advance width="1156"/>
  <unicode hex="01B4"/>
  <anchor x="680" y="-100" name="L"/>
  <anchor x="614" y="1000" name="U"/>
  <outline>
    <contour>
      <point x="1531" y="1043" type="curve"/>
      <point x="1500" y="1053"/>
      <point x="1383" y="1152"/>
      <point x="1238" y="1152" type="curve" smooth="yes"/>
      <point x="684" y="1152"/>
      <point x="508" y="-294"/>
      <point x="138" y="-294" type="curve" smooth="yes"/>
      <point x="92" y="-294"/>
      <point x="-8" y="-238"/>
      <point x="-47" y="-191" type="curve"/>
      <point x="-84" y="-206"/>
      <point x="-201" y="-368"/>
      <point x="-201" y="-399" type="curve" smooth="yes"/>
      <point x="-201" y="-434"/>
      <point x="-80" y="-499"/>
      <point x="38" y="-500" type="curve" smooth="yes"/>
      <point x="646" y="-504"/>
      <point x="817" y="969"/>
      <point x="1176" y="969" type="curve" smooth="yes"/>
      <point x="1242" y="969"/>
      <point x="1296" y="861"/>
      <point x="1327" y="861" type="curve" smooth="yes"/>
      <point x="1357" y="861"/>
      <point x="1504" y="1012"/>
    </contour>
    <contour>
      <point x="584" y="87" type="line"/>
      <point x="537" y="355"/>
      <point x="462" y="641"/>
      <point x="402" y="809" type="curve" smooth="yes"/>
      <point x="370" y="901"/>
      <point x="343" y="936"/>
      <point x="306" y="936" type="curve" smooth="yes"/>
      <point x="264" y="936"/>
      <point x="81" y="861"/>
      <point x="-31" y="800" type="curve"/>
      <point x="-9" y="723" type="line"/>
      <point x="-9" y="723"/>
      <point x="65" y="747"/>
      <point x="89" y="747" type="curve" smooth="yes"/>
      <point x="112" y="747"/>
      <point x="130" y="733"/>
      <point x="161" y="665" type="curve" smooth="yes"/>
      <point x="220" y="538"/>
      <point x="335" y="94"/>
      <point x="374" y="-137" type="curve"/>
      <point x="407" y="-166" type="line"/>
    </contour>
  </outline>
</glyph>
<glyph name="LtnCapEzhRev" format="2">
  <advance width="1078"/>
  <unicode hex="01B8"/>
  <anchor x="471" y="-100" name="L"/>
  <anchor x="674" y="1320" name="U"/>
  <outline>
    <contour>
      <point x="496" y="775" type="line"/>
      <point x="689" y="605" type="line"/>
      <point x="808" y="704" type="line"/>
      <point x="537" y="1120" type="line"/>
      <point x="846" y="1120" type="line" smooth="yes"/>
      <point x="894" y="1120"/>
      <point x="941" y="996"/>
      <point x="951" y="873" type="curve"/>
      <point x="1051" y="895" type="line"/>
      <point x="1065" y="1276" type="line"/>
      <point x="1006" y="1260"/>
      <point x="943" y="1260"/>
      <point x="857" y="1260" type="curve" smooth="yes"/>
      <point x="258" y="1260" type="line"/>
      <point x="215" y="1207" type="line"/>
    </contour>
    <contour>
      <point x="11" y="377" type="curve" smooth="yes"/>
      <point x="-17" y="185"/>
      <point x="91" y="-27"/>
      <point x="455" y="-27" type="curve" smooth="yes"/>
      <point x="775" y="-27"/>
      <point x="1024" y="166"/>
      <point x="1047" y="339" type="curve" smooth="yes"/>
      <point x="1048" y="346"/>
      <point x="1029" y="387"/>
      <point x="1021" y="410" type="curve"/>
      <point x="954" y="402"/>
      <point x="819" y="366"/>
      <point x="761" y="331" type="curve"/>
      <point x="766" y="206"/>
      <point x="684" y="133"/>
      <point x="538" y="133" type="curve" smooth="yes"/>
      <point x="362" y="133"/>
      <point x="261" y="246"/>
      <point x="288" y="426" type="curve" smooth="yes"/>
      <point x="306" y="546"/>
      <point x="411" y="642"/>
      <point x="534" y="642" type="curve" smooth="yes"/>
      <point x="597" y="642"/>
      <point x="635" y="637"/>
      <point x="689" y="606" type="curve"/>
      <point x="699" y="613"/>
      <point x="801" y="694"/>
      <point x="809" y="705" type="curve"/>
      <point x="719" y="764"/>
      <point x="678" y="776"/>
      <point x="630" y="796" type="curve"/>
      <point x="316" y="796"/>
      <point x="49" y="641"/>
    </contour>
  </outline>
</glyph>
<glyph name="LtnLateralClick" format="2">
  <advance width="827"/>
  <unicode hex="01C1"/>
  <anchor x="261" y="-600" name="L"/>
  <anchor x="568" y="1640" name="U"/>
  <outline>
    <contour>
      <point x="242" y="-439" type="curve"/>
      <point x="242" y="-203"/>
      <point x="453" y="1229"/>
      <point x="502" y="1498" type="curve"/>
      <point x="454" y="1520" type="line"/>
      <point x="418" y="1511"/>
      <point x="305" y="1481"/>
      <point x="269" y="1459" type="curve"/>
      <point x="270" y="1446"/>
      <point x="271" y="1430"/>
      <point x="271" y="1410" type="curve" smooth="yes"/>
      <point x="271" y="1067"/>
      <point x="67" y="-231"/>
      <point x="20" y="-478" type="curve"/>
      <point x="68" y="-500" type="line"/>
      <point x="99" y="-492"/>
      <point x="217" y="-460"/>
    </contour>
    <contour>
      <point x="572" y="-439" type="curve"/>
      <point x="572" y="-203"/>
      <point x="783" y="1229"/>
      <point x="832" y="1498" type="curve"/>
      <point x="784" y="1520" type="line"/>
      <point x="748" y="1511"/>
      <point x="635" y="1481"/>
      <point x="599" y="1459" type="curve"/>
      <point x="600" y="1446"/>
      <point x="601" y="1430"/>
      <point x="601" y="1410" type="curve" smooth="yes"/>
      <point x="601" y="1067"/>
      <point x="397" y="-231"/>
      <point x="350" y="-478" type="curve"/>
      <point x="398" y="-500" type="line"/>
      <point x="429" y="-492"/>
      <point x="547" y="-460"/>
    </contour>
  </outline>
</glyph>
<glyph name="LtnCapGStrk" format="2">
  <advance width="1157"/>
  <unicode hex="01E4"/>
  <anchor x="455" y="-100" name="L"/>
  <anchor x="650" y="1320" name="U"/>
  <outline>
    <contour>
      <point x="1167" y="381" type="line"/>
      <point x="1149" y="406" type="line"/>
      <point x="511" y="406" type="line"/>
      <point x="497" y="385"/>
      <point x="464" y="319"/>
      <point x="455" y="298" type="curve"/>
      <point x="475" y="276" type="line"/>
      <point x="1113" y="276" type="line"/>
    </contour>
    <contour>
      <point x="1146" y="632" type="line"/>
      <point x="585" y="632" type="line"/>
      <point x="579" y="549" type="line"/>
      <point x="780" y="518"/>
      <point x="790" y="495"/>
      <point x="786" y="467" type="curve" smooth="yes"/>
      <point x="743" y="176" type="line"/>
      <point x="696" y="142"/>
      <point x="646" y="138"/>
      <point x="610" y="138" type="curve" smooth="yes"/>
      <point x="478" y="138"/>
      <point x="325" y="251"/>
      <point x="325" y="536" type="curve" smooth="yes"/>
      <point x="325" y="722"/>
      <point x="402" y="970"/>
      <point x="496" y="1065" type="curve" smooth="yes"/>
      <point x="561" y="1131"/>
      <point x="626" y="1161"/>
      <point x="687" y="1161" type="curve" smooth="yes"/>
      <point x="824" y="1161"/>
      <point x="891" y="1066"/>
      <point x="930" y="963" type="curve"/>
      <point x="998" y="947" type="line"/>
      <point x="1035" y="977"/>
      <point x="1151" y="1174"/>
      <point x="1135" y="1188" type="curve"/>
      <point x="1067" y="1253"/>
      <point x="903" y="1290"/>
      <point x="803" y="1290" type="curve" smooth="yes"/>
      <point x="599" y="1290"/>
      <point x="465" y="1231"/>
      <point x="351" y="1133" type="curve" smooth="yes"/>
      <point x="176" y="983"/>
      <point x="56" y="747"/>
      <point x="56" y="493" type="curve" smooth="yes"/>
      <point x="56" y="172"/>
      <point x="281" y="-31"/>
      <point x="532" y="-31" type="curve" smooth="yes"/>
      <point x="640" y="-31"/>
      <point x="797" y="12"/>
      <point x="999" y="174" type="curve"/>
      <point x="1005" y="225"/>
      <point x="1025" y="396"/>
      <point x="1035" y="467" type="curve" smooth="yes"/>
      <point x="1039" y="497"/>
      <point x="1068" y="528"/>
      <point x="1140" y="549" type="curve"/>
    </contour>
  </outline>
</glyph>
<glyph name="LtnCapHwair" format="2">
  <advance width="1828"/>
  <unicode hex="01F6"/>
  <anchor x="775" y="-100" name="L"/>
  <anchor x="970" y="1320" name="U"/>
  <outline>
    <contour>
      <point x="1792" y="599" type="curve" smooth="yes"/>
      <point x="1813" y="795"/>
      <point x="1707" y="932"/>
      <point x="1608" y="960" type="curve"/>
      <point x="1566" y="946"/>
      <point x="1397" y="887"/>
      <point x="1356" y="867" type="curve"/>
      <point x="1366" y="796" type="line"/>
      <point x="1532" y="796"/>
      <point x="1542" y="594"/>
      <point x="1523" y="456" type="curve" smooth="yes"/>
      <point x="1500" y="288"/>
      <point x="1395" y="112"/>
      <point x="1242" y="112" type="curve" smooth="yes"/>
      <point x="1166" y="112"/>
      <point x="1114" y="178"/>
      <point x="1148" y="422" type="curve" smooth="yes"/>
      <point x="1185" y="691" type="line"/>
      <point x="1131" y="694"/>
      <point x="920" y="655"/>
      <point x="902" y="528" type="curve" smooth="yes"/>
      <point x="881" y="379" type="line" smooth="yes"/>
      <point x="839" y="79"/>
      <point x="989" y="-30"/>
      <point x="1176" y="-30" type="curve" smooth="yes"/>
      <point x="1532" y="-30"/>
      <point x="1762" y="319"/>
    </contour>
    <contour>
      <point x="1389" y="1260" type="line"/>
      <point x="877" y="1260" type="line"/>
      <point x="866" y="1177" type="line"/>
      <point x="950" y="1158"/>
      <point x="985" y="1131"/>
      <point x="983" y="1115" type="curve" smooth="yes"/>
      <point x="900" y="514" type="line" smooth="yes"/>
      <point x="896" y="482"/>
      <point x="1159" y="502"/>
      <point x="1161" y="518" type="curve" smooth="yes"/>
      <point x="1243" y="1115" type="line" smooth="yes"/>
      <point x="1246" y="1134"/>
      <point x="1294" y="1158"/>
      <point x="1378" y="1177" type="curve"/>
    </contour>
    <contour>
      <point x="948" y="725" type="line"/>
      <point x="448" y="725" type="line"/>
      <point x="434" y="595" type="line"/>
      <point x="936" y="595" type="line"/>
    </contour>
    <contour>
      <point x="673" y="1260" type="line"/>
      <point x="161" y="1260" type="line"/>
      <point x="150" y="1177" type="line"/>
      <point x="236" y="1158"/>
      <point x="269" y="1131"/>
      <point x="267" y="1115" type="curve" smooth="yes"/>
      <point x="134" y="144" type="line" smooth="yes"/>
      <point x="132" y="126"/>
      <point x="84" y="101"/>
      <point x="0" y="83" type="curve"/>
      <point x="-11" y="0" type="line"/>
      <point x="501" y="0" type="line"/>
      <point x="512" y="83" type="line"/>
      <point x="428" y="100"/>
      <point x="390" y="128"/>
      <point x="394" y="144" type="curve"/>
      <point x="527" y="1115" type="line"/>
      <point x="531" y="1136"/>
      <point x="578" y="1158"/>
      <point x="662" y="1177" type="curve"/>
    </contour>
  </outline>
</glyph>
<glyph name="LtnSmYogh" format="2">
  <advance width="881"/>
  <unicode hex="021D"/>
  <anchor x="270" y="-600" name="L"/>
  <anchor x="490" y="1000" name="U"/>
  <outline>
    <contour>
      <point x="821" y="685" type="curve"/>
      <point x="847" y="875"/>
      <point x="713" y="936"/>
      <point x="534" y="936" type="curve" smooth="yes"/>
      <point x="351" y="936"/>
      <point x="229" y="893"/>
      <point x="94" y="814" type="curve" smooth="yes"/>
      <point x="71" y="801"/>
      <point x="88" y="620"/>
      <point x="115" y="536" type="curve"/>
      <point x="195" y="544" type="line"/>
      <point x="227" y="693"/>
      <point x="309" y="806"/>
      <point x="436" y="808" type="curve" smooth="yes"/>
      <point x="534" y="810"/>
      <point x="558" y="711"/>
      <point x="546" y="645" type="curve" smooth="yes"/>
      <point x="519" y="496"/>
      <point x="396" y="378"/>
      <point x="155" y="224" type="curve"/>
      <point x="156" y="199"/>
      <point x="162" y="140"/>
      <point x="164" y="126" type="curve"/>
      <point x="618" y="327"/>
      <point x="798" y="506"/>
    </contour>
    <contour>
      <point x="765" y="108" type="curve"/>
      <point x="788" y="278"/>
      <point x="666" y="384"/>
      <point x="421" y="374" type="curve"/>
      <point x="401" y="347"/>
      <point x="347" y="246"/>
      <point x="319" y="201" type="curve"/>
      <point x="344" y="209"/>
      <point x="372" y="217"/>
      <point x="399" y="217" type="curve" smooth="yes"/>
      <point x="448" y="217"/>
      <point x="508" y="177"/>
      <point x="491" y="46" type="curve"/>
      <point x="472" y="-94"/>
      <point x="258" y="-270"/>
      <point x="-40" y="-411" type="curve"/>
      <point x="-34" y="-431"/>
      <point x="-8" y="-484"/>
      <point x="8" y="-500" type="curve"/>
      <point x="597" y="-280"/>
      <point x="740" y="-77"/>
    </contour>
  </outline>
</glyph>
<glyph name="LtnSmOu" format="2">
  <advance width="1022"/>
  <unicode hex="0223"/>
  <anchor x="435" y="-100" name="L"/>
  <anchor x="672" y="1640" name="U"/>
  <outline>
    <contour>
      <point x="626" y="1358" type="curve" smooth="yes"/>
      <point x="691" y="1358"/>
      <point x="772" y="1314"/>
      <point x="756" y="1190" type="curve"/>
      <point x="752" y="1135"/>
      <point x="734" y="1023"/>
      <point x="584" y="936" type="curve"/>
      <point x="712" y="897" type="line"/>
      <point x="900" y="981"/>
      <point x="990" y="1116"/>
      <point x="1005" y="1223" type="curve"/>
      <point x="1031" y="1393"/>
      <point x="896" y="1482"/>
      <point x="681" y="1482" type="curve" smooth="yes"/>
      <point x="445" y="1482"/>
      <point x="246" y="1336"/>
      <point x="220" y="1156" type="curve" smooth="yes"/>
      <point x="168" y="786"/>
      <point x="780" y="870"/>
      <point x="711" y="415" type="curve"/>
      <point x="686" y="244"/>
      <point x="579" y="98"/>
      <point x="479" y="98" type="curve" smooth="yes"/>
      <point x="371" y="98"/>
      <point x="275" y="223"/>
      <point x="305" y="422" type="curve" smooth="yes"/>
      <point x="331" y="599"/>
      <point x="450" y="752"/>
      <point x="591" y="829" type="curve"/>
      <point x="483" y="879" type="line"/>
      <point x="234" y="781"/>
      <point x="69" y="578"/>
      <point x="39" y="386" type="curve"/>
      <point x="7" y="155"/>
      <point x="109" y="-40"/>
      <point x="412" y="-40" type="curve" smooth="yes"/>
      <point x="716" y="-40"/>
      <point x="939" y="185"/>
      <point x="979" y="467" type="curve" smooth="yes"/>
      <point x="1054" y="987"/>
      <point x="435" y="973"/>
      <point x="463" y="1193" type="curve" smooth="yes"/>
      <point x="477" y="1299"/>
      <point x="569" y="1358"/>
    </contour>
  </outline>
</glyph>
<glyph name="LtnSmNCurl" format="2">
  <advance width="1362"/>
  <unicode hex="0235"/>
  <anchor x="490" y="-100" name="L"/>
  <anchor x="605" y="1000" name="U"/>
  <outline>
    <contour>
      <point x="946" y="310" type="curve" smooth="yes"/>
      <point x="973" y="465"/>
      <point x="998" y="669"/>
      <point x="998" y="762" type="curve" smooth="yes"/>
      <point x="998" y="891"/>
      <point x="968" y="936"/>
      <point x="864" y="936" type="curve" smooth="yes"/>
      <point x="745" y="936"/>
      <point x="600" y="870"/>
      <point x="455" y="738" type="curve"/>
      <point x="459" y="771"/>
      <point x="460" y="795"/>
      <point x="460" y="823" type="curve" smooth="yes"/>
      <point x="460" y="918"/>
      <point x="448" y="936"/>
      <point x="411" y="936" type="curve" smooth="yes"/>
      <point x="378" y="936"/>
      <point x="140" y="851"/>
      <point x="27" y="802" type="curve"/>
      <point x="47" y="723" type="line"/>
      <point x="47" y="723"/>
      <point x="121" y="749"/>
      <point x="144" y="749" type="curve" smooth="yes"/>
      <point x="168" y="749"/>
      <point x="182" y="743"/>
      <point x="182" y="682" type="curve" smooth="yes"/>
      <point x="182" y="588"/>
      <point x="133" y="266"/>
      <point x="78" y="0" type="curve"/>
      <point x="123" y="-41" type="line"/>
      <point x="156" y="-24"/>
      <point x="339" y="56"/>
      <point x="374" y="75" type="curve"/>
      <point x="372" y="154"/>
      <point x="376" y="182"/>
      <point x="397" y="301" type="curve" smooth="yes"/>
      <point x="419" y="430"/>
      <point x="443" y="529"/>
      <point x="477" y="580" type="curve" smooth="yes"/>
      <point x="559" y="703"/>
      <point x="635" y="716"/>
      <point x="663" y="716" type="curve" smooth="yes"/>
      <point x="711" y="716"/>
      <point x="709" y="671"/>
      <point x="709" y="580" type="curve" smooth="yes"/>
      <point x="709" y="527"/>
      <point x="695" y="451"/>
      <point x="671" y="296" type="curve" smooth="yes"/>
      <point x="667" y="272"/>
      <point x="665" y="247"/>
      <point x="665" y="224" type="curve" smooth="yes"/>
      <point x="665" y="118"/>
      <point x="729" y="-41"/>
      <point x="945" y="-41" type="curve" smooth="yes"/>
      <point x="1131" y="-41"/>
      <point x="1310" y="106"/>
      <point x="1314" y="281" type="curve" smooth="yes"/>
      <point x="1316" y="381"/>
      <point x="1263" y="464"/>
      <point x="1122" y="464" type="curve" smooth="yes"/>
      <point x="921" y="464"/>
      <point x="676" y="166"/>
      <point x="486" y="-148" type="curve"/>
      <point x="562" y="-216" type="line"/>
      <point x="727" y="57"/>
      <point x="906" y="289"/>
      <point x="1058" y="289" type="curve" smooth="yes"/>
      <point x="1116" y="289"/>
      <point x="1145" y="250"/>
      <point x="1145" y="214" type="curve" smooth="yes"/>
      <point x="1145" y="162"/>
      <point x="1108" y="91"/>
      <point x="1019" y="91" type="curve" smooth="yes"/>
      <point x="955" y="91"/>
      <point x="926" y="178"/>
      <point x="935" y="243" type="curve" smooth="yes"/>
      <point x="938" y="265"/>
      <point x="942" y="286"/>
    </contour>
  </outline>
</glyph>
<glyph name="LtnSmTCurl" format="2">
  <advance width="793"/>
  <unicode hex="0236"/>
  <anchor x="354" y="-100" name="L"/>
  <anchor x="490" y="1230" name="U"/>
  <outline>
    <contour>
      <point x="751" y="867" type="curve"/>
      <point x="720" y="905" type="line"/>
      <point x="482" y="905" type="line"/>
      <point x="491" y="963" type="line" smooth="yes"/>
      <point x="518" y="1128"/>
      <point x="544" y="1152"/>
      <point x="544" y="1152" type="curve"/>
      <point x="514" y="1176" type="line"/>
      <point x="290" y="1071" type="line" smooth="yes"/>
      <point x="254" y="1045"/>
      <point x="243" y="1049"/>
      <point x="224" y="940" type="curve" smooth="yes"/>
      <point x="218" y="905" type="line"/>
      <point x="167" y="905" type="line"/>
      <point x="39" y="816" type="line"/>
      <point x="65" y="775" type="line"/>
      <point x="198" y="775" type="line"/>
      <point x="127" y="352" type="line" smooth="yes"/>
      <point x="122" y="319"/>
      <point x="115" y="254"/>
      <point x="115" y="219" type="curve" smooth="yes"/>
      <point x="115" y="84"/>
      <point x="211" y="-41"/>
      <point x="394" y="-41" type="curve" smooth="yes"/>
      <point x="611" y="-41"/>
      <point x="763" y="138"/>
      <point x="763" y="281" type="curve" smooth="yes"/>
      <point x="763" y="383"/>
      <point x="714" y="464"/>
      <point x="576" y="464" type="curve" smooth="yes"/>
      <point x="362" y="464"/>
      <point x="185" y="163"/>
      <point x="-6" y="-148" type="curve"/>
      <point x="75" y="-216" type="line"/>
      <point x="265" y="98"/>
      <point x="368" y="289"/>
      <point x="510" y="289" type="curve" smooth="yes"/>
      <point x="563" y="289"/>
      <point x="594" y="249"/>
      <point x="594" y="214" type="curve" smooth="yes"/>
      <point x="594" y="160"/>
      <point x="565" y="91"/>
      <point x="478" y="91" type="curve" smooth="yes"/>
      <point x="381" y="91"/>
      <point x="378" y="228"/>
      <point x="378" y="260" type="curve" smooth="yes"/>
      <point x="378" y="292"/>
      <point x="388" y="341"/>
      <point x="394" y="376" type="curve" smooth="yes"/>
      <point x="461" y="775" type="line"/>
      <point x="464" y="775" type="line" smooth="yes"/>
      <point x="544" y="775"/>
      <point x="593" y="767"/>
      <point x="609" y="730" type="curve"/>
      <point x="634" y="744"/>
      <point x="724" y="830"/>
    </contour>
  </outline>
</glyph>
<glyph name="LtnCapTDiagStrk" format="2">
  <advance width="1123"/>
  <unicode hex="023E"/>
  <anchor x="515" y="0" name="H"/>
  <anchor x="503" y="-100" name="L"/>
  <anchor x="680" y="1320" name="U"/>
  <outline>
    <contour>
      <point x="1218" y="1225" type="curve"/>
      <point x="1186" y="1260" type="line"/>
      <point x="799" y="1260" type="line"/>
      <point x="754" y="1130" type="line"/>
      <point x="1011" y="1130" type="line" smooth="yes"/>
      <point x="1064" y="1130"/>
      <point x="1053" y="1044"/>
      <point x="1061" y="920" type="curve"/>
      <point x="1140" y="920" type="line"/>
      <point x="1166" y="1004"/>
      <point x="1207" y="1157"/>
    </contour>
    <contour>
      <point x="559" y="1130" type="line"/>
      <point x="569" y="1260" type="line"/>
      <point x="172" y="1260" type="line"/>
      <point x="150" y="1190"/>
      <point x="105" y="1017"/>
      <point x="88" y="939" type="curve"/>
      <point x="161" y="910" type="line"/>
      <point x="239" y="1066"/>
      <point x="273" y="1130"/>
      <point x="311" y="1130" type="curve" smooth="yes"/>
    </contour>
    <contour>
      <point x="794" y="83" type="line"/>
      <point x="683" y="108"/>
      <point x="659" y="138"/>
      <point x="661" y="155" type="curve" smooth="yes"/>
      <point x="795" y="1137" type="line" smooth="yes"/>
      <point x="798" y="1155"/>
      <point x="847" y="1158"/>
      <point x="934" y="1177" type="curve"/>
      <point x="945" y="1260" type="line"/>
      <point x="435" y="1260" type="line"/>
      <point x="424" y="1177" type="line"/>
      <point x="510" y="1158"/>
      <point x="536" y="1153"/>
      <point x="534" y="1137" type="curve" smooth="yes"/>
      <point x="400" y="155" type="line" smooth="yes"/>
      <point x="397" y="136"/>
      <point x="365" y="108"/>
      <point x="247" y="83" type="curve"/>
      <point x="236" y="0" type="line"/>
      <point x="785" y="0" type="line"/>
    </contour>
    <contour>
      <point x="1306" y="1404" type="line"/>
      <point x="1277" y="1440" type="line"/>
      <point x="1238" y="1429"/>
      <point x="1179" y="1400"/>
      <point x="1143" y="1385" type="curve"/>
      <point x="-20" y="-143" type="line"/>
      <point x="6" y="-177" type="line"/>
      <point x="33" y="-169"/>
      <point x="120" y="-133"/>
      <point x="142" y="-122" type="curve"/>
    </contour>
  </outline>
</glyph>
<glyph name="LtnCapBBarredLowStem" format="2">
  <advance width="1114"/>
  <unicode hex="0243"/>
  <anchor x="468" y="-100" name="L"/>
  <anchor x="653" y="1320" name="U"/>
  <outline>
    <contour>
      <point x="1054" y="410" type="curve" smooth="yes"/>
      <point x="1054" y="569"/>
      <point x="943" y="705"/>
      <point x="787" y="723" type="curve"/>
      <point x="960" y="784"/>
      <point x="1048" y="901"/>
      <point x="1048" y="1040" type="curve" smooth="yes"/>
      <point x="1048" y="1196"/>
      <point x="911" y="1290"/>
      <point x="618" y="1290" type="curve" smooth="yes"/>
      <point x="433" y="1290"/>
      <point x="254" y="1262"/>
      <point x="131" y="1227" type="curve"/>
      <point x="131" y="1135" type="line"/>
      <point x="232" y="1158"/>
      <point x="356" y="1176"/>
      <point x="571" y="1176" type="curve" smooth="yes"/>
      <point x="663" y="1176"/>
      <point x="772" y="1130"/>
      <point x="772" y="987" type="curve" smooth="yes"/>
      <point x="772" y="818"/>
      <point x="630" y="745"/>
      <point x="505" y="745" type="curve" smooth="yes"/>
      <point x="414" y="745" type="line"/>
      <point x="410" y="607" type="line"/>
      <point x="470" y="617"/>
      <point x="478" y="629"/>
      <point x="558" y="629" type="curve" smooth="yes"/>
      <point x="727" y="629"/>
      <point x="778" y="508"/>
      <point x="778" y="375" type="curve" smooth="yes"/>
      <point x="778" y="213"/>
      <point x="700" y="93"/>
      <point x="547" y="93" type="curve" smooth="yes"/>
      <point x="482" y="93"/>
      <point x="425" y="103"/>
      <point x="378" y="138" type="curve"/>
      <point x="46" y="0" type="line"/>
      <point x="46" y="0"/>
      <point x="394" y="-31"/>
      <point x="501" y="-31" type="curve" smooth="yes"/>
      <point x="811" y="-31"/>
      <point x="1054" y="150"/>
    </contour>
    <contour>
      <point x="542" y="1240" type="line"/>
      <point x="281" y="1240" type="line"/>
      <point x="127" y="144" type="line" smooth="yes"/>
      <point x="125" y="126"/>
      <point x="80" y="101"/>
      <point x="-4" y="83" type="curve"/>
      <point x="-10" y="0" type="line"/>
      <point x="505" y="0" type="line"/>
      <point x="511" y="83" type="line"/>
      <point x="427" y="101"/>
      <point x="384" y="128"/>
      <point x="388" y="144" type="curve"/>
    </contour>
    <contour>
      <point x="658" y="417" type="line"/>
      <point x="629" y="452" type="line"/>
      <point x="55" y="452" type="line"/>
      <point x="43" y="431"/>
      <point x="13" y="375"/>
      <point x="4" y="354" type="curve"/>
      <point x="33" y="322" type="line"/>
      <point x="607" y="322" type="line"/>
    </contour>
  </outline>
</glyph>
<glyph name="LtnCapTurnedV" format="2">
  <advance width="1275"/>
  <unicode hex="0245"/>
  <anchor x="583" y="-100" name="L"/>
  <anchor x="768" y="1320" name="U"/>
  <outline>
    <contour>
      <point x="838" y="147" type="line"/>
      <point x="846" y="109"/>
      <point x="819" y="91"/>
      <point x="720" y="83" type="curve"/>
      <point x="709" y="0" type="line"/>
      <point x="1206" y="0" type="line"/>
      <point x="1217" y="83" type="line"/>
      <point x="1140" y="94"/>
      <point x="1111" y="114"/>
      <point x="1103" y="149" type="curve" smooth="yes"/>
      <point x="832" y="1290" type="line"/>
      <point x="760" y="1272"/>
      <point x="648" y="1230"/>
      <point x="620" y="1171" type="curve" smooth="yes"/>
      <point x="133" y="149" type="line" smooth="yes"/>
      <point x="116" y="112"/>
      <point x="66" y="100"/>
      <point x="-20" y="83" type="curve"/>
      <point x="-31" y="0" type="line"/>
      <point x="375" y="0" type="line"/>
      <point x="386" y="83" type="line"/>
      <point x="286" y="96"/>
      <point x="263" y="110"/>
      <point x="281" y="149" type="curve" smooth="yes"/>
      <point x="654" y="947" type="line"/>
    </contour>
  </outline>
</glyph>
<glyph name="LtnCapJStrk" format="2">
  <advance width="658"/>
  <unicode hex="0248"/>
  <anchor x="205" y="-600" name="L"/>
  <anchor x="469" y="1320" name="U"/>
  <outline>
    <contour>
      <point x="719" y="1260" type="line"/>
      <point x="158" y="1260" type="line"/>
      <point x="147" y="1177" type="line"/>
      <point x="290" y="1154"/>
      <point x="313" y="1131"/>
      <point x="311" y="1115" type="curve" smooth="yes"/>
      <point x="177" y="133" type="line" smooth="yes"/>
      <point x="134" y="-180"/>
      <point x="63" y="-218"/>
      <point x="0" y="-218" type="curve" smooth="yes"/>
      <point x="-82" y="-218"/>
      <point x="-147" y="-121"/>
      <point x="-173" y="-121" type="curve" smooth="yes"/>
      <point x="-206" y="-121"/>
      <point x="-364" y="-272"/>
      <point x="-364" y="-301" type="curve" smooth="yes"/>
      <point x="-364" y="-334"/>
      <point x="-251" y="-401"/>
      <point x="-145" y="-401" type="curve" smooth="yes"/>
      <point x="-53" y="-401"/>
      <point x="79" y="-346"/>
      <point x="150" y="-289" type="curve" smooth="yes"/>
      <point x="259" y="-203"/>
      <point x="411" y="-87"/>
      <point x="450" y="205" type="curve" smooth="yes"/>
      <point x="571" y="1115" type="line" smooth="yes"/>
      <point x="574" y="1134"/>
      <point x="622" y="1158"/>
      <point x="706" y="1177" type="curve"/>
    </contour>
    <contour>
      <point x="678" y="690" type="line"/>
      <point x="649" y="725" type="line"/>
      <point x="45" y="725" type="line"/>
      <point x="33" y="704"/>
      <point x="3" y="648"/>
      <point x="-6" y="627" type="curve"/>
      <point x="23" y="595" type="line"/>
      <point x="627" y="595" type="line"/>
    </contour>
  </outline>
</glyph>
<glyph name="LtnSmJStrk" format="2">
  <advance width="605"/>
  <unicode hex="0249"/>
  <anchor x="171" y="-600" name="L"/>
  <anchor x="390" y="1000" name="U"/>
  <outline>
    <contour>
      <point x="581" y="1262" type="curve" smooth="yes"/>
      <point x="581" y="1307"/>
      <point x="547" y="1353"/>
      <point x="466" y="1353" type="curve" smooth="yes"/>
      <point x="342" y="1353"/>
      <point x="273" y="1247"/>
      <point x="273" y="1176" type="curve" smooth="yes"/>
      <point x="273" y="1131"/>
      <point x="307" y="1086"/>
      <point x="388" y="1086" type="curve" smooth="yes"/>
      <point x="514" y="1086"/>
      <point x="581" y="1188"/>
    </contour>
    <contour>
      <point x="500" y="870" type="curve" smooth="yes"/>
      <point x="500" y="926"/>
      <point x="471" y="936"/>
      <point x="434" y="936" type="curve" smooth="yes"/>
      <point x="382" y="936"/>
      <point x="168" y="851"/>
      <point x="55" y="800" type="curve"/>
      <point x="75" y="723" type="line"/>
      <point x="75" y="723"/>
      <point x="142" y="747"/>
      <point x="165" y="747" type="curve" smooth="yes"/>
      <point x="188" y="747"/>
      <point x="206" y="741"/>
      <point x="206" y="680" type="curve" smooth="yes"/>
      <point x="206" y="637"/>
      <point x="196" y="516"/>
      <point x="188" y="451" type="curve" smooth="yes"/>
      <point x="179" y="375"/>
      <point x="160" y="208"/>
      <point x="128" y="11" type="curve" smooth="yes"/>
      <point x="87" y="-239"/>
      <point x="70" y="-313"/>
      <point x="-34" y="-313" type="curve" smooth="yes"/>
      <point x="-121" y="-313"/>
      <point x="-198" y="-211"/>
      <point x="-230" y="-211" type="curve" smooth="yes"/>
      <point x="-257" y="-211"/>
      <point x="-380" y="-359"/>
      <point x="-380" y="-394" type="curve" smooth="yes"/>
      <point x="-380" y="-421"/>
      <point x="-267" y="-500"/>
      <point x="-143" y="-500" type="curve" smooth="yes"/>
      <point x="-56" y="-500"/>
      <point x="39" y="-461"/>
      <point x="112" y="-404" type="curve" smooth="yes"/>
      <point x="221" y="-318"/>
      <point x="374" y="-154"/>
      <point x="412" y="96" type="curve" smooth="yes"/>
      <point x="437" y="262"/>
      <point x="450" y="381"/>
      <point x="459" y="473" type="curve" smooth="yes"/>
      <point x="468" y="559"/>
      <point x="500" y="827"/>
    </contour>
    <contour>
      <point x="618" y="500" type="line"/>
      <point x="589" y="535" type="line"/>
      <point x="55" y="535" type="line"/>
      <point x="43" y="514"/>
      <point x="13" y="458"/>
      <point x="4" y="437" type="curve"/>
      <point x="33" y="405" type="line"/>
      <point x="567" y="405" type="line"/>
    </contour>
  </outline>
</glyph>
<glyph name="LtnSmOpnE" format="2">
  <advance width="862"/>
  <unicode hex="025B"/>
  <anchor x="375" y="0" name="H"/>
  <anchor x="373" y="-100" name="L"/>
  <anchor x="430" y="0" name="O"/>
  <anchor x="1039" y="870" name="R"/>
  <anchor x="524" y="1000" name="U"/>
  <outline>
    <contour>
      <point x="882" y="823" type="curve"/>
      <point x="798" y="862"/>
      <point x="713" y="936"/>
      <point x="572" y="936" type="curve" smooth="yes"/>
      <point x="466" y="936"/>
      <point x="344" y="891"/>
      <point x="281" y="852" type="curve" smooth="yes"/>
      <point x="191" y="796"/>
      <point x="101" y="701"/>
      <point x="101" y="618" type="curve" smooth="yes"/>
      <point x="101" y="537"/>
      <point x="154" y="483"/>
      <point x="246" y="451" type="curve"/>
      <point x="123" y="399"/>
      <point x="13" y="297"/>
      <point x="13" y="170" type="curve" smooth="yes"/>
      <point x="13" y="45"/>
      <point x="115" y="-41"/>
      <point x="327" y="-41" type="curve" smooth="yes"/>
      <point x="479" y="-41"/>
      <point x="614" y="46"/>
      <point x="794" y="216" type="curve"/>
      <point x="736" y="299" type="line"/>
      <point x="599" y="181"/>
      <point x="481" y="125"/>
      <point x="399" y="125" type="curve" smooth="yes"/>
      <point x="336" y="125"/>
      <point x="282" y="166"/>
      <point x="282" y="233" type="curve" smooth="yes"/>
      <point x="282" y="379"/>
      <point x="468" y="414"/>
      <point x="587" y="423" type="curve"/>
      <point x="585" y="516" type="line"/>
      <point x="401" y="528"/>
      <point x="350" y="594"/>
      <point x="350" y="661" type="curve" smooth="yes"/>
      <point x="350" y="760"/>
      <point x="415" y="796"/>
      <point x="470" y="796" type="curve" smooth="yes"/>
      <point x="572" y="796"/>
      <point x="616" y="651"/>
      <point x="657" y="651" type="curve" smooth="yes"/>
      <point x="708" y="651"/>
      <point x="845" y="780"/>
    </contour>
  </outline>
</glyph>
<glyph name="LtnSmRevOpnE" format="2">
  <advance width="841"/>
  <unicode hex="025C"/>
  <anchor x="348" y="-100" name="L"/>
  <anchor x="478" y="1000" name="U"/>
  <outline>
    <contour>
      <point x="14" y="174" type="line"/>
      <point x="110" y="21"/>
      <point x="241" y="-40"/>
      <point x="352" y="-40" type="curve" smooth="yes"/>
      <point x="558" y="-40"/>
      <point x="765" y="113"/>
      <point x="765" y="292" type="curve" smooth="yes"/>
      <point x="765" y="403"/>
      <point x="714" y="476"/>
      <point x="589" y="499" type="curve"/>
      <point x="693" y="541"/>
      <point x="785" y="622"/>
      <point x="785" y="734" type="curve" smooth="yes"/>
      <point x="785" y="873"/>
      <point x="636" y="936"/>
      <point x="499" y="936" type="curve" smooth="yes"/>
      <point x="336" y="936"/>
      <point x="225" y="888"/>
      <point x="134" y="818" type="curve"/>
      <point x="125" y="786"/>
      <point x="157" y="623"/>
      <point x="172" y="587" type="curve"/>
      <point x="247" y="608" type="line"/>
      <point x="257" y="720"/>
      <point x="320" y="812"/>
      <point x="446" y="812" type="curve" smooth="yes"/>
      <point x="515" y="812"/>
      <point x="550" y="764"/>
      <point x="550" y="703" type="curve" smooth="yes"/>
      <point x="550" y="570"/>
      <point x="430" y="527"/>
      <point x="321" y="514" type="curve"/>
      <point x="293" y="427" type="line"/>
      <point x="416" y="416"/>
      <point x="510" y="353"/>
      <point x="510" y="257" type="curve" smooth="yes"/>
      <point x="510" y="178"/>
      <point x="425" y="138"/>
      <point x="334" y="138" type="curve" smooth="yes"/>
      <point x="240" y="138"/>
      <point x="165" y="155"/>
      <point x="76" y="244" type="curve"/>
    </contour>
  </outline>
</glyph>
<glyph name="LtnSmRevOpnEHook" format="2">
  <advance width="1155"/>
  <unicode hex="025D"/>
  <anchor x="403" y="-100" name="L"/>
  <anchor x="541" y="1000" name="U"/>
  <outline>
    <contour>
      <point x="1087" y="894" type="curve"/>
      <point x="1043" y="936" type="line"/>
      <point x="967" y="870"/>
      <point x="786" y="775"/>
      <point x="650" y="719" type="curve"/>
      <point x="665" y="605" type="line"/>
      <point x="738" y="648"/>
      <point x="815" y="688"/>
      <point x="865" y="698" type="curve"/>
      <point x="853" y="667"/>
      <point x="843" y="631"/>
      <point x="840" y="607" type="curve" smooth="yes"/>
      <point x="829" y="521"/>
      <point x="881" y="489"/>
      <point x="931" y="489" type="curve" smooth="yes"/>
      <point x="1014" y="489"/>
      <point x="1111" y="565"/>
      <point x="1205" y="636" type="curve"/>
      <point x="1186" y="698" type="line"/>
      <point x="1126" y="664"/>
      <point x="1090" y="643"/>
      <point x="1048" y="642" type="curve" smooth="yes"/>
      <point x="1000" y="641"/>
      <point x="988" y="692"/>
      <point x="1004" y="747" type="curve" smooth="yes"/>
      <point x="1018" y="794"/>
      <point x="1049" y="841"/>
    </contour>
    <contour>
      <point x="14" y="174" type="line"/>
      <point x="110" y="21"/>
      <point x="241" y="-40"/>
      <point x="352" y="-40" type="curve" smooth="yes"/>
      <point x="558" y="-40"/>
      <point x="765" y="113"/>
      <point x="765" y="292" type="curve" smooth="yes"/>
      <point x="765" y="403"/>
      <point x="714" y="476"/>
      <point x="589" y="499" type="curve"/>
      <point x="693" y="541"/>
      <point x="785" y="622"/>
      <point x="785" y="734" type="curve" smooth="yes"/>
      <point x="785" y="873"/>
      <point x="636" y="936"/>
      <point x="499" y="936" type="curve" smooth="yes"/>
      <point x="336" y="936"/>
      <point x="225" y="888"/>
      <point x="134" y="818" type="curve"/>
      <point x="125" y="786"/>
      <point x="157" y="623"/>
      <point x="172" y="587" type="curve"/>
      <point x="247" y="608" type="line"/>
      <point x="257" y="720"/>
      <point x="320" y="812"/>
      <point x="446" y="812" type="curve" smooth="yes"/>
      <point x="515" y="812"/>
      <point x="550" y="764"/>
      <point x="550" y="703" type="curve" smooth="yes"/>
      <point x="550" y="570"/>
      <point x="430" y="527"/>
      <point x="321" y="514" type="curve"/>
      <point x="293" y="427" type="line"/>
      <point x="416" y="416"/>
      <point x="510" y="353"/>
      <point x="510" y="257" type="curve" smooth="yes"/>
      <point x="510" y="178"/>
      <point x="425" y="138"/>
      <point x="334" y="138" type="curve" smooth="yes"/>
      <point x="240" y="138"/>
      <point x="165" y="155"/>
      <point x="76" y="244" type="curve"/>
    </contour>
  </outline>
</glyph>
<glyph name="LtnSmClosedRevOpnE" format="2">
  <advance width="951"/>
  <unicode hex="025E"/>
  <anchor x="408" y="-100" name="L"/>
  <anchor x="1020" y="870" name="R"/>
  <anchor x="572" y="1000" name="U"/>
  <outline>
    <contour>
      <point x="481" y="114" type="curve" smooth="yes"/>
      <point x="357" y="114"/>
      <point x="291" y="264"/>
      <point x="319" y="478" type="curve" smooth="yes"/>
      <point x="347" y="694"/>
      <point x="439" y="814"/>
      <point x="554" y="814" type="curve" smooth="yes"/>
      <point x="617" y="814"/>
      <point x="667" y="760"/>
      <point x="656" y="683" type="curve" smooth="yes"/>
      <point x="646" y="603"/>
      <point x="606" y="528"/>
      <point x="428" y="512" type="curve"/>
      <point x="401" y="427" type="line"/>
      <point x="551" y="414"/>
      <point x="629" y="336"/>
      <point x="615" y="236" type="curve" smooth="yes"/>
      <point x="603" y="151"/>
      <point x="549" y="114"/>
    </contour>
    <contour>
      <point x="603" y="935" type="curve" smooth="yes"/>
      <point x="274" y="935"/>
      <point x="91" y="734"/>
      <point x="49" y="416" type="curve" smooth="yes"/>
      <point x="14" y="149"/>
      <point x="156" y="-39"/>
      <point x="461" y="-39" type="curve" smooth="yes"/>
      <point x="712" y="-39"/>
      <point x="857" y="109"/>
      <point x="875" y="292" type="curve" smooth="yes"/>
      <point x="886" y="406"/>
      <point x="805" y="474"/>
      <point x="697" y="498" type="curve"/>
      <point x="791" y="536"/>
      <point x="879" y="604"/>
      <point x="893" y="711" type="curve" smooth="yes"/>
      <point x="914" y="868"/>
      <point x="752" y="935"/>
    </contour>
  </outline>
</glyph>
<glyph name="LtnSmGHook" format="2">
  <advance width="937"/>
  <unicode hex="0260"/>
  <anchor x="324" y="-600" name="L"/>
  <anchor x="638" y="1640" name="U"/>
  <outline>
    <contour>
      <point x="1429" y="1393" type="curve"/>
      <point x="1369" y="1400"/>
      <point x="1257" y="1520"/>
      <point x="1140" y="1520" type="curve" smooth="yes"/>
      <point x="1048" y="1520"/>
      <point x="965" y="1479"/>
      <point x="895" y="1427" type="curve" smooth="yes"/>
      <point x="799" y="1356"/>
      <point x="689" y="1242"/>
      <point x="660" y="1065" type="curve" smooth="yes"/>
      <point x="602" y="716"/>
      <point x="622" y="281"/>
      <point x="562" y="-48" type="curve"/>
      <point x="523" y="-269"/>
      <point x="456" y="-309"/>
      <point x="367" y="-309" type="curve" smooth="yes"/>
      <point x="219" y="-309"/>
      <point x="156" y="-206"/>
      <point x="125" y="-206" type="curve" smooth="yes"/>
      <point x="107" y="-206"/>
      <point x="-25" y="-344"/>
      <point x="-25" y="-389" type="curve" smooth="yes"/>
      <point x="-25" y="-436"/>
      <point x="129" y="-500"/>
      <point x="271" y="-500" type="curve" smooth="yes"/>
      <point x="480" y="-500"/>
      <point x="775" y="-276"/>
      <point x="824" y="1" type="curve" smooth="yes"/>
      <point x="864" y="223"/>
      <point x="872" y="846"/>
      <point x="920" y="1116" type="curve"/>
      <point x="954" y="1305"/>
      <point x="1012" y="1337"/>
      <point x="1050" y="1337" type="curve" smooth="yes"/>
      <point x="1104" y="1337"/>
      <point x="1147" y="1215"/>
      <point x="1182" y="1215" type="curve" smooth="yes"/>
      <point x="1214" y="1215"/>
      <point x="1372" y="1352"/>
    </contour>
    <contour>
      <point x="881" y="812" type="curve"/>
      <point x="834" y="818"/>
      <point x="722" y="936"/>
      <point x="632" y="936" type="curve" smooth="yes"/>
      <point x="500" y="936"/>
      <point x="398" y="891"/>
      <point x="324" y="842" type="curve" smooth="yes"/>
      <point x="127" y="711"/>
      <point x="21" y="516"/>
      <point x="21" y="305" type="curve" smooth="yes"/>
      <point x="21" y="55"/>
      <point x="168" y="-41"/>
      <point x="256" y="-41" type="curve" smooth="yes"/>
      <point x="375" y="-41"/>
      <point x="485" y="62"/>
      <point x="601" y="228" type="curve"/>
      <point x="611" y="428" type="line"/>
      <point x="465" y="203"/>
      <point x="395" y="176"/>
      <point x="368" y="176" type="curve" smooth="yes"/>
      <point x="318" y="176"/>
      <point x="280" y="237"/>
      <point x="280" y="379" type="curve" smooth="yes"/>
      <point x="280" y="537"/>
      <point x="349" y="781"/>
      <point x="512" y="781" type="curve" smooth="yes"/>
      <point x="592" y="781"/>
      <point x="710" y="605"/>
      <point x="747" y="605" type="curve" smooth="yes"/>
      <point x="780" y="605"/>
      <point x="824" y="773"/>
    </contour>
  </outline>
</glyph>
<glyph name="LtnSmRamsHorn" format="2">
  <advance width="1109"/>
  <unicode hex="0264"/>
  <anchor x="438" y="-100" name="L"/>
  <anchor x="1149" y="870" name="R"/>
  <anchor x="605" y="1000" name="U"/>
  <outline>
    <contour>
      <point x="464" y="512" type="line"/>
      <point x="380" y="411"/>
      <point x="319" y="336"/>
      <point x="280" y="279" type="curve" smooth="yes"/>
      <point x="251" y="237"/>
      <point x="232" y="187"/>
      <point x="232" y="133" type="curve" smooth="yes"/>
      <point x="232" y="54"/>
      <point x="291" y="-40"/>
      <point x="451" y="-40" type="curve" smooth="yes"/>
      <point x="656" y="-40"/>
      <point x="773" y="86"/>
      <point x="773" y="219" type="curve" smooth="yes"/>
      <point x="773" y="244"/>
      <point x="768" y="270"/>
      <point x="757" y="306" type="curve" smooth="yes"/>
      <point x="724" y="414"/>
      <point x="562" y="777"/>
      <point x="500" y="859" type="curve" smooth="yes"/>
      <point x="461" y="910"/>
      <point x="403" y="936"/>
      <point x="335" y="936" type="curve" smooth="yes"/>
      <point x="110" y="936"/>
      <point x="36" y="719"/>
      <point x="36" y="576" type="curve"/>
      <point x="115" y="576" type="line"/>
      <point x="123" y="627"/>
      <point x="148" y="719"/>
      <point x="220" y="719" type="curve" smooth="yes"/>
      <point x="247" y="719"/>
      <point x="269" y="708"/>
      <point x="290" y="684" type="curve" smooth="yes"/>
      <point x="360" y="605"/>
      <point x="495" y="303"/>
      <point x="519" y="222" type="curve" smooth="yes"/>
      <point x="524" y="205"/>
      <point x="526" y="181"/>
      <point x="526" y="169" type="curve" smooth="yes"/>
      <point x="526" y="117"/>
      <point x="501" y="81"/>
      <point x="453" y="81" type="curve" smooth="yes"/>
      <point x="420" y="81"/>
      <point x="393" y="107"/>
      <point x="393" y="144" type="curve" smooth="yes"/>
      <point x="393" y="174"/>
      <point x="409" y="201"/>
      <point x="427" y="228" type="curve" smooth="yes"/>
      <point x="442" y="250"/>
      <point x="496" y="314"/>
      <point x="583" y="414" type="curve"/>
    </contour>
    <contour>
      <point x="592" y="415" type="line"/>
      <point x="696" y="545"/>
      <point x="795" y="661"/>
      <point x="824" y="688" type="curve" smooth="yes"/>
      <point x="847" y="710"/>
      <point x="867" y="729"/>
      <point x="907" y="729" type="curve" smooth="yes"/>
      <point x="970" y="729"/>
      <point x="985" y="647"/>
      <point x="995" y="576" type="curve"/>
      <point x="1066" y="576" type="line"/>
      <point x="1076" y="612"/>
      <point x="1095" y="686"/>
      <point x="1095" y="758" type="curve" smooth="yes"/>
      <point x="1095" y="849"/>
      <point x="1064" y="936"/>
      <point x="942" y="936" type="curve" smooth="yes"/>
      <point x="883" y="936"/>
      <point x="823" y="887"/>
      <point x="800" y="868" type="curve" smooth="yes"/>
      <point x="756" y="832"/>
      <point x="609" y="681"/>
      <point x="472" y="512" type="curve"/>
    </contour>
  </outline>
</glyph>
<glyph name="LtnSmHengHook" format="2">
  <advance width="1075"/>
  <unicode hex="0267"/>
  <anchor x="362" y="-600" name="L"/>
  <anchor x="708" y="1640" name="U"/>
  <outline>
    <contour>
      <point x="1094" y="1393" type="curve"/>
      <point x="1043" y="1407"/>
      <point x="911" y="1520"/>
      <point x="765" y="1520" type="curve" smooth="yes"/>
      <point x="681" y="1520"/>
      <point x="569" y="1479"/>
      <point x="499" y="1427" type="curve" smooth="yes"/>
      <point x="329" y="1300"/>
      <point x="231" y="1117"/>
      <point x="199" y="900" type="curve" smooth="yes"/>
      <point x="172" y="716"/>
      <point x="88" y="186"/>
      <point x="56" y="0" type="curve"/>
      <point x="99" y="-41" type="line"/>
      <point x="132" y="-23"/>
      <point x="317" y="56"/>
      <point x="352" y="75" type="curve"/>
      <point x="350" y="112"/>
      <point x="352" y="154"/>
      <point x="375" y="301" type="curve" smooth="yes"/>
      <point x="393" y="420"/>
      <point x="418" y="519"/>
      <point x="456" y="582" type="curve" smooth="yes"/>
      <point x="524" y="694"/>
      <point x="608" y="716"/>
      <point x="642" y="716" type="curve" smooth="yes"/>
      <point x="670" y="716"/>
      <point x="685" y="701"/>
      <point x="685" y="620" type="curve" smooth="yes"/>
      <point x="685" y="530"/>
      <point x="607" y="61"/>
      <point x="590" y="-11" type="curve" smooth="yes"/>
      <point x="528" y="-275"/>
      <point x="490" y="-311"/>
      <point x="405" y="-311" type="curve" smooth="yes"/>
      <point x="326" y="-311"/>
      <point x="228" y="-207"/>
      <point x="195" y="-207" type="curve" smooth="yes"/>
      <point x="166" y="-207"/>
      <point x="45" y="-355"/>
      <point x="45" y="-390" type="curve" smooth="yes"/>
      <point x="45" y="-424"/>
      <point x="197" y="-501"/>
      <point x="311" y="-501" type="curve" smooth="yes"/>
      <point x="418" y="-501"/>
      <point x="514" y="-455"/>
      <point x="586" y="-395" type="curve" smooth="yes"/>
      <point x="703" y="-296"/>
      <point x="825" y="-158"/>
      <point x="872" y="78" type="curve" smooth="yes"/>
      <point x="901" y="222"/>
      <point x="975" y="635"/>
      <point x="975" y="780" type="curve" smooth="yes"/>
      <point x="975" y="909"/>
      <point x="926" y="936"/>
      <point x="842" y="936" type="curve" smooth="yes"/>
      <point x="723" y="936"/>
      <point x="589" y="880"/>
      <point x="433" y="738" type="curve"/>
      <point x="462" y="949" type="line" smooth="yes"/>
      <point x="504" y="1252"/>
      <point x="586" y="1337"/>
      <point x="677" y="1337" type="curve" smooth="yes"/>
      <point x="740" y="1337"/>
      <point x="811" y="1215"/>
      <point x="846" y="1215" type="curve" smooth="yes"/>
      <point x="881" y="1215"/>
      <point x="1037" y="1352"/>
    </contour>
  </outline>
</glyph>
<glyph name="LtnSmIota" format="2">
  <advance width="554"/>
  <unicode hex="0269"/>
  <anchor x="230" y="0" name="H"/>
  <anchor x="222" y="-100" name="L"/>
  <anchor x="290" y="0" name="O"/>
  <anchor x="602" y="870" name="R"/>
  <anchor x="373" y="1000" name="U"/>
  <outline>
    <contour>
      <point x="584" y="232" type="curve"/>
      <point x="539" y="319" type="line"/>
      <point x="448" y="217"/>
      <point x="416" y="204"/>
      <point x="388" y="204" type="curve" smooth="yes"/>
      <point x="353" y="204"/>
      <point x="346" y="231"/>
      <point x="372" y="379" type="curve" smooth="yes"/>
      <point x="468" y="936" type="line"/>
      <point x="397" y="936" type="line"/>
      <point x="310" y="890"/>
      <point x="139" y="820"/>
      <point x="35" y="806" type="curve"/>
      <point x="24" y="727" type="line"/>
      <point x="149" y="715"/>
      <point x="169" y="694"/>
      <point x="145" y="559" type="curve" smooth="yes"/>
      <point x="80" y="190" type="line" smooth="yes"/>
      <point x="53" y="35"/>
      <point x="116" y="-41"/>
      <point x="236" y="-41" type="curve" smooth="yes"/>
      <point x="371" y="-41"/>
      <point x="498" y="95"/>
    </contour>
  </outline>
</glyph>
<glyph name="LtnSmTurnedMLngLeg" format="2">
  <advance width="1565"/>
  <unicode hex="0270"/>
  <anchor x="599" y="-100" name="L"/>
  <anchor x="820" y="1000" name="U"/>
  <outline>
    <contour>
      <point x="60" y="723" type="line"/>
      <point x="110" y="740"/>
      <point x="142" y="747"/>
      <point x="153" y="747" type="curve" smooth="yes"/>
      <point x="186" y="747"/>
      <point x="197" y="734"/>
      <point x="197" y="669" type="curve" smooth="yes"/>
      <point x="197" y="558"/>
      <point x="119" y="286"/>
      <point x="119" y="134" type="curve" smooth="yes"/>
      <point x="119" y="5"/>
      <point x="195" y="-42"/>
      <point x="273" y="-42" type="curve" smooth="yes"/>
      <point x="373" y="-42"/>
      <point x="459" y="-2"/>
      <point x="614" y="146" type="curve"/>
      <point x="613" y="135"/>
      <point x="613" y="127"/>
      <point x="613" y="124" type="curve" smooth="yes"/>
      <point x="613" y="36"/>
      <point x="662" y="-42"/>
      <point x="762" y="-42" type="curve" smooth="yes"/>
      <point x="871" y="-42"/>
      <point x="971" y="2"/>
      <point x="1114" y="142" type="curve"/>
      <point x="1110" y="108"/>
      <point x="1041" y="-294"/>
      <point x="1041" y="-380" type="curve" smooth="yes"/>
      <point x="1041" y="-455"/>
      <point x="1072" y="-500"/>
      <point x="1113" y="-500" type="curve" smooth="yes"/>
      <point x="1216" y="-500"/>
      <point x="1382" y="-408"/>
      <point x="1500" y="-337" type="curve"/>
      <point x="1483" y="-260" type="line"/>
      <point x="1442" y="-276"/>
      <point x="1401" y="-293"/>
      <point x="1364" y="-293" type="curve" smooth="yes"/>
      <point x="1339" y="-293"/>
      <point x="1329" y="-273"/>
      <point x="1329" y="-234" type="curve" smooth="yes"/>
      <point x="1329" y="-86"/>
      <point x="1450" y="612"/>
      <point x="1505" y="894" type="curve"/>
      <point x="1462" y="935" type="line"/>
      <point x="1429" y="917"/>
      <point x="1244" y="838"/>
      <point x="1209" y="819" type="curve"/>
      <point x="1211" y="787"/>
      <point x="1205" y="720"/>
      <point x="1186" y="599" type="curve" smooth="yes"/>
      <point x="1162" y="444"/>
      <point x="1136" y="355"/>
      <point x="1090" y="292" type="curve" smooth="yes"/>
      <point x="1020" y="197"/>
      <point x="951" y="190"/>
      <point x="936" y="190" type="curve" smooth="yes"/>
      <point x="909" y="190"/>
      <point x="897" y="203"/>
      <point x="897" y="254" type="curve" smooth="yes"/>
      <point x="897" y="352"/>
      <point x="942" y="622"/>
      <point x="1001" y="894" type="curve"/>
      <point x="959" y="935" type="line"/>
      <point x="924" y="917"/>
      <point x="738" y="838"/>
      <point x="701" y="819" type="curve"/>
      <point x="704" y="788"/>
      <point x="700" y="720"/>
      <point x="683" y="599" type="curve" smooth="yes"/>
      <point x="660" y="438"/>
      <point x="635" y="358"/>
      <point x="591" y="294" type="curve" smooth="yes"/>
      <point x="525" y="197"/>
      <point x="456" y="190"/>
      <point x="436" y="190" type="curve" smooth="yes"/>
      <point x="412" y="190"/>
      <point x="398" y="203"/>
      <point x="398" y="255" type="curve" smooth="yes"/>
      <point x="398" y="388"/>
      <point x="483" y="721"/>
      <point x="483" y="852" type="curve" smooth="yes"/>
      <point x="483" y="924"/>
      <point x="469" y="935"/>
      <point x="434" y="935" type="curve" smooth="yes"/>
      <point x="381" y="935"/>
      <point x="174" y="858"/>
      <point x="43" y="799" type="curve"/>
    </contour>
  </outline>
</glyph>
<glyph name="LtnSmTurnedRHook" format="2">
  <advance width="856"/>
  <unicode hex="027B"/>
  <anchor x="421" y="-600" name="L"/>
  <anchor x="664" y="1000" name="U"/>
  <outline>
    <contour>
      <point x="1068" y="-143" type="curve"/>
      <point x="1040" y="-78" type="line"/>
      <point x="963" y="-94"/>
      <point x="844" y="-137"/>
      <point x="786" y="-178" type="curve"/>
      <point x="829" y="-255"/>
      <point x="812" y="-337"/>
      <point x="746" y="-337" type="curve" smooth="yes"/>
      <point x="700" y="-337"/>
      <point x="666" y="-274"/>
      <point x="666" y="-149" type="curve" smooth="yes"/>
      <point x="666" y="108"/>
      <point x="795" y="677"/>
      <point x="795" y="852" type="curve" smooth="yes"/>
      <point x="795" y="913"/>
      <point x="771" y="936"/>
      <point x="734" y="936" type="curve" smooth="yes"/>
      <point x="679" y="936"/>
      <point x="453" y="852"/>
      <point x="340" y="801" type="curve"/>
      <point x="360" y="722" type="line"/>
      <point x="360" y="722"/>
      <point x="432" y="749"/>
      <point x="454" y="749" type="curve" smooth="yes"/>
      <point x="479" y="749"/>
      <point x="505" y="743"/>
      <point x="505" y="682" type="curve" smooth="yes"/>
      <point x="505" y="509"/>
      <point x="408" y="93"/>
      <point x="408" y="-197" type="curve" smooth="yes"/>
      <point x="408" y="-394"/>
      <point x="476" y="-500"/>
      <point x="577" y="-500" type="curve" smooth="yes"/>
      <point x="769" y="-500"/>
      <point x="1052" y="-334"/>
    </contour>
    <contour>
      <point x="-30" y="46" type="curve" smooth="yes"/>
      <point x="-30" y="21"/>
      <point x="99" y="-41"/>
      <point x="164" y="-41" type="curve" smooth="yes"/>
      <point x="251" y="-41"/>
      <point x="346" y="16"/>
      <point x="456" y="197" type="curve"/>
      <point x="472" y="267"/>
      <point x="540" y="444"/>
      <point x="510" y="541" type="curve"/>
      <point x="457" y="365"/>
      <point x="342" y="175"/>
      <point x="263" y="175" type="curve" smooth="yes"/>
      <point x="180" y="175"/>
      <point x="145" y="228"/>
      <point x="131" y="228" type="curve" smooth="yes"/>
      <point x="111" y="228"/>
      <point x="-30" y="87"/>
    </contour>
  </outline>
</glyph>
<glyph name="LtnSmCapR" format="2">
  <advance width="1109"/>
  <unicode hex="0280"/>
  <anchor x="438" y="-100" name="L"/>
  <anchor x="576" y="1000" name="U"/>
  <outline>
    <contour>
      <point x="1006" y="683" type="curve"/>
      <point x="1023" y="819"/>
      <point x="929" y="936"/>
      <point x="579" y="936" type="curve" smooth="yes"/>
      <point x="434" y="936"/>
      <point x="225" y="914"/>
      <point x="117" y="891" type="curve"/>
      <point x="117" y="796" type="line"/>
      <point x="293" y="817"/>
      <point x="446" y="818"/>
      <point x="544" y="818" type="curve" smooth="yes"/>
      <point x="705" y="818"/>
      <point x="746" y="743"/>
      <point x="737" y="680" type="curve" smooth="yes"/>
      <point x="722" y="573"/>
      <point x="636" y="516"/>
      <point x="501" y="516" type="curve" smooth="yes"/>
      <point x="472" y="516"/>
      <point x="458" y="517"/>
      <point x="419" y="523" type="curve"/>
      <point x="414" y="403" type="line"/>
      <point x="440" y="395"/>
      <point x="502" y="393"/>
      <point x="534" y="393" type="curve" smooth="yes"/>
      <point x="796" y="393"/>
      <point x="980" y="501"/>
    </contour>
    <contour>
      <point x="1061" y="169" type="line"/>
      <point x="970" y="149"/>
      <point x="939" y="156"/>
      <point x="916" y="181" type="curve" smooth="yes"/>
      <point x="638" y="491" type="line"/>
      <point x="456" y="443" type="line"/>
      <point x="697" y="21" type="line" smooth="yes"/>
      <point x="714" y="-8"/>
      <point x="740" y="-20"/>
      <point x="781" y="-20" type="curve" smooth="yes"/>
      <point x="844" y="-20"/>
      <point x="990" y="35"/>
      <point x="1085" y="91" type="curve"/>
    </contour>
    <contour>
      <point x="505" y="0" type="line"/>
      <point x="515" y="82" type="line"/>
      <point x="439" y="99"/>
      <point x="402" y="131"/>
      <point x="404" y="142" type="curve" smooth="yes"/>
      <point x="505" y="884" type="line"/>
      <point x="245" y="884" type="line"/>
      <point x="144" y="142" type="line" smooth="yes"/>
      <point x="142" y="130"/>
      <point x="89" y="99"/>
      <point x="11" y="82" type="curve"/>
      <point x="0" y="0" type="line"/>
    </contour>
  </outline>
</glyph>
<glyph name="LtnSmSHook" format="2">
  <advance width="811"/>
  <unicode hex="0282"/>
  <anchor x="214" y="-600" name="L"/>
  <anchor x="436" y="1000" name="U"/>
  <outline>
    <contour>
      <point x="818" y="844" type="curve"/>
      <point x="727" y="859"/>
      <point x="648" y="936"/>
      <point x="503" y="936" type="curve" smooth="yes"/>
      <point x="335" y="936"/>
      <point x="103" y="821"/>
      <point x="103" y="653" type="curve" smooth="yes"/>
      <point x="103" y="567"/>
      <point x="140" y="489"/>
      <point x="281" y="416" type="curve" smooth="yes"/>
      <point x="381" y="364"/>
      <point x="484" y="300"/>
      <point x="484" y="213" type="curve" smooth="yes"/>
      <point x="484" y="141"/>
      <point x="436" y="95"/>
      <point x="352" y="95" type="curve" smooth="yes"/>
      <point x="186" y="95"/>
      <point x="135" y="323"/>
      <point x="98" y="323" type="curve" smooth="yes"/>
      <point x="70" y="323"/>
      <point x="-24" y="157"/>
      <point x="-24" y="118" type="curve" smooth="yes"/>
      <point x="-24" y="61"/>
      <point x="107" y="-41"/>
      <point x="292" y="-41" type="curve" smooth="yes"/>
      <point x="466" y="-41"/>
      <point x="735" y="104"/>
      <point x="735" y="289" type="curve" smooth="yes"/>
      <point x="735" y="430"/>
      <point x="625" y="502"/>
      <point x="516" y="559" type="curve" smooth="yes"/>
      <point x="409" y="615"/>
      <point x="348" y="652"/>
      <point x="348" y="719" type="curve" smooth="yes"/>
      <point x="348" y="775"/>
      <point x="376" y="812"/>
      <point x="450" y="812" type="curve" smooth="yes"/>
      <point x="548" y="812"/>
      <point x="617" y="671"/>
      <point x="661" y="671" type="curve" smooth="yes"/>
      <point x="690" y="671"/>
      <point x="775" y="784"/>
    </contour>
    <contour>
      <point x="399" y="-197" type="curve"/>
      <point x="385" y="-149" type="line"/>
      <point x="338" y="-141"/>
      <point x="143" y="-228"/>
      <point x="151" y="-243" type="curve" smooth="yes"/>
      <point x="173" y="-287"/>
      <point x="150" y="-368"/>
      <point x="87" y="-368" type="curve" smooth="yes"/>
      <point x="41" y="-368"/>
      <point x="26" y="-314"/>
      <point x="36" y="-246" type="curve" smooth="yes"/>
      <point x="85" y="79" type="line" smooth="yes"/>
      <point x="92" y="127"/>
      <point x="95" y="156"/>
      <point x="100" y="192" type="curve"/>
      <point x="65" y="162"/>
      <point x="28" y="142"/>
      <point x="-25" y="118" type="curve"/>
      <point x="-79" y="-211" type="line" smooth="yes"/>
      <point x="-105" y="-369"/>
      <point x="-64" y="-500"/>
      <point x="96" y="-500" type="curve" smooth="yes"/>
      <point x="253" y="-500"/>
      <point x="394" y="-318"/>
    </contour>
  </outline>
</glyph>
<glyph name="LtnSmDotlessJStrkHook" format="2">
  <advance width="770"/>
  <unicode hex="0284"/>
  <anchor x="276" y="-600" name="L"/>
  <anchor x="515" y="1640" name="U"/>
  <outline>
    <contour>
      <point x="196" y="0" type="curve" smooth="yes"/>
      <point x="155" y="-243"/>
      <point x="137" y="-313"/>
      <point x="35" y="-313" type="curve" smooth="yes"/>
      <point x="-52" y="-313"/>
      <point x="-128" y="-211"/>
      <point x="-160" y="-211" type="curve" smooth="yes"/>
      <point x="-187" y="-211"/>
      <point x="-311" y="-359"/>
      <point x="-311" y="-394" type="curve" smooth="yes"/>
      <point x="-311" y="-421"/>
      <point x="-197" y="-500"/>
      <point x="-73" y="-500" type="curve" smooth="yes"/>
      <point x="14" y="-500"/>
      <point x="108" y="-461"/>
      <point x="181" y="-404" type="curve" smooth="yes"/>
      <point x="341" y="-279"/>
      <point x="461" y="-70"/>
      <point x="480" y="70" type="curve" smooth="yes"/>
      <point x="506" y="258"/>
      <point x="518" y="385"/>
      <point x="528" y="473" type="curve" smooth="yes"/>
      <point x="582" y="966"/>
      <point x="594" y="1051"/>
      <point x="607" y="1116" type="curve" smooth="yes"/>
      <point x="650" y="1329"/>
      <point x="710" y="1337"/>
      <point x="736" y="1337" type="curve" smooth="yes"/>
      <point x="800" y="1337"/>
      <point x="842" y="1215"/>
      <point x="887" y="1215" type="curve" smooth="yes"/>
      <point x="919" y="1215"/>
      <point x="1075" y="1352"/>
      <point x="1132" y="1393" type="curve"/>
      <point x="1091" y="1407"/>
      <point x="951" y="1520"/>
      <point x="814" y="1520" type="curve" smooth="yes"/>
      <point x="732" y="1520"/>
      <point x="649" y="1479"/>
      <point x="579" y="1427" type="curve" smooth="yes"/>
      <point x="483" y="1356"/>
      <point x="370" y="1222"/>
      <point x="331" y="1025" type="curve" smooth="yes"/>
      <point x="270" y="718"/>
      <point x="285" y="753"/>
      <point x="257" y="451" type="curve"/>
      <point x="250" y="385"/>
      <point x="238" y="252"/>
    </contour>
    <contour>
      <point x="792" y="655" type="line"/>
      <point x="763" y="690" type="line"/>
      <point x="99" y="690" type="line"/>
      <point x="87" y="669"/>
      <point x="54" y="613"/>
      <point x="45" y="592" type="curve"/>
      <point x="74" y="560" type="line"/>
      <point x="738" y="560" type="line"/>
    </contour>
  </outline>
</glyph>
<glyph name="LtnSmVHook" format="2">
  <advance width="1070"/>
  <unicode hex="028B"/>
  <anchor x="455" y="0" name="H"/>
  <anchor x="470" y="-100" name="L"/>
  <anchor x="511" y="0" name="O"/>
  <anchor x="614" y="1000" name="U"/>
  <outline>
    <contour>
      <point x="1031" y="595" type="curve"/>
      <point x="1061" y="832"/>
      <point x="958" y="907"/>
      <point x="847" y="934" type="curve"/>
      <point x="806" y="922"/>
      <point x="636" y="861"/>
      <point x="595" y="842" type="curve"/>
      <point x="605" y="771" type="line"/>
      <point x="716" y="771"/>
      <point x="768" y="676"/>
      <point x="746" y="516" type="curve" smooth="yes"/>
      <point x="717" y="303"/>
      <point x="609" y="102"/>
      <point x="501" y="102" type="curve" smooth="yes"/>
      <point x="438" y="102"/>
      <point x="407" y="155"/>
      <point x="407" y="282" type="curve" smooth="yes"/>
      <point x="407" y="399"/>
      <point x="460" y="706"/>
      <point x="460" y="823" type="curve" smooth="yes"/>
      <point x="460" y="884"/>
      <point x="461" y="936"/>
      <point x="411" y="936" type="curve" smooth="yes"/>
      <point x="378" y="936"/>
      <point x="140" y="853"/>
      <point x="27" y="802" type="curve"/>
      <point x="46" y="723" type="line"/>
      <point x="46" y="723"/>
      <point x="121" y="749"/>
      <point x="144" y="749" type="curve" smooth="yes"/>
      <point x="168" y="749"/>
      <point x="182" y="743"/>
      <point x="182" y="682" type="curve" smooth="yes"/>
      <point x="182" y="584"/>
      <point x="129" y="354"/>
      <point x="129" y="235" type="curve" smooth="yes"/>
      <point x="129" y="33"/>
      <point x="268" y="-41"/>
      <point x="424" y="-41" type="curve" smooth="yes"/>
      <point x="724" y="-41"/>
      <point x="994" y="320"/>
    </contour>
  </outline>
</glyph>
<glyph name="LtnSmTurnedW" format="2">
  <advance width="1414"/>
  <unicode hex="028D"/>
  <anchor x="581" y="-100" name="L"/>
  <anchor x="732" y="1000" name="U"/>
  <outline>
    <contour>
      <point x="-15" y="34" type="curve" smooth="yes"/>
      <point x="-15" y="-32"/>
      <point x="24" y="-42"/>
      <point x="69" y="-42" type="curve" smooth="yes"/>
      <point x="137" y="-42"/>
      <point x="297" y="21"/>
      <point x="395" y="108" type="curve"/>
      <point x="367" y="175" type="line"/>
      <point x="332" y="158"/>
      <point x="280" y="150"/>
      <point x="261" y="150" type="curve" smooth="yes"/>
      <point x="228" y="150"/>
      <point x="206" y="153"/>
      <point x="206" y="175" type="curve" smooth="yes"/>
      <point x="206" y="248"/>
      <point x="291" y="408"/>
      <point x="409" y="617" type="curve"/>
      <point x="417" y="535"/>
      <point x="440" y="419"/>
      <point x="460" y="294" type="curve"/>
      <point x="481" y="173"/>
      <point x="532" y="-42"/>
      <point x="548" y="-42" type="curve" smooth="yes"/>
      <point x="594" y="-42"/>
      <point x="711" y="35"/>
      <point x="770" y="90" type="curve"/>
      <point x="774" y="188"/>
      <point x="846" y="399"/>
      <point x="953" y="606" type="curve"/>
      <point x="959" y="506"/>
      <point x="991" y="172"/>
      <point x="1008" y="95" type="curve" smooth="yes"/>
      <point x="1033" y="-16"/>
      <point x="1064" y="-42"/>
      <point x="1115" y="-42" type="curve" smooth="yes"/>
      <point x="1159" y="-42"/>
      <point x="1282" y="30"/>
      <point x="1404" y="118" type="curve"/>
      <point x="1387" y="194" type="line"/>
      <point x="1387" y="194"/>
      <point x="1324" y="166"/>
      <point x="1291" y="166" type="curve" smooth="yes"/>
      <point x="1267" y="166"/>
      <point x="1251" y="177"/>
      <point x="1235" y="239" type="curve" smooth="yes"/>
      <point x="1219" y="303"/>
      <point x="1183" y="666"/>
      <point x="1160" y="894" type="curve"/>
      <point x="1118" y="935" type="line"/>
      <point x="1091" y="923"/>
      <point x="932" y="836"/>
      <point x="909" y="824" type="curve"/>
      <point x="790" y="610"/>
      <point x="727" y="462"/>
      <point x="697" y="364" type="curve"/>
      <point x="662" y="487"/>
      <point x="635" y="669"/>
      <point x="606" y="894" type="curve"/>
      <point x="563" y="935" type="line"/>
      <point x="537" y="923"/>
      <point x="397" y="848"/>
      <point x="374" y="836" type="curve"/>
      <point x="67" y="281"/>
      <point x="-15" y="140"/>
    </contour>
  </outline>
</glyph>
<glyph name="LtnSmZRetrHook" format="2">
  <advance width="776"/>
  <unicode hex="0290"/>
  <anchor x="273" y="-100" name="L"/>
  <anchor x="481" y="1000" name="U"/>
  <outline>
    <contour>
      <point x="787" y="870" type="curve"/>
      <point x="756" y="915" type="line"/>
      <point x="268" y="915" type="line" smooth="yes"/>
      <point x="221" y="915"/>
      <point x="165" y="930"/>
      <point x="140" y="936" type="curve"/>
      <point x="130" y="879"/>
      <point x="86" y="703"/>
      <point x="61" y="584" type="curve"/>
      <point x="134" y="566" type="line"/>
      <point x="173" y="678"/>
      <point x="205" y="705"/>
      <point x="268" y="705" type="curve" smooth="yes"/>
      <point x="475" y="705" type="line"/>
      <point x="359" y="567"/>
      <point x="177" y="265"/>
      <point x="-22" y="25" type="curve"/>
      <point x="18" y="-31" type="line"/>
      <point x="119" y="20"/>
      <point x="182" y="47"/>
      <point x="225" y="47" type="curve" smooth="yes"/>
      <point x="289" y="47"/>
      <point x="411" y="-20"/>
      <point x="522" y="-20" type="curve" smooth="yes"/>
      <point x="653" y="-20"/>
      <point x="710" y="97"/>
      <point x="784" y="263" type="curve"/>
      <point x="718" y="303" type="line"/>
      <point x="667" y="208"/>
      <point x="632" y="194"/>
      <point x="607" y="194" type="curve" smooth="yes"/>
      <point x="549" y="194"/>
      <point x="439" y="246"/>
      <point x="385" y="246" type="curve" smooth="yes"/>
      <point x="352" y="246"/>
      <point x="303" y="230"/>
      <point x="303" y="230" type="curve"/>
      <point x="514" y="500"/>
      <point x="568" y="634"/>
    </contour>
    <contour>
      <point x="1061" y="-177" type="curve"/>
      <point x="1047" y="-129" type="line"/>
      <point x="1000" y="-121"/>
      <point x="805" y="-208"/>
      <point x="813" y="-223" type="curve" smooth="yes"/>
      <point x="838" y="-272"/>
      <point x="808" y="-368"/>
      <point x="749" y="-368" type="curve" smooth="yes"/>
      <point x="693" y="-368"/>
      <point x="681" y="-310"/>
      <point x="700" y="-168" type="curve" smooth="yes"/>
      <point x="741" y="135" type="line" smooth="yes"/>
      <point x="747" y="181"/>
      <point x="772" y="237"/>
      <point x="784" y="263" type="curve"/>
      <point x="756" y="291"/>
      <point x="632" y="194"/>
      <point x="621" y="114" type="curve" smooth="yes"/>
      <point x="573" y="-250" type="line" smooth="yes"/>
      <point x="549" y="-433"/>
      <point x="628" y="-500"/>
      <point x="748" y="-500" type="curve" smooth="yes"/>
      <point x="895" y="-500"/>
      <point x="1056" y="-298"/>
    </contour>
  </outline>
</glyph>
<glyph name="LtnSmZCurl" format="2">
  <advance width="940"/>
  <unicode hex="0291"/>
  <anchor x="376" y="-100" name="L"/>
  <anchor x="518" y="1000" name="U"/>
  <outline>
    <contour>
      <point x="817" y="870" type="curve"/>
      <point x="786" y="915" type="line"/>
      <point x="269" y="915" type="line" smooth="yes"/>
      <point x="222" y="915"/>
      <point x="196" y="930"/>
      <point x="171" y="936" type="curve"/>
      <point x="161" y="879"/>
      <point x="115" y="703"/>
      <point x="90" y="584" type="curve"/>
      <point x="164" y="566" type="line"/>
      <point x="203" y="678"/>
      <point x="235" y="705"/>
      <point x="298" y="705" type="curve" smooth="yes"/>
      <point x="505" y="705" type="line"/>
      <point x="389" y="567"/>
      <point x="206" y="265"/>
      <point x="7" y="25" type="curve"/>
      <point x="48" y="-31" type="line"/>
      <point x="149" y="20"/>
      <point x="202" y="47"/>
      <point x="245" y="47" type="curve" smooth="yes"/>
      <point x="329" y="47"/>
      <point x="431" y="-20"/>
      <point x="572" y="-20" type="curve" smooth="yes"/>
      <point x="705" y="-20"/>
      <point x="875" y="134"/>
      <point x="893" y="276" type="curve" smooth="yes"/>
      <point x="906" y="381"/>
      <point x="838" y="467"/>
      <point x="741" y="467" type="curve" smooth="yes"/>
      <point x="538" y="467"/>
      <point x="397" y="188"/>
      <point x="303" y="-213" type="curve"/>
      <point x="402" y="-231" type="line"/>
      <point x="512" y="166"/>
      <point x="604" y="316"/>
      <point x="689" y="316" type="curve" smooth="yes"/>
      <point x="735" y="316"/>
      <point x="761" y="285"/>
      <point x="761" y="241" type="curve" smooth="yes"/>
      <point x="761" y="198"/>
      <point x="712" y="165"/>
      <point x="670" y="165" type="curve" smooth="yes"/>
      <point x="552" y="165"/>
      <point x="460" y="226"/>
      <point x="400" y="226" type="curve" smooth="yes"/>
      <point x="359" y="226"/>
      <point x="322" y="212"/>
      <point x="318" y="210" type="curve"/>
      <point x="529" y="480"/>
      <point x="598" y="634"/>
    </contour>
  </outline>
</glyph>
<glyph name="LtnGlottalStop" format="2">
  <advance width="859"/>
  <unicode hex="0294"/>
  <anchor x="362" y="-100" name="L"/>
  <anchor x="1010" y="870" name="R"/>
  <anchor x="604" y="1640" name="U"/>
  <outline>
    <contour>
      <point x="624" y="-10" type="line"/>
      <point x="635" y="71" type="line"/>
      <point x="540" y="89"/>
      <point x="498" y="112"/>
      <point x="501" y="131" type="curve" smooth="yes"/>
      <point x="561" y="563" type="line"/>
      <point x="601" y="862"/>
      <point x="904" y="880"/>
      <point x="944" y="1171" type="curve" smooth="yes"/>
      <point x="972" y="1374"/>
      <point x="874" y="1509"/>
      <point x="631" y="1509" type="curve" smooth="yes"/>
      <point x="363" y="1509"/>
      <point x="145" y="1324"/>
      <point x="116" y="1120" type="curve" smooth="yes"/>
      <point x="115" y="1110"/>
      <point x="113" y="1088"/>
      <point x="114" y="1078" type="curve"/>
      <point x="133" y="1048" type="line"/>
      <point x="214" y="1057"/>
      <point x="326" y="1085"/>
      <point x="387" y="1115" type="curve"/>
      <point x="384" y="1134"/>
      <point x="382" y="1163"/>
      <point x="385" y="1182" type="curve" smooth="yes"/>
      <point x="398" y="1284"/>
      <point x="467" y="1376"/>
      <point x="543" y="1376" type="curve" smooth="yes"/>
      <point x="639" y="1376"/>
      <point x="711" y="1278"/>
      <point x="689" y="1117" type="curve" smooth="yes"/>
      <point x="654" y="862"/>
      <point x="355" y="799"/>
      <point x="313" y="496" type="curve" smooth="yes"/>
      <point x="263" y="131" type="line" smooth="yes"/>
      <point x="260" y="110"/>
      <point x="218" y="91"/>
      <point x="114" y="71" type="curve"/>
      <point x="103" y="-10" type="line"/>
    </contour>
  </outline>
</glyph>
<glyph name="LtnSmTurnedK" format="2">
  <advance width="998"/>
  <unicode hex="029E"/>
  <anchor x="237" y="-100" name="L"/>
  <anchor x="618" y="1000" name="U"/>
  <outline>
    <contour>
      <point x="-20" y="37" type="curve" smooth="yes"/>
      <point x="-20" y="-8"/>
      <point x="2" y="-41"/>
      <point x="86" y="-41" type="curve" smooth="yes"/>
      <point x="210" y="-41"/>
      <point x="321" y="-25"/>
      <point x="439" y="-7" type="curve"/>
      <point x="430" y="72" type="line"/>
      <point x="366" y="69"/>
      <point x="309" y="80"/>
      <point x="309" y="98" type="curve" smooth="yes"/>
      <point x="309" y="116"/>
      <point x="366" y="168"/>
      <point x="471" y="245" type="curve" smooth="yes"/>
      <point x="670" y="391" type="line"/>
      <point x="506" y="426" type="line"/>
      <point x="299" y="299" type="line" smooth="yes"/>
      <point x="99" y="176"/>
      <point x="-20" y="76"/>
    </contour>
    <contour>
      <point x="508" y="-379" type="curve" smooth="yes"/>
      <point x="508" y="-473"/>
      <point x="577" y="-500"/>
      <point x="614" y="-500" type="curve" smooth="yes"/>
      <point x="707" y="-500"/>
      <point x="899" y="-384"/>
      <point x="974" y="-335" type="curve"/>
      <point x="957" y="-258" type="line"/>
      <point x="932" y="-267"/>
      <point x="880" y="-291"/>
      <point x="838" y="-291" type="curve" smooth="yes"/>
      <point x="807" y="-291"/>
      <point x="796" y="-258"/>
      <point x="796" y="-232" type="curve" smooth="yes"/>
      <point x="796" y="-30"/>
      <point x="953" y="740"/>
      <point x="973" y="895" type="curve"/>
      <point x="928" y="936" type="line"/>
      <point x="895" y="918"/>
      <point x="706" y="837"/>
      <point x="669" y="818" type="curve"/>
      <point x="708" y="681"/>
      <point x="508" y="-121"/>
    </contour>
    <contour>
      <point x="-10" y="787" type="curve"/>
      <point x="27" y="713" type="line"/>
      <point x="92" y="735"/>
      <point x="135" y="739"/>
      <point x="165" y="739" type="curve" smooth="yes"/>
      <point x="255" y="739"/>
      <point x="352" y="409"/>
      <point x="471" y="340" type="curve"/>
      <point x="670" y="391" type="line"/>
      <point x="561" y="469"/>
      <point x="438" y="936"/>
      <point x="293" y="936" type="curve" smooth="yes"/>
      <point x="232" y="936"/>
      <point x="78" y="861"/>
    </contour>
  </outline>
</glyph>
<glyph name="LtnGlottalStopStrk" format="2">
  <advance width="859"/>
  <unicode hex="02A1"/>
  <anchor x="298" y="-100" name="L"/>
  <anchor x="536" y="1640" name="U"/>
  <outline>
    <contour>
      <point x="604" y="-10" type="line"/>
      <point x="615" y="71" type="line"/>
      <point x="520" y="89"/>
      <point x="478" y="112"/>
      <point x="481" y="131" type="curve" smooth="yes"/>
      <point x="541" y="563" type="line"/>
      <point x="581" y="862"/>
      <point x="884" y="880"/>
      <point x="924" y="1171" type="curve" smooth="yes"/>
      <point x="952" y="1374"/>
      <point x="854" y="1509"/>
      <point x="611" y="1509" type="curve" smooth="yes"/>
      <point x="343" y="1509"/>
      <point x="125" y="1324"/>
      <point x="96" y="1120" type="curve" smooth="yes"/>
      <point x="95" y="1110"/>
      <point x="93" y="1088"/>
      <point x="94" y="1078" type="curve"/>
      <point x="113" y="1048" type="line"/>
      <point x="194" y="1057"/>
      <point x="306" y="1085"/>
      <point x="367" y="1115" type="curve"/>
      <point x="364" y="1134"/>
      <point x="362" y="1163"/>
      <point x="365" y="1182" type="curve" smooth="yes"/>
      <point x="378" y="1284"/>
      <point x="447" y="1376"/>
      <point x="523" y="1376" type="curve" smooth="yes"/>
      <point x="619" y="1376"/>
      <point x="691" y="1278"/>
      <point x="669" y="1117" type="curve" smooth="yes"/>
      <point x="634" y="862"/>
      <point x="335" y="799"/>
      <point x="293" y="496" type="curve" smooth="yes"/>
      <point x="243" y="131" type="line" smooth="yes"/>
      <point x="240" y="110"/>
      <point x="198" y="91"/>
      <point x="94" y="71" type="curve"/>
      <point x="83" y="-10" type="line"/>
    </contour>
    <contour>
      <point x="741" y="449" type="line"/>
      <point x="712" y="484" type="line"/>
      <point x="108" y="484" type="line"/>
      <point x="96" y="463"/>
      <point x="63" y="407"/>
      <point x="54" y="386" type="curve"/>
      <point x="83" y="354" type="line"/>
      <point x="687" y="354" type="line"/>
    </contour>
  </outline>
</glyph>
<glyph name="LtnBidentalPercussive" format="2">
  <advance width="1011"/>
  <unicode hex="02AD"/>
  <anchor x="279" y="-100" name="L"/>
  <anchor x="471" y="1228" name="U"/>
  <outline>
    <contour>
      <point x="186" y="31" type="curve"/>
      <point x="218" y="244" type="line"/>
      <point x="737" y="244" type="line"/>
      <point x="700" y="-6" type="line"/>
      <point x="730" y="-40" type="line"/>
      <point x="770" y="-27"/>
      <point x="838" y="13"/>
      <point x="866" y="31" type="curve"/>
      <point x="918" y="404" type="line"/>
      <point x="894" y="436" type="line"/>
      <point x="203" y="436" type="line"/>
      <point x="163" y="414"/>
      <point x="75" y="343"/>
      <point x="65" y="318" type="curve"/>
      <point x="20" y="-6" type="line"/>
      <point x="50" y="-40" type="line"/>
      <point x="93" y="-26"/>
      <point x="157" y="12"/>
    </contour>
    <contour>
      <point x="284" y="733" type="curve"/>
      <point x="316" y="946" type="line"/>
      <point x="835" y="946" type="line"/>
      <point x="798" y="696" type="line"/>
      <point x="828" y="662" type="line"/>
      <point x="868" y="675"/>
      <point x="936" y="715"/>
      <point x="964" y="733" type="curve"/>
      <point x="1016" y="1106" type="line"/>
      <point x="992" y="1138" type="line"/>
      <point x="301" y="1138" type="line"/>
      <point x="261" y="1116"/>
      <point x="173" y="1045"/>
      <point x="163" y="1020" type="curve"/>
      <point x="118" y="696" type="line"/>
      <point x="148" y="662" type="line"/>
      <point x="191" y="676"/>
      <point x="255" y="714"/>
    </contour>
  </outline>
</glyph>
<glyph name="LtnSmTurnedHFishhook" format="2">
  <advance width="1291"/>
  <unicode hex="02AE"/>
  <anchor x="407" y="-100" name="L"/>
  <anchor x="820" y="1000" name="U"/>
  <outline>
    <contour>
      <point x="1241" y="895" type="curve"/>
      <point x="1198" y="936" type="line"/>
      <point x="1165" y="919"/>
      <point x="977" y="839"/>
      <point x="942" y="820" type="curve"/>
      <point x="946" y="763"/>
      <point x="940" y="741"/>
      <point x="919" y="594" type="curve" smooth="yes"/>
      <point x="898" y="445"/>
      <point x="862" y="353"/>
      <point x="838" y="313" type="curve" smooth="yes"/>
      <point x="766" y="194"/>
      <point x="679" y="179"/>
      <point x="649" y="179" type="curve" smooth="yes"/>
      <point x="615" y="179"/>
      <point x="609" y="220"/>
      <point x="609" y="271" type="curve" smooth="yes"/>
      <point x="609" y="351"/>
      <point x="671" y="605"/>
      <point x="671" y="706" type="curve" smooth="yes"/>
      <point x="671" y="840"/>
      <point x="628" y="933"/>
      <point x="438" y="933" type="curve" smooth="yes"/>
      <point x="315" y="933"/>
      <point x="145" y="870"/>
      <point x="37" y="770" type="curve"/>
      <point x="33" y="761"/>
      <point x="28" y="730"/>
      <point x="28" y="716" type="curve" smooth="yes"/>
      <point x="28" y="619"/>
      <point x="60" y="501"/>
      <point x="69" y="466" type="curve"/>
      <point x="143" y="466" type="line"/>
      <point x="160" y="574"/>
      <point x="231" y="785"/>
      <point x="336" y="785" type="curve" smooth="yes"/>
      <point x="397" y="785"/>
      <point x="404" y="728"/>
      <point x="401" y="651" type="curve" smooth="yes"/>
      <point x="396" y="512"/>
      <point x="319" y="237"/>
      <point x="319" y="115" type="curve" smooth="yes"/>
      <point x="319" y="-14"/>
      <point x="368" y="-41"/>
      <point x="452" y="-41" type="curve" smooth="yes"/>
      <point x="571" y="-41"/>
      <point x="705" y="15"/>
      <point x="861" y="157" type="curve"/>
      <point x="835" y="12"/>
      <point x="786" y="-249"/>
      <point x="786" y="-384" type="curve" smooth="yes"/>
      <point x="786" y="-462"/>
      <point x="825" y="-500"/>
      <point x="862" y="-500" type="curve" smooth="yes"/>
      <point x="947" y="-500"/>
      <point x="1132" y="-403"/>
      <point x="1243" y="-338" type="curve"/>
      <point x="1213" y="-261" type="line"/>
      <point x="1167" y="-282"/>
      <point x="1139" y="-294"/>
      <point x="1108" y="-294" type="curve" smooth="yes"/>
      <point x="1086" y="-294"/>
      <point x="1072" y="-286"/>
      <point x="1072" y="-235" type="curve" smooth="yes"/>
      <point x="1072" y="-52"/>
      <point x="1193" y="609"/>
    </contour>
  </outline>
</glyph>
<glyph name="ModSmJ" format="2">
  <advance width="409"/>
  <unicode hex="02B2"/>
  <anchor x="151" y="248" name="L"/>
  <anchor x="304" y="1208" name="U"/>
  <outline>
    <contour>
      <point x="-69" y="308" type="curve" smooth="yes"/>
      <point x="-8" y="308"/>
      <point x="58" y="331"/>
      <point x="109" y="366" type="curve" smooth="yes"/>
      <point x="186" y="417"/>
      <point x="293" y="516"/>
      <point x="319" y="666" type="curve" smooth="yes"/>
      <point x="337" y="765"/>
      <point x="345" y="837"/>
      <point x="352" y="892" type="curve"/>
      <point x="358" y="943"/>
      <point x="381" y="1104"/>
      <point x="381" y="1130" type="curve" smooth="yes"/>
      <point x="381" y="1164"/>
      <point x="361" y="1170"/>
      <point x="335" y="1170" type="curve" smooth="yes"/>
      <point x="298" y="1170"/>
      <point x="149" y="1119"/>
      <point x="70" y="1088" type="curve"/>
      <point x="84" y="1042" type="line"/>
      <point x="84" y="1042"/>
      <point x="130" y="1056"/>
      <point x="146" y="1056" type="curve" smooth="yes"/>
      <point x="163" y="1056"/>
      <point x="175" y="1053"/>
      <point x="175" y="1016" type="curve" smooth="yes"/>
      <point x="175" y="990"/>
      <point x="168" y="918"/>
      <point x="163" y="879" type="curve" smooth="yes"/>
      <point x="156" y="833"/>
      <point x="143" y="733"/>
      <point x="121" y="615" type="curve" smooth="yes"/>
      <point x="92" y="465"/>
      <point x="80" y="420"/>
      <point x="7" y="420" type="curve" smooth="yes"/>
      <point x="-54" y="420"/>
      <point x="-108" y="481"/>
      <point x="-130" y="481" type="curve" smooth="yes"/>
      <point x="-149" y="481"/>
      <point x="-235" y="393"/>
      <point x="-235" y="372" type="curve" smooth="yes"/>
      <point x="-235" y="355"/>
      <point x="-156" y="308"/>
    </contour>
    <contour>
      <point x="303" y="1260" type="curve" smooth="yes"/>
      <point x="391" y="1260"/>
      <point x="438" y="1321"/>
      <point x="438" y="1365" type="curve" smooth="yes"/>
      <point x="438" y="1392"/>
      <point x="414" y="1420"/>
      <point x="357" y="1420" type="curve" smooth="yes"/>
      <point x="270" y="1420"/>
      <point x="222" y="1356"/>
      <point x="222" y="1314" type="curve" smooth="yes"/>
      <point x="222" y="1287"/>
      <point x="246" y="1260"/>
    </contour>
  </outline>
</glyph>
<glyph name="ModApos" format="2">
  <advance width="404"/>
  <unicode hex="02BC"/>
  <outline>
    <contour>
      <point x="439" y="1250" type="curve" smooth="yes"/>
      <point x="473" y="1350"/>
      <point x="453" y="1464"/>
      <point x="393" y="1494" type="curve"/>
      <point x="325" y="1496"/>
      <point x="162" y="1457"/>
      <point x="110" y="1429" type="curve"/>
      <point x="115" y="1349" type="line"/>
      <point x="226" y="1349"/>
      <point x="259" y="1283"/>
      <point x="242" y="1200" type="curve" smooth="yes"/>
      <point x="230" y="1141"/>
      <point x="185" y="1052"/>
      <point x="119" y="1000" type="curve"/>
      <point x="189" y="969" type="line"/>
      <point x="303" y="1032"/>
      <point x="410" y="1164"/>
    </contour>
  </outline>
</glyph>
<glyph name="Caron" format="2">
  <advance width="557"/>
  <unicode hex="02C7"/>
  <anchor x="422" y="1370" name="U"/>
  <outline>
    <contour>
      <point x="761" y="1421" type="line"/>
      <point x="746" y="1445"/>
      <point x="715" y="1472"/>
      <point x="699" y="1486" type="curve"/>
      <point x="406" y="1272" type="line"/>
      <point x="177" y="1486" type="line"/>
      <point x="155" y="1471"/>
      <point x="123" y="1444"/>
      <point x="102" y="1421" type="curve"/>
      <point x="308" y="1040" type="line"/>
      <point x="460" y="1040" type="line"/>
    </contour>
  </outline>
</glyph>
<glyph name="ModPlusSgn" format="2">
  <advance width="660"/>
  <unicode hex="02D6"/>
  <outline>
    <contour>
      <point x="444" y="756" type="line"/>
      <point x="414" y="789" type="line"/>
      <point x="387" y="783"/>
      <point x="318" y="762"/>
      <point x="291" y="752" type="curve"/>
      <point x="208" y="273" type="line"/>
      <point x="238" y="242" type="line"/>
      <point x="262" y="248"/>
      <point x="340" y="268"/>
      <point x="365" y="281" type="curve"/>
    </contour>
    <contour>
      <point x="630" y="565" type="curve"/>
      <point x="601" y="600" type="line"/>
      <point x="89" y="598" type="line"/>
      <point x="72" y="575"/>
      <point x="39" y="505"/>
      <point x="30" y="482" type="curve"/>
      <point x="57" y="448" type="line"/>
      <point x="574" y="448" type="line"/>
      <point x="587" y="470"/>
      <point x="622" y="542"/>
    </contour>
  </outline>
</glyph>
<glyph name="Breve" format="2">
  <advance width="624"/>
  <unicode hex="02D8"/>
  <anchor x="417" y="1320" name="U"/>
  <outline>
    <contour>
      <point x="761" y="1335" type="curve"/>
      <point x="748" y="1360"/>
      <point x="706" y="1405"/>
      <point x="688" y="1418" type="curve"/>
      <point x="615" y="1291"/>
      <point x="481" y="1249"/>
      <point x="397" y="1249" type="curve" smooth="yes"/>
      <point x="321" y="1249"/>
      <point x="208" y="1291"/>
      <point x="168" y="1418" type="curve"/>
      <point x="148" y="1405"/>
      <point x="101" y="1358"/>
      <point x="83" y="1335" type="curve"/>
      <point x="128" y="1122"/>
      <point x="268" y="1040"/>
      <point x="385" y="1040" type="curve" smooth="yes"/>
      <point x="491" y="1040"/>
      <point x="662" y="1120"/>
    </contour>
  </outline>
</glyph>
<glyph name="ModSmL" format="2">
  <advance width="398"/>
  <unicode hex="02E1"/>
  <anchor x="186" y="548" name="L"/>
  <anchor x="358" y="1592" name="U"/>
  <outline>
    <contour>
      <point x="155" y="583" type="curve" smooth="yes"/>
      <point x="216" y="583"/>
      <point x="334" y="632"/>
      <point x="426" y="681" type="curve"/>
      <point x="414" y="727" type="line"/>
      <point x="373" y="714"/>
      <point x="352" y="708"/>
      <point x="331" y="708" type="curve" smooth="yes"/>
      <point x="316" y="708"/>
      <point x="306" y="716"/>
      <point x="306" y="743" type="curve" smooth="yes"/>
      <point x="306" y="852"/>
      <point x="421" y="1347"/>
      <point x="421" y="1471" type="curve" smooth="yes"/>
      <point x="421" y="1507"/>
      <point x="404" y="1520"/>
      <point x="378" y="1520" type="curve" smooth="yes"/>
      <point x="340" y="1520"/>
      <point x="182" y="1469"/>
      <point x="102" y="1439" type="curve"/>
      <point x="116" y="1392" type="line"/>
      <point x="116" y="1392"/>
      <point x="167" y="1408"/>
      <point x="182" y="1408" type="curve" smooth="yes"/>
      <point x="200" y="1408"/>
      <point x="218" y="1404"/>
      <point x="218" y="1368" type="curve" smooth="yes"/>
      <point x="218" y="1255"/>
      <point x="104" y="735"/>
      <point x="104" y="655" type="curve" smooth="yes"/>
      <point x="104" y="608"/>
      <point x="129" y="583"/>
    </contour>
  </outline>
</glyph>
<glyph name="ModSmRevGlottalStop" format="2">
  <advance width="570"/>
  <unicode hex="02E4"/>
  <anchor x="263" y="548" name="L"/>
  <anchor x="370" y="1208" name="U"/>
  <outline>
    <contour>
      <point x="86" y="602" type="line"/>
      <point x="450" y="602" type="line"/>
      <point x="457" y="651" type="line"/>
      <point x="399" y="660"/>
      <point x="369" y="672"/>
      <point x="365" y="683" type="curve"/>
      <point x="378" y="761" type="line" smooth="yes"/>
      <point x="400" y="890"/>
      <point x="251" y="920"/>
      <point x="265" y="1015" type="curve" smooth="yes"/>
      <point x="273" y="1069"/>
      <point x="313" y="1094"/>
      <point x="348" y="1094" type="curve" smooth="yes"/>
      <point x="411" y="1094"/>
      <point x="445" y="1053"/>
      <point x="425" y="975" type="curve"/>
      <point x="465" y="968"/>
      <point x="585" y="992"/>
      <point x="598" y="1008" type="curve"/>
      <point x="604" y="1088"/>
      <point x="546" y="1169"/>
      <point x="381" y="1169" type="curve" smooth="yes"/>
      <point x="231" y="1169"/>
      <point x="109" y="1107"/>
      <point x="90" y="1006" type="curve" smooth="yes"/>
      <point x="70" y="891"/>
      <point x="232" y="851"/>
      <point x="207" y="737" type="curve" smooth="yes"/>
      <point x="195" y="681" type="line"/>
      <point x="186" y="671"/>
      <point x="156" y="661"/>
      <point x="93" y="651" type="curve"/>
    </contour>
  </outline>
</glyph>
<glyph name="ModLowDwnArrwhd" format="2">
  <advance width="373"/>
  <unicode hex="02EF"/>
  <outline>
    <contour>
      <point x="8" y="-560" type="line"/>
      <point x="26" y="-552"/>
      <point x="71" y="-534"/>
      <point x="89" y="-520" type="curve"/>
      <point x="289" y="-169" type="line"/>
      <point x="275" y="-154" type="line"/>
      <point x="264" y="-159"/>
      <point x="205" y="-180"/>
      <point x="191" y="-192" type="curve"/>
      <point x="68" y="-420" type="line"/>
      <point x="-14" y="-166" type="line"/>
      <point x="-33" y="-152" type="line"/>
      <point x="-54" y="-160"/>
      <point x="-89" y="-181"/>
      <point x="-105" y="-192" type="curve"/>
    </contour>
  </outline>
</glyph>
<glyph name="ModRaisedColon" format="2">
  <advance width="501"/>
  <unicode hex="02F8"/>
  <outline>
    <contour>
      <point x="312" y="979" type="curve" smooth="yes"/>
      <point x="442" y="979"/>
      <point x="510" y="1090"/>
      <point x="510" y="1182" type="curve" smooth="yes"/>
      <point x="510" y="1247"/>
      <point x="467" y="1296"/>
      <point x="378" y="1296" type="curve" smooth="yes"/>
      <point x="254" y="1296"/>
      <point x="178" y="1185"/>
      <point x="178" y="1098" type="curve" smooth="yes"/>
      <point x="178" y="1028"/>
      <point x="219" y="979"/>
    </contour>
    <contour>
      <point x="222" y="299" type="curve" smooth="yes"/>
      <point x="352" y="299"/>
      <point x="420" y="410"/>
      <point x="420" y="502" type="curve" smooth="yes"/>
      <point x="420" y="567"/>
      <point x="377" y="616"/>
      <point x="288" y="616" type="curve" smooth="yes"/>
      <point x="164" y="616"/>
      <point x="88" y="505"/>
      <point x="88" y="418" type="curve" smooth="yes"/>
      <point x="88" y="348"/>
      <point x="129" y="299"/>
    </contour>
  </outline>
</glyph>
<glyph name="ModOpnShelf" format="2">
  <advance width="1066"/>
  <unicode hex="02FE"/>
  <outline>
    <contour>
      <point x="1021" y="-255" type="curve"/>
      <point x="994" y="-223" type="line"/>
      <point x="175" y="-223" type="line"/>
      <point x="206" y="-7" type="line"/>
      <point x="174" y="20" type="line"/>
      <point x="145" y="14"/>
      <point x="66" y="-22"/>
      <point x="42" y="-33" type="curve"/>
      <point x="0" y="-341" type="line"/>
      <point x="29" y="-372" type="line"/>
      <point x="959" y="-372" type="line"/>
      <point x="971" y="-353"/>
      <point x="1010" y="-283"/>
    </contour>
  </outline>
</glyph>
<glyph name="CombCircum" format="2">
  <unicode hex="0302"/>
  <anchor x="-312" y="1510" name="U"/>
  <anchor x="-385" y="1000" name="_U"/>
  <outline>
    <contour>
      <point x="-42" y="1081" type="curve"/>
      <point x="-245" y="1462" type="line"/>
      <point x="-397" y="1462" type="line"/>
      <point x="-701" y="1081" type="line"/>
      <point x="-688" y="1054"/>
      <point x="-651" y="1024"/>
      <point x="-639" y="1016" type="curve"/>
      <point x="-347" y="1231" type="line"/>
      <point x="-118" y="1016" type="line"/>
      <point x="-97" y="1026"/>
      <point x="-60" y="1054"/>
    </contour>
  </outline>
</glyph>
<glyph name="CombOverline" format="2">
  <unicode hex="0305"/>
  <anchor x="-336" y="1370" name="U"/>
  <anchor x="-388" y="1000" name="_U"/>
  <outline>
    <contour>
      <point x="195" y="1268" type="curve"/>
      <point x="166" y="1303" type="line"/>
      <point x="-840" y="1303" type="line"/>
      <point x="-855" y="1276"/>
      <point x="-899" y="1198"/>
      <point x="-909" y="1171" type="curve"/>
      <point x="-883" y="1137" type="line"/>
      <point x="125" y="1137" type="line"/>
      <point x="138" y="1159"/>
      <point x="186" y="1239"/>
    </contour>
  </outline>
</glyph>
<glyph name="CombDiaer" format="2">
  <unicode hex="0308"/>
  <anchor x="-336" y="1420" name="U"/>
  <anchor x="-388" y="1000" name="_U"/>
  <outline>
    <contour>
      <point x="-25" y="1272" type="curve" smooth="yes"/>
      <point x="-25" y="1327"/>
      <point x="-58" y="1383"/>
      <point x="-129" y="1383" type="curve" smooth="yes"/>
      <point x="-235" y="1383"/>
      <point x="-298" y="1267"/>
      <point x="-298" y="1186" type="curve" smooth="yes"/>
      <point x="-298" y="1131"/>
      <point x="-267" y="1076"/>
      <point x="-196" y="1076" type="curve" smooth="yes"/>
      <point x="-89" y="1076"/>
      <point x="-25" y="1188"/>
    </contour>
    <contour>
      <point x="-417" y="1272" type="curve" smooth="yes"/>
      <point x="-417" y="1327"/>
      <point x="-450" y="1383"/>
      <point x="-521" y="1383" type="curve" smooth="yes"/>
      <point x="-627" y="1383"/>
      <point x="-690" y="1267"/>
      <point x="-690" y="1186" type="curve" smooth="yes"/>
      <point x="-690" y="1131"/>
      <point x="-659" y="1076"/>
      <point x="-588" y="1076" type="curve" smooth="yes"/>
      <point x="-481" y="1076"/>
      <point x="-417" y="1188"/>
    </contour>
  </outline>
</glyph>
<glyph name="CombHookAbv" format="2">
  <unicode hex="0309"/>
  <anchor x="-349" y="1320" name="U"/>
  <anchor x="-393" y="1000" name="_U"/>
  <outline>
    <contour>
      <point x="-151" y="1334" type="curve" smooth="yes"/>
      <point x="-151" y="1397"/>
      <point x="-198" y="1443"/>
      <point x="-314" y="1443" type="curve" smooth="yes"/>
      <point x="-445" y="1443"/>
      <point x="-553" y="1354"/>
      <point x="-551" y="1263" type="curve"/>
      <point x="-533" y="1241" type="line"/>
      <point x="-500" y="1243"/>
      <point x="-406" y="1272"/>
      <point x="-385" y="1283" type="curve"/>
      <point x="-401" y="1318"/>
      <point x="-382" y="1356"/>
      <point x="-346" y="1356" type="curve" smooth="yes"/>
      <point x="-318" y="1356"/>
      <point x="-308" y="1342"/>
      <point x="-308" y="1315" type="curve" smooth="yes"/>
      <point x="-308" y="1227"/>
      <point x="-483" y="1196"/>
      <point x="-483" y="1122" type="curve" smooth="yes"/>
      <point x="-483" y="1089"/>
      <point x="-464" y="1054"/>
      <point x="-392" y="1014" type="curve"/>
      <point x="-372" y="1014"/>
      <point x="-301" y="1032"/>
      <point x="-281" y="1044" type="curve"/>
      <point x="-311" y="1064"/>
      <point x="-335" y="1090"/>
      <point x="-335" y="1114" type="curve" smooth="yes"/>
      <point x="-335" y="1181"/>
      <point x="-151" y="1211"/>
    </contour>
  </outline>
</glyph>
<glyph name="CombDblAcute" format="2">
  <unicode hex="030B"/>
  <anchor x="-249" y="1524" name="U"/>
  <anchor x="-394" y="1000" name="_U"/>
  <outline>
    <contour>
      <point x="113" y="1383" type="line"/>
      <point x="87" y="1454" type="line"/>
      <point x="67" y="1464"/>
      <point x="-47" y="1492"/>
      <point x="-73" y="1496" type="curve"/>
      <point x="-293" y="1072" type="line"/>
      <point x="-275" y="1056"/>
      <point x="-226" y="1024"/>
      <point x="-206" y="1022" type="curve"/>
    </contour>
    <contour>
      <point x="-187" y="1383" type="line"/>
      <point x="-213" y="1454" type="line"/>
      <point x="-233" y="1464"/>
      <point x="-347" y="1492"/>
      <point x="-373" y="1496" type="curve"/>
      <point x="-593" y="1072" type="line"/>
      <point x="-575" y="1056"/>
      <point x="-526" y="1024"/>
      <point x="-506" y="1022" type="curve"/>
    </contour>
  </outline>
</glyph>
<glyph name="CombVertLineAbv" format="2">
  <unicode hex="030D"/>
  <anchor x="-344" y="1320" name="U"/>
  <anchor x="-388" y="1000" name="_U"/>
  <outline>
    <contour>
      <point x="-306" y="1058" type="curve"/>
      <point x="-252" y="1446" type="line"/>
      <point x="-282" y="1479" type="line"/>
      <point x="-306" y="1474"/>
      <point x="-384" y="1440"/>
      <point x="-407" y="1430" type="curve"/>
      <point x="-460" y="1040" type="line"/>
      <point x="-430" y="1009" type="line"/>
      <point x="-406" y="1015"/>
      <point x="-331" y="1045"/>
    </contour>
  </outline>
</glyph>
<glyph name="CombTrndCommaAbv" format="2">
  <unicode hex="0312"/>
  <anchor x="-347" y="1320" name="U"/>
  <anchor x="-392" y="1000" name="_U"/>
  <outline>
    <contour>
      <point x="-485" y="1263" type="curve" smooth="yes"/>
      <point x="-519" y="1163"/>
      <point x="-499" y="1049"/>
      <point x="-439" y="1019" type="curve"/>
      <point x="-371" y="1017"/>
      <point x="-208" y="1076"/>
      <point x="-156" y="1104" type="curve"/>
      <point x="-161" y="1184" type="line"/>
      <point x="-272" y="1184"/>
      <point x="-303" y="1251"/>
      <point x="-288" y="1313" type="curve" smooth="yes"/>
      <point x="-276" y="1362"/>
      <point x="-248" y="1401"/>
      <point x="-182" y="1460" type="curve"/>
      <point x="-240" y="1514" type="line"/>
      <point x="-361" y="1451"/>
      <point x="-456" y="1349"/>
    </contour>
  </outline>
</glyph>
<glyph name="CombRevCommaAbv" format="2">
  <unicode hex="0314"/>
  <anchor x="-332" y="1422" name="U"/>
  <anchor x="-389" y="1000" name="_U"/>
  <outline>
    <contour>
      <point x="-518" y="1281" type="curve" smooth="yes"/>
      <point x="-519" y="1175"/>
      <point x="-474" y="1077"/>
      <point x="-323" y="1003" type="curve"/>
      <point x="-264" y="1053" type="line"/>
      <point x="-319" y="1111"/>
      <point x="-329" y="1159"/>
      <point x="-324" y="1208" type="curve" smooth="yes"/>
      <point x="-318" y="1271"/>
      <point x="-266" y="1336"/>
      <point x="-164" y="1337" type="curve"/>
      <point x="-139" y="1407" type="line"/>
      <point x="-191" y="1435"/>
      <point x="-314" y="1494"/>
      <point x="-392" y="1492" type="curve"/>
      <point x="-455" y="1461"/>
      <point x="-517" y="1387"/>
    </contour>
  </outline>
</glyph>
<glyph name="CombAcuteBlw" format="2">
  <unicode hex="0317"/>
  <anchor x="-576" y="-600" name="L"/>
  <anchor x="-500" y="-100" name="_L"/>
  <outline>
    <contour>
      <point x="-272" y="-235" type="line"/>
      <point x="-289" y="-215"/>
      <point x="-396" y="-130"/>
      <point x="-419" y="-114" type="curve"/>
      <point x="-845" y="-464" type="line"/>
      <point x="-833" y="-491"/>
      <point x="-806" y="-534"/>
      <point x="-787" y="-546" type="curve"/>
      <point x="-272" y="-302" type="line"/>
    </contour>
  </outline>
</glyph>
<glyph name="CombLftTackBlw" format="2">
  <unicode hex="0318"/>
  <anchor x="-608" y="-600" name="L"/>
  <anchor x="-540" y="-100" name="_L"/>
  <outline>
    <contour>
      <point x="-387" y="-291" type="curve"/>
      <point x="-400" y="-254" type="line"/>
      <point x="-727" y="-254" type="line"/>
      <point x="-743" y="-277"/>
      <point x="-773" y="-332"/>
      <point x="-782" y="-355" type="curve"/>
      <point x="-755" y="-389" type="line"/>
      <point x="-435" y="-390" type="line"/>
      <point x="-422" y="-369"/>
      <point x="-395" y="-314"/>
    </contour>
    <contour>
      <point x="-413" y="-519" type="curve"/>
      <point x="-360" y="-116" type="line"/>
      <point x="-390" y="-84" type="line"/>
      <point x="-414" y="-90"/>
      <point x="-473" y="-113"/>
      <point x="-498" y="-127" type="curve"/>
      <point x="-551" y="-528" type="line"/>
      <point x="-520" y="-562" type="line"/>
      <point x="-496" y="-557"/>
      <point x="-437" y="-529"/>
    </contour>
  </outline>
</glyph>
<glyph name="CombLftAngAbv" format="2">
  <advance width="582"/>
  <unicode hex="031A"/>
  <outline>
    <contour>
      <point x="678" y="1383" type="curve"/>
      <point x="650" y="1420" type="line"/>
      <point x="196" y="1420" type="line"/>
      <point x="179" y="1403"/>
      <point x="137" y="1341"/>
      <point x="130" y="1328" type="curve"/>
      <point x="158" y="1285" type="line"/>
      <point x="623" y="1284" type="line"/>
      <point x="636" y="1305"/>
      <point x="670" y="1360"/>
    </contour>
    <contour>
      <point x="628" y="1025" type="curve"/>
      <point x="680" y="1388" type="line"/>
      <point x="650" y="1420" type="line"/>
      <point x="626" y="1414"/>
      <point x="565" y="1391"/>
      <point x="540" y="1377" type="curve"/>
      <point x="489" y="1016" type="line"/>
      <point x="524" y="972" type="line"/>
      <point x="548" y="977"/>
      <point x="604" y="1011"/>
    </contour>
  </outline>
</glyph>
<glyph name="CombLftHalfRingBlw" format="2">
  <unicode hex="031C"/>
  <anchor x="-616" y="-580" name="L"/>
  <anchor x="-547" y="-100" name="_L"/>
  <outline>
    <contour>
      <point x="-494" y="-442" type="line"/>
      <point x="-556" y="-447"/>
      <point x="-635" y="-424"/>
      <point x="-620" y="-329" type="curve" smooth="yes"/>
      <point x="-607" y="-247"/>
      <point x="-529" y="-227"/>
      <point x="-472" y="-235" type="curve"/>
      <point x="-447" y="-116" type="line"/>
      <point x="-607" y="-95"/>
      <point x="-730" y="-213"/>
      <point x="-746" y="-329" type="curve" smooth="yes"/>
      <point x="-766" y="-473"/>
      <point x="-657" y="-576"/>
      <point x="-515" y="-558" type="curve"/>
    </contour>
  </outline>
</glyph>
<glyph name="CombPlusSgnBlw" format="2">
  <unicode hex="031F"/>
  <anchor x="-610" y="-600" name="L"/>
  <anchor x="-541" y="-100" name="_L"/>
  <outline>
    <contour>
      <point x="-464" y="-106" type="line"/>
      <point x="-494" y="-73" type="line"/>
      <point x="-521" y="-79"/>
      <point x="-590" y="-100"/>
      <point x="-617" y="-110" type="curve"/>
      <point x="-680" y="-559" type="line"/>
      <point x="-650" y="-590" type="line"/>
      <point x="-626" y="-584"/>
      <point x="-548" y="-564"/>
      <point x="-523" y="-551" type="curve"/>
    </contour>
    <contour>
      <point x="-271" y="-282" type="curve"/>
      <point x="-300" y="-247" type="line"/>
      <point x="-812" y="-249" type="line"/>
      <point x="-829" y="-272"/>
      <point x="-862" y="-342"/>
      <point x="-871" y="-365" type="curve"/>
      <point x="-844" y="-399" type="line"/>
      <point x="-327" y="-399" type="line"/>
      <point x="-314" y="-377"/>
      <point x="-279" y="-305"/>
    </contour>
  </outline>
</glyph>
<glyph name="CombCommaBlw" format="2">
  <unicode hex="0326"/>
  <anchor x="-608" y="-600" name="L"/>
  <anchor x="-540" y="-100" name="_L"/>
  <outline>
    <contour>
      <point x="-428" y="-289" type="curve"/>
      <point x="-418" y="-222"/>
      <point x="-420" y="-150"/>
      <point x="-492" y="-100" type="curve"/>
      <point x="-537" y="-94"/>
      <point x="-722" y="-164"/>
      <point x="-755" y="-200" type="curve"/>
      <point x="-745" y="-270" type="line"/>
      <point x="-671" y="-271"/>
      <point x="-629" y="-307"/>
      <point x="-643" y="-374" type="curve" smooth="yes"/>
      <point x="-654" y="-428"/>
      <point x="-701" y="-486"/>
      <point x="-776" y="-546" type="curve"/>
      <point x="-716" y="-602" type="line"/>
      <point x="-582" y="-519"/>
      <point x="-443" y="-389"/>
    </contour>
  </outline>
</glyph>
<glyph name="CombOgonek" format="2">
  <unicode hex="0328"/>
  <anchor x="-621" y="-600" name="L"/>
  <anchor x="-489" y="0" name="_O"/>
  <outline>
    <contour>
      <point x="-325" y="-291" type="curve"/>
      <point x="-344" y="-216" type="line"/>
      <point x="-399" y="-267"/>
      <point x="-456" y="-285"/>
      <point x="-485" y="-285" type="curve" smooth="yes"/>
      <point x="-524" y="-285"/>
      <point x="-552" y="-257"/>
      <point x="-552" y="-212" type="curve" smooth="yes"/>
      <point x="-552" y="-147"/>
      <point x="-477" y="-54"/>
      <point x="-367" y="19" type="curve"/>
      <point x="-487" y="25" type="line"/>
      <point x="-636" y="-52"/>
      <point x="-801" y="-178"/>
      <point x="-801" y="-312" type="curve" smooth="yes"/>
      <point x="-801" y="-425"/>
      <point x="-694" y="-446"/>
      <point x="-632" y="-446" type="curve" smooth="yes"/>
      <point x="-517" y="-446"/>
      <point x="-387" y="-363"/>
    </contour>
  </outline>
</glyph>
<glyph name="CombInvDblArchBlw" format="2">
  <unicode hex="032B"/>
  <anchor x="-590" y="-600" name="L"/>
  <anchor x="-520" y="-100" name="_L"/>
  <outline>
    <contour>
      <point x="-386" y="-490" type="curve" smooth="yes"/>
      <point x="-292" y="-490"/>
      <point x="-196" y="-412"/>
      <point x="-196" y="-290" type="curve" smooth="yes"/>
      <point x="-196" y="-237"/>
      <point x="-215" y="-172"/>
      <point x="-264" y="-113" type="curve"/>
      <point x="-273" y="-115"/>
      <point x="-324" y="-132"/>
      <point x="-335" y="-136" type="curve"/>
      <point x="-326" y="-172"/>
      <point x="-322" y="-207"/>
      <point x="-322" y="-237" type="curve" smooth="yes"/>
      <point x="-322" y="-286"/>
      <point x="-334" y="-370"/>
      <point x="-409" y="-370" type="curve" smooth="yes"/>
      <point x="-454" y="-370"/>
      <point x="-484" y="-332"/>
      <point x="-484" y="-275" type="curve" smooth="yes"/>
      <point x="-484" y="-260"/>
      <point x="-481" y="-246"/>
      <point x="-476" y="-231" type="curve"/>
      <point x="-483" y="-220"/>
      <point x="-493" y="-207"/>
      <point x="-500" y="-198" type="curve"/>
      <point x="-519" y="-204"/>
      <point x="-586" y="-226"/>
      <point x="-601" y="-231" type="curve"/>
      <point x="-601" y="-234"/>
      <point x="-601" y="-236"/>
      <point x="-601" y="-239" type="curve" smooth="yes"/>
      <point x="-601" y="-313"/>
      <point x="-653" y="-370"/>
      <point x="-711" y="-370" type="curve" smooth="yes"/>
      <point x="-749" y="-370"/>
      <point x="-768" y="-340"/>
      <point x="-768" y="-291" type="curve" smooth="yes"/>
      <point x="-768" y="-239"/>
      <point x="-742" y="-182"/>
      <point x="-718" y="-136" type="curve"/>
      <point x="-728" y="-132"/>
      <point x="-774" y="-115"/>
      <point x="-782" y="-113" type="curve"/>
      <point x="-845" y="-171"/>
      <point x="-903" y="-239"/>
      <point x="-903" y="-326" type="curve" smooth="yes"/>
      <point x="-903" y="-419"/>
      <point x="-827" y="-490"/>
      <point x="-748" y="-490" type="curve" smooth="yes"/>
      <point x="-658" y="-490"/>
      <point x="-598" y="-427"/>
      <point x="-554" y="-345" type="curve"/>
      <point x="-535" y="-427"/>
      <point x="-480" y="-490"/>
    </contour>
  </outline>
</glyph>
<glyph name="CombCircumBlw" format="2">
  <unicode hex="032D"/>
  <anchor x="-607" y="-600" name="L"/>
  <anchor x="-539" y="-100" name="_L"/>
  <outline>
    <contour>
      <point x="-264" y="-528" type="curve"/>
      <point x="-467" y="-147" type="line"/>
      <point x="-619" y="-147" type="line"/>
      <point x="-923" y="-528" type="line"/>
      <point x="-910" y="-555"/>
      <point x="-873" y="-585"/>
      <point x="-861" y="-593" type="curve"/>
      <point x="-569" y="-378" type="line"/>
      <point x="-340" y="-593" type="line"/>
      <point x="-319" y="-583"/>
      <point x="-282" y="-555"/>
    </contour>
  </outline>
</glyph>
<glyph name="CombShortStrkOverlay" format="2">
  <unicode hex="0335"/>
  <outline>
    <contour>
      <point x="-102" y="504" type="curve"/>
      <point x="-131" y="539" type="line"/>
      <point x="-688" y="539" type="line"/>
      <point x="-703" y="512"/>
      <point x="-747" y="434"/>
      <point x="-757" y="407" type="curve"/>
      <point x="-731" y="373" type="line"/>
      <point x="-172" y="373" type="line"/>
      <point x="-159" y="395"/>
      <point x="-111" y="475"/>
    </contour>
  </outline>
</glyph>
<glyph name="CombSqrBlw" format="2">
  <unicode hex="033B"/>
  <anchor x="-610" y="-600" name="L"/>
  <anchor x="-541" y="-100" name="_L"/>
  <outline>
    <contour>
      <point x="-225" y="-166" type="line"/>
      <point x="-259" y="-124" type="line"/>
      <point x="-776" y="-124" type="line"/>
      <point x="-793" y="-137"/>
      <point x="-847" y="-173"/>
      <point x="-854" y="-186" type="curve"/>
      <point x="-903" y="-528" type="line"/>
      <point x="-868" y="-574" type="line"/>
      <point x="-359" y="-574" type="line"/>
      <point x="-328" y="-559"/>
      <point x="-295" y="-530"/>
      <point x="-270" y="-504" type="curve"/>
    </contour>
    <contour>
      <point x="-376" y="-260" type="line"/>
      <point x="-400" y="-438" type="line"/>
      <point x="-750" y="-438" type="line"/>
      <point x="-727" y="-259" type="line"/>
    </contour>
  </outline>
</glyph>
<glyph name="CombDblOverline" format="2">
  <unicode hex="033F"/>
  <anchor x="-291" y="1680" name="U"/>
  <anchor x="-388" y="1000" name="_U"/>
  <outline>
    <contour>
      <point x="190" y="1265" type="curve"/>
      <point x="161" y="1300" type="line"/>
      <point x="-845" y="1300" type="line"/>
      <point x="-860" y="1273"/>
      <point x="-904" y="1195"/>
      <point x="-914" y="1168" type="curve"/>
      <point x="-888" y="1134" type="line"/>
      <point x="120" y="1134" type="line"/>
      <point x="133" y="1156"/>
      <point x="181" y="1236"/>
    </contour>
    <contour>
      <point x="226" y="1515" type="curve"/>
      <point x="197" y="1550" type="line"/>
      <point x="-809" y="1550" type="line"/>
      <point x="-824" y="1523"/>
      <point x="-868" y="1445"/>
      <point x="-878" y="1418" type="curve"/>
      <point x="-852" y="1384" type="line"/>
      <point x="156" y="1384" type="line"/>
      <point x="169" y="1406"/>
      <point x="217" y="1486"/>
    </contour>
  </outline>
</glyph>
<glyph name="CombGrPeris" format="2">
  <unicode hex="0342"/>
  <anchor x="-370" y="1050" name="_U"/>
  <outline>
    <contour>
      <point x="34" y="1342" type="curve"/>
      <point x="-51" y="1379" type="line"/>
      <point x="-111" y="1295"/>
      <point x="-152" y="1275"/>
      <point x="-199" y="1275" type="curve" smooth="yes"/>
      <point x="-264" y="1275"/>
      <point x="-352" y="1374"/>
      <point x="-450" y="1374" type="curve" smooth="yes"/>
      <point x="-582" y="1374"/>
      <point x="-686" y="1213"/>
      <point x="-741" y="1107" type="curve"/>
      <point x="-658" y="1068" type="line"/>
      <point x="-603" y="1142"/>
      <point x="-558" y="1177"/>
      <point x="-511" y="1177" type="curve" smooth="yes"/>
      <point x="-431" y="1177"/>
      <point x="-350" y="1078"/>
      <point x="-256" y="1078" type="curve" smooth="yes"/>
      <point x="-122" y="1078"/>
      <point x="-22" y="1235"/>
    </contour>
  </outline>
</glyph>
<glyph name="CombGrKoronis" format="2">
  <unicode hex="0343"/>
  <anchor x="-370" y="1050" name="_U"/>
  <outline>
    <contour>
      <point x="-130" y="1344" type="curve" smooth="yes"/>
      <point x="-106" y="1450"/>
      <point x="-166" y="1535"/>
      <point x="-226" y="1558" type="curve"/>
      <point x="-263" y="1562"/>
      <point x="-434" y="1500"/>
      <point x="-477" y="1464" type="curve"/>
      <point x="-454" y="1382" type="line"/>
      <point x="-353" y="1385"/>
      <point x="-337" y="1330"/>
      <point x="-350" y="1269" type="curve" smooth="yes"/>
      <point x="-361" y="1218"/>
      <point x="-393" y="1168"/>
      <point x="-437" y="1129" type="curve"/>
      <point x="-370" y="1063" type="line"/>
      <point x="-223" y="1156"/>
      <point x="-150" y="1255"/>
    </contour>
  </outline>
</glyph>
<glyph name="CombEqSgnBlw" format="2">
  <unicode hex="0347"/>
  <anchor x="-608" y="-600" name="L"/>
  <anchor x="-540" y="-100" name="_L"/>
  <outline>
    <contour>
      <point x="-288" y="-174" type="curve"/>
      <point x="-316" y="-138" type="line"/>
      <point x="-761" y="-138" type="line"/>
      <point x="-777" y="-164"/>
      <point x="-804" y="-203"/>
      <point x="-815" y="-230" type="curve"/>
      <point x="-788" y="-263" type="line"/>
      <point x="-340" y="-263" type="line"/>
      <point x="-326" y="-242"/>
      <point x="-298" y="-200"/>
    </contour>
    <contour>
      <point x="-322" y="-374" type="curve"/>
      <point x="-350" y="-338" type="line"/>
      <point x="-795" y="-338" type="line"/>
      <point x="-811" y="-364"/>
      <point x="-838" y="-403"/>
      <point x="-849" y="-430" type="curve"/>
      <point x="-822" y="-463" type="line"/>
      <point x="-374" y="-463" type="line"/>
      <point x="-360" y="-442"/>
      <point x="-332" y="-400"/>
    </contour>
  </outline>
</glyph>
<glyph name="CombRtArrwhdAbv" format="2">
  <unicode hex="0350"/>
  <anchor x="-350" y="1422" name="U"/>
  <anchor x="-409" y="1000" name="_U"/>
  <outline>
    <contour>
      <point x="-5" y="1310" type="curve"/>
      <point x="-40" y="1344" type="line"/>
      <point x="-508" y="1552" type="line"/>
      <point x="-544" y="1532"/>
      <point x="-572" y="1507"/>
      <point x="-597" y="1485" type="curve"/>
      <point x="-586" y="1436" type="line"/>
      <point x="-51" y="1205" type="line"/>
      <point x="-39" y="1227"/>
      <point x="-13" y="1288"/>
    </contour>
    <contour>
      <point x="-5" y="1310" type="curve"/>
      <point x="-40" y="1344" type="line"/>
      <point x="-646" y="1108" type="line"/>
      <point x="-655" y="1088"/>
      <point x="-682" y="1021"/>
      <point x="-690" y="998" type="curve"/>
      <point x="-661" y="968" type="line"/>
      <point x="-51" y="1205" type="line"/>
      <point x="-39" y="1227"/>
      <point x="-13" y="1288"/>
    </contour>
  </outline>
</glyph>
<glyph name="CombRtArrwhdBlw" format="2">
  <unicode hex="0355"/>
  <anchor x="-609" y="-600" name="L"/>
  <anchor x="-544" y="-100" name="_L"/>
  <outline>
    <contour>
      <point x="-264" y="-337" type="curve"/>
      <point x="-299" y="-303" type="line"/>
      <point x="-767" y="-95" type="line"/>
      <point x="-803" y="-115"/>
      <point x="-831" y="-140"/>
      <point x="-856" y="-162" type="curve"/>
      <point x="-845" y="-211" type="line"/>
      <point x="-310" y="-442" type="line"/>
      <point x="-298" y="-420"/>
      <point x="-272" y="-359"/>
    </contour>
    <contour>
      <point x="-264" y="-337" type="curve"/>
      <point x="-299" y="-303" type="line"/>
      <point x="-905" y="-539" type="line"/>
      <point x="-914" y="-559"/>
      <point x="-941" y="-626"/>
      <point x="-949" y="-649" type="curve"/>
      <point x="-920" y="-679" type="line"/>
      <point x="-310" y="-442" type="line"/>
      <point x="-298" y="-420"/>
      <point x="-272" y="-359"/>
    </contour>
  </outline>
</glyph>
<glyph name="CombRtArrwhdUpArrwhdBlw" format="2">
  <unicode hex="0356"/>
  <anchor x="-609" y="-600" name="L"/>
  <anchor x="-544" y="-100" name="_L"/>
  <outline>
    <contour>
      <point x="-467" y="-337" type="curve"/>
      <point x="-502" y="-303" type="line"/>
      <point x="-946" y="-105" type="line"/>
      <point x="-982" y="-125"/>
      <point x="-1010" y="-150"/>
      <point x="-1035" y="-172" type="curve"/>
      <point x="-1024" y="-221" type="line"/>
      <point x="-513" y="-442" type="line"/>
      <point x="-501" y="-420"/>
      <point x="-475" y="-359"/>
    </contour>
    <contour>
      <point x="-467" y="-337" type="curve"/>
      <point x="-502" y="-303" type="line"/>
      <point x="-1078" y="-530" type="line"/>
      <point x="-1087" y="-550"/>
      <point x="-1114" y="-617"/>
      <point x="-1122" y="-640" type="curve"/>
      <point x="-1093" y="-670" type="line"/>
      <point x="-513" y="-442" type="line"/>
      <point x="-501" y="-420"/>
      <point x="-475" y="-359"/>
    </contour>
    <contour>
      <point x="-207" y="-102" type="line"/>
      <point x="-232" y="-113"/>
      <point x="-300" y="-138"/>
      <point x="-325" y="-158" type="curve"/>
      <point x="-611" y="-660" type="line"/>
      <point x="-592" y="-682" type="line"/>
      <point x="-575" y="-675"/>
      <point x="-492" y="-644"/>
      <point x="-472" y="-627" type="curve"/>
      <point x="-295" y="-302" type="line"/>
      <point x="-178" y="-665" type="line"/>
      <point x="-152" y="-684" type="line"/>
      <point x="-121" y="-673"/>
      <point x="-71" y="-643"/>
      <point x="-49" y="-627" type="curve"/>
    </contour>
  </outline>
</glyph>
<glyph name="CombRtDotAbv" format="2">
  <advance width="188"/>
  <unicode hex="0358"/>
  <anchor x="90" y="870" name="R_"/>
  <anchor x="320" y="1320" name="U"/>
  <outline>
    <contour>
      <point x="364" y="1252" type="curve" smooth="yes"/>
      <point x="364" y="1307"/>
      <point x="331" y="1363"/>
      <point x="260" y="1363" type="curve" smooth="yes"/>
      <point x="154" y="1363"/>
      <point x="91" y="1247"/>
      <point x="91" y="1166" type="curve" smooth="yes"/>
      <point x="91" y="1111"/>
      <point x="122" y="1056"/>
      <point x="193" y="1056" type="curve" smooth="yes"/>
      <point x="300" y="1056"/>
      <point x="364" y="1168"/>
    </contour>
  </outline>
</glyph>
<glyph name="CombDblBreveBlw" format="2">
  <unicode hex="035C"/>
  <anchor x="-185" y="-910" name="L"/>
  <anchor x="135" y="1560" name="U"/>
  <outline>
    <contour>
      <point x="539" y="-591" type="curve"/>
      <point x="528" y="-567"/>
      <point x="486" y="-530"/>
      <point x="453" y="-520" type="curve"/>
      <point x="240" y="-669"/>
      <point x="-1" y="-696"/>
      <point x="-201" y="-696" type="curve" smooth="yes"/>
      <point x="-390" y="-696"/>
      <point x="-622" y="-679"/>
      <point x="-787" y="-520" type="curve"/>
      <point x="-823" y="-530"/>
      <point x="-860" y="-557"/>
      <point x="-880" y="-591" type="curve"/>
      <point x="-783" y="-782"/>
      <point x="-540" y="-905"/>
      <point x="-212" y="-905" type="curve" smooth="yes"/>
      <point x="97" y="-905"/>
      <point x="384" y="-789"/>
    </contour>
  </outline>
</glyph>
<glyph name="CombDblBreve" format="2">
  <unicode hex="035D"/>
  <anchor x="-120" y="-100" name="L"/>
  <anchor x="177" y="1930" name="U"/>
  <outline>
    <contour>
      <point x="928" y="1881" type="curve"/>
      <point x="917" y="1905"/>
      <point x="875" y="1942"/>
      <point x="842" y="1952" type="curve"/>
      <point x="629" y="1803"/>
      <point x="338" y="1776"/>
      <point x="138" y="1776" type="curve" smooth="yes"/>
      <point x="-51" y="1776"/>
      <point x="-333" y="1793"/>
      <point x="-498" y="1952" type="curve"/>
      <point x="-534" y="1942"/>
      <point x="-571" y="1915"/>
      <point x="-591" y="1881" type="curve"/>
      <point x="-494" y="1690"/>
      <point x="-201" y="1567"/>
      <point x="127" y="1567" type="curve" smooth="yes"/>
      <point x="436" y="1567"/>
      <point x="773" y="1683"/>
    </contour>
  </outline>
</glyph>
<glyph name="CombDblMacronBlw" format="2">
  <unicode hex="035F"/>
  <anchor x="-157" y="-800" name="L"/>
  <anchor x="80" y="1050" name="U"/>
  <outline>
    <contour>
      <point x="627" y="-614" type="curve"/>
      <point x="598" y="-579" type="line"/>
      <point x="-889" y="-579" type="line"/>
      <point x="-904" y="-606"/>
      <point x="-948" y="-684"/>
      <point x="-958" y="-711" type="curve"/>
      <point x="-932" y="-745" type="line"/>
      <point x="557" y="-745" type="line"/>
      <point x="570" y="-723"/>
      <point x="618" y="-643"/>
    </contour>
  </outline>
</glyph>
<glyph name="CombDblTilde" format="2">
  <unicode hex="0360"/>
  <anchor x="-70" y="-100" name="L"/>
  <anchor x="177" y="1930" name="U"/>
  <outline>
    <contour>
      <point x="869" y="1821" type="curve"/>
      <point x="783" y="1888" type="line"/>
      <point x="700" y="1792"/>
      <point x="582" y="1758"/>
      <point x="444" y="1758" type="curve" smooth="yes"/>
      <point x="314" y="1758"/>
      <point x="112" y="1898"/>
      <point x="-75" y="1898" type="curve" smooth="yes"/>
      <point x="-286" y="1898"/>
      <point x="-485" y="1780"/>
      <point x="-588" y="1634" type="curve"/>
      <point x="-505" y="1567" type="line"/>
      <point x="-416" y="1659"/>
      <point x="-317" y="1697"/>
      <point x="-176" y="1697" type="curve" smooth="yes"/>
      <point x="-25" y="1697"/>
      <point x="172" y="1557"/>
      <point x="345" y="1557" type="curve" smooth="yes"/>
      <point x="577" y="1557"/>
      <point x="769" y="1685"/>
    </contour>
  </outline>
</glyph>
<glyph name="CombDblInvBreve" format="2">
  <unicode hex="0361"/>
  <anchor x="-90" y="-100" name="L"/>
  <anchor x="177" y="1930" name="U"/>
  <outline>
    <contour>
      <point x="-579" y="1638" type="curve"/>
      <point x="-568" y="1614"/>
      <point x="-526" y="1577"/>
      <point x="-493" y="1567" type="curve"/>
      <point x="-280" y="1716"/>
      <point x="-39" y="1743"/>
      <point x="161" y="1743" type="curve" smooth="yes"/>
      <point x="350" y="1743"/>
      <point x="582" y="1726"/>
      <point x="747" y="1567" type="curve"/>
      <point x="783" y="1577"/>
      <point x="820" y="1604"/>
      <point x="840" y="1638" type="curve"/>
      <point x="743" y="1829"/>
      <point x="500" y="1952"/>
      <point x="172" y="1952" type="curve" smooth="yes"/>
      <point x="-137" y="1952"/>
      <point x="-424" y="1836"/>
    </contour>
  </outline>
</glyph>
<glyph name="CombDblRtArrwBlw" format="2">
  <unicode hex="0362"/>
  <anchor x="-159" y="-600" name="L"/>
  <outline>
    <contour>
      <point x="526" y="-286" type="curve"/>
      <point x="509" y="-241" type="line"/>
      <point x="-844" y="-241" type="line"/>
      <point x="-860" y="-264"/>
      <point x="-883" y="-300"/>
      <point x="-894" y="-327" type="curve"/>
      <point x="-869" y="-361" type="line"/>
      <point x="495" y="-361" type="line"/>
      <point x="509" y="-340"/>
      <point x="517" y="-312"/>
    </contour>
    <contour>
      <point x="491" y="-301" type="line"/>
      <point x="372" y="-486" type="line"/>
      <point x="440" y="-522" type="line"/>
      <point x="636" y="-301" type="line"/>
      <point x="495" y="-80" type="line"/>
      <point x="417" y="-116" type="line"/>
    </contour>
  </outline>
</glyph>
<glyph name="CombLtnSmU" format="2">
  <unicode hex="0367"/>
  <anchor x="-309" y="1520" name="U"/>
  <anchor x="-385" y="1000" name="_U"/>
  <outline>
    <contour>
      <point x="-279" y="1374" type="curve" smooth="yes"/>
      <point x="-279" y="1335"/>
      <point x="-308" y="1237"/>
      <point x="-308" y="1173" type="curve" smooth="yes"/>
      <point x="-308" y="1071"/>
      <point x="-280" y="1028"/>
      <point x="-241" y="1028" type="curve" smooth="yes"/>
      <point x="-196" y="1028"/>
      <point x="-138" y="1063"/>
      <point x="-79" y="1097" type="curve"/>
      <point x="-97" y="1144" type="line"/>
      <point x="-128" y="1132"/>
      <point x="-144" y="1129"/>
      <point x="-152" y="1129" type="curve" smooth="yes"/>
      <point x="-162" y="1129"/>
      <point x="-170" y="1138"/>
      <point x="-170" y="1180" type="curve" smooth="yes"/>
      <point x="-170" y="1245"/>
      <point x="-132" y="1378"/>
      <point x="-132" y="1430" type="curve" smooth="yes"/>
      <point x="-132" y="1466"/>
      <point x="-142" y="1484"/>
      <point x="-170" y="1484" type="curve" smooth="yes"/>
      <point x="-220" y="1484"/>
      <point x="-307" y="1449"/>
      <point x="-352" y="1435" type="curve"/>
      <point x="-333" y="1385" type="line"/>
      <point x="-319" y="1389"/>
      <point x="-301" y="1394"/>
      <point x="-295" y="1394" type="curve" smooth="yes"/>
      <point x="-287" y="1394"/>
      <point x="-279" y="1393"/>
    </contour>
    <contour>
      <point x="-398" y="1430" type="curve" smooth="yes"/>
      <point x="-398" y="1466"/>
      <point x="-408" y="1484"/>
      <point x="-436" y="1484" type="curve" smooth="yes"/>
      <point x="-474" y="1484"/>
      <point x="-572" y="1450"/>
      <point x="-618" y="1435" type="curve"/>
      <point x="-601" y="1385" type="line"/>
      <point x="-587" y="1389"/>
      <point x="-565" y="1394"/>
      <point x="-559" y="1394" type="curve" smooth="yes"/>
      <point x="-551" y="1394"/>
      <point x="-544" y="1393"/>
      <point x="-544" y="1374" type="curve" smooth="yes"/>
      <point x="-544" y="1348"/>
      <point x="-577" y="1216"/>
      <point x="-577" y="1152" type="curve" smooth="yes"/>
      <point x="-577" y="1067"/>
      <point x="-535" y="1028"/>
      <point x="-484" y="1028" type="curve" smooth="yes"/>
      <point x="-394" y="1028"/>
      <point x="-307" y="1109"/>
      <point x="-231" y="1247" type="curve"/>
      <point x="-268" y="1326" type="line"/>
      <point x="-346" y="1181"/>
      <point x="-391" y="1148"/>
      <point x="-415" y="1148" type="curve" smooth="yes"/>
      <point x="-426" y="1148"/>
      <point x="-433" y="1156"/>
      <point x="-433" y="1200" type="curve" smooth="yes"/>
      <point x="-433" y="1250"/>
      <point x="-398" y="1381"/>
    </contour>
  </outline>
</glyph>
<glyph name="GrCapArchaicSampi" format="2">
  <advance width="1176"/>
  <unicode hex="0372"/>
  <anchor x="510" y="-100" name="L"/>
  <anchor x="709" y="1320" name="U"/>
  <outline>
    <contour>
      <point x="1246" y="1225" type="curve"/>
      <point x="1201" y="1260" type="line"/>
      <point x="715" y="1260" type="line"/>
      <point x="592" y="1130" type="line"/>
      <point x="994" y="1130" type="line" smooth="yes"/>
      <point x="1051" y="1130"/>
      <point x="1067" y="927"/>
      <point x="1054" y="750" type="curve"/>
      <point x="1139" y="750" type="line"/>
      <point x="1179" y="868"/>
      <point x="1234" y="1157"/>
    </contour>
    <contour>
      <point x="887" y="1130" type="line"/>
      <point x="878" y="1260" type="line"/>
      <point x="219" y="1260" type="line"/>
      <point x="195" y="1190"/>
      <point x="136" y="885"/>
      <point x="120" y="750" type="curve"/>
      <point x="208" y="750" type="line"/>
      <point x="268" y="984"/>
      <point x="358" y="1130"/>
      <point x="399" y="1130" type="curve" smooth="yes"/>
    </contour>
    <contour>
      <point x="821" y="0" type="line"/>
      <point x="832" y="83" type="line"/>
      <point x="713" y="108"/>
      <point x="686" y="138"/>
      <point x="688" y="155" type="curve" smooth="yes"/>
      <point x="826" y="1137" type="line" smooth="yes"/>
      <point x="829" y="1155"/>
      <point x="883" y="1198"/>
      <point x="976" y="1217" type="curve"/>
      <point x="982" y="1260" type="line"/>
      <point x="472" y="1260" type="line"/>
      <point x="466" y="1217" type="line"/>
      <point x="559" y="1198"/>
      <point x="548" y="1153"/>
      <point x="546" y="1137" type="curve" smooth="yes"/>
      <point x="408" y="155" type="line" smooth="yes"/>
      <point x="405" y="136"/>
      <point x="371" y="108"/>
      <point x="244" y="83" type="curve"/>
      <point x="233" y="0" type="line"/>
    </contour>
  </outline>
</glyph>
<glyph name="GrDialTonos" format="2">
  <advance width="931"/>
  <unicode hex="0385"/>
  <anchor x="553" y="1050" name="_U"/>
  <outline>
    <contour>
      <point x="1016" y="1272" type="curve" smooth="yes"/>
      <point x="1016" y="1327"/>
      <point x="983" y="1383"/>
      <point x="912" y="1383" type="curve" smooth="yes"/>
      <point x="806" y="1383"/>
      <point x="743" y="1267"/>
      <point x="743" y="1186" type="curve" smooth="yes"/>
      <point x="743" y="1131"/>
      <point x="774" y="1076"/>
      <point x="845" y="1076" type="curve" smooth="yes"/>
      <point x="952" y="1076"/>
      <point x="1016" y="1188"/>
    </contour>
    <contour>
      <point x="403" y="1272" type="curve" smooth="yes"/>
      <point x="403" y="1327"/>
      <point x="370" y="1383"/>
      <point x="299" y="1383" type="curve" smooth="yes"/>
      <point x="193" y="1383"/>
      <point x="130" y="1267"/>
      <point x="130" y="1186" type="curve" smooth="yes"/>
      <point x="130" y="1131"/>
      <point x="161" y="1076"/>
      <point x="232" y="1076" type="curve" smooth="yes"/>
      <point x="339" y="1076"/>
      <point x="403" y="1188"/>
    </contour>
    <contour>
      <point x="916" y="1519" type="line"/>
      <point x="868" y="1586" type="line"/>
      <point x="816" y="1576"/>
      <point x="626" y="1533"/>
      <point x="582" y="1520" type="curve"/>
      <point x="402" y="1120" type="line"/>
      <point x="425" y="1099"/>
      <point x="466" y="1074"/>
      <point x="488" y="1067" type="curve"/>
    </contour>
  </outline>
</glyph>
<glyph name="GrCapGamma" format="2">
  <advance width="974"/>
  <unicode hex="0393"/>
  <anchor x="427" y="-100" name="L"/>
  <anchor x="630" y="1366" name="U"/>
  <outline>
    <contour>
      <point x="1057" y="1225" type="curve"/>
      <point x="1014" y="1260" type="line"/>
      <point x="527" y="1260" type="line"/>
      <point x="482" y="1130" type="line"/>
      <point x="841" y="1130" type="line" smooth="yes"/>
      <point x="888" y="1130"/>
      <point x="893" y="973"/>
      <point x="880" y="850" type="curve"/>
      <point x="961" y="850" type="line"/>
      <point x="983" y="901"/>
      <point x="1046" y="1157"/>
    </contour>
    <contour>
      <point x="530" y="0" type="line"/>
      <point x="541" y="83" type="line"/>
      <point x="422" y="108"/>
      <point x="393" y="128"/>
      <point x="395" y="144" type="curve" smooth="yes"/>
      <point x="531" y="1137" type="line" smooth="yes"/>
      <point x="534" y="1155"/>
      <point x="585" y="1158"/>
      <point x="672" y="1177" type="curve"/>
      <point x="683" y="1260" type="line"/>
      <point x="527" y="1260" type="line"/>
      <point x="162" y="1260" type="line"/>
      <point x="151" y="1177" type="line"/>
      <point x="237" y="1158"/>
      <point x="270" y="1131"/>
      <point x="268" y="1115" type="curve" smooth="yes"/>
      <point x="135" y="144" type="line" smooth="yes"/>
      <point x="133" y="126"/>
      <point x="87" y="101"/>
      <point x="1" y="83" type="curve"/>
      <point x="-10" y="0" type="line"/>
    </contour>
  </outline>
</glyph>
